{"glyphs":{"0":{"ha":850,"x_min":63,"x_max":788,"o":"m 695 108 q 649 45 695 108 q 425 -17 603 -17 q 155 108 247 -17 q 63 472 63 232 q 155 837 63 713 q 425 961 247 961 q 695 837 603 961 q 788 472 788 713 q 695 108 788 232 m 214 472 q 214 297 214 472 q 425 122 214 122 q 636 472 636 122 q 425 822 636 822 q 214 472 214 822 z "},"1":{"ha":553,"x_min":49,"x_max":407,"o":"m 249 0 l 249 650 l 49 650 l 49 783 q 219 819 176 783 q 263 944 263 854 l 407 944 l 407 0 l 249 0 z "},"2":{"ha":806,"x_min":69,"x_max":729,"o":"m 69 0 q 125 258 69 157 q 303 426 181 358 l 442 503 q 560 682 560 568 q 521 783 560 744 q 421 822 482 822 q 299 771 342 822 q 256 624 256 719 l 90 624 q 180 869 90 778 q 421 961 269 961 q 647 888 564 961 q 729 690 729 815 q 681 528 729 604 q 544 401 632 451 l 408 324 q 301 243 331 279 q 258 143 271 207 l 726 143 l 726 0 l 69 0 z "},"3":{"ha":794,"x_min":49,"x_max":725,"o":"m 399 -17 q 141 71 233 -17 q 49 315 49 158 l 211 315 q 260 169 211 221 q 399 118 308 118 q 518 160 472 118 q 564 269 564 201 q 386 425 564 425 l 319 425 l 319 563 l 388 563 q 539 701 539 563 q 498 794 539 758 q 393 829 457 829 q 273 785 317 829 q 229 665 229 742 l 72 665 q 159 881 72 801 q 393 961 246 961 q 617 890 532 961 q 701 701 701 818 q 542 497 701 549 q 675 421 625 482 q 725 271 725 360 q 634 64 725 144 q 399 -17 543 -17 z "},"4":{"ha":806,"x_min":83,"x_max":750,"o":"m 750 435 l 750 292 l 615 292 l 615 0 l 457 0 l 457 292 l 83 292 l 83 944 l 242 944 l 242 435 l 457 435 l 457 699 l 615 699 l 615 435 l 750 435 z "},"5":{"ha":811,"x_min":83,"x_max":749,"o":"m 408 -17 q 183 59 275 -17 q 83 253 92 135 l 244 253 q 296 159 249 193 q 411 125 343 125 q 547 178 497 125 q 596 319 596 231 q 551 460 596 407 q 429 513 506 513 q 246 403 294 513 l 100 403 l 100 944 l 693 944 l 693 803 l 244 803 l 244 558 q 451 642 317 642 q 668 555 588 642 q 749 325 749 468 q 656 81 749 179 q 408 -17 563 -17 z "},"6":{"ha":794,"x_min":56,"x_max":739,"o":"m 397 664 q 647 567 554 664 q 739 324 739 471 q 647 80 739 176 q 397 -17 554 -17 q 148 80 240 -17 q 56 324 56 176 q 126 543 56 451 l 424 944 l 614 944 l 394 664 l 397 664 m 258 175 q 283 147 258 175 q 397 118 308 118 q 537 175 486 118 q 588 324 588 232 q 537 472 588 415 q 397 529 486 529 q 258 472 308 529 q 207 324 207 415 q 258 175 207 232 z "},"7":{"ha":732,"x_min":63,"x_max":732,"o":"m 79 0 l 493 799 l 63 799 l 63 944 l 732 944 l 256 0 l 79 0 z "},"8":{"ha":819,"x_min":69,"x_max":750,"o":"m 658 60 q 611 22 658 60 q 410 -17 565 -17 q 162 60 254 -17 q 69 264 69 136 q 108 406 69 347 q 217 490 146 465 q 119 574 156 515 q 83 708 83 633 q 174 891 83 821 q 410 961 265 961 q 645 891 554 961 q 736 708 736 821 q 699 575 736 635 q 600 490 661 515 q 710 406 671 465 q 750 264 750 347 q 658 60 750 136 m 410 554 q 528 592 485 554 q 572 693 572 631 q 528 796 572 758 q 410 833 485 833 q 291 796 335 833 q 247 693 247 758 q 293 592 247 631 q 410 554 339 554 m 281 160 q 305 139 281 160 q 410 118 329 118 q 539 160 490 118 q 588 274 588 203 q 539 387 588 344 q 410 429 490 429 q 282 386 332 429 q 232 274 232 343 q 281 160 232 203 z "},"9":{"ha":788,"x_min":49,"x_max":732,"o":"m 732 621 q 661 401 732 493 l 364 0 l 174 0 l 393 281 l 390 281 q 141 377 233 281 q 49 621 49 474 q 141 865 49 768 q 390 961 233 961 q 640 865 547 961 q 732 621 732 768 m 251 769 q 225 741 251 769 q 200 621 200 713 q 251 472 200 529 q 390 415 301 415 q 530 472 479 415 q 581 621 581 529 q 530 769 581 713 q 390 826 479 826 q 251 769 301 826 z "},"\r":{"ha":347,"x_min":0,"x_max":0,"o":""}," ":{"ha":347,"x_min":0,"x_max":0,"o":""},"!":{"ha":390,"x_min":78,"x_max":313,"o":"m 119 310 l 119 972 l 271 972 l 271 310 l 119 310 m 278 24 q 260 6 278 24 q 194 -11 243 -11 q 112 24 146 -11 q 78 107 78 58 q 112 190 78 156 q 194 224 146 224 q 278 190 243 224 q 313 107 313 156 q 278 24 313 58 z "},"\"":{"ha":610,"x_min":69,"x_max":540,"o":"m 283 856 q 279 822 283 839 l 213 558 l 140 558 l 74 822 q 69 856 69 839 q 101 931 69 900 q 176 961 132 961 q 252 931 221 961 q 283 856 283 900 m 540 856 q 536 822 540 839 l 469 558 l 397 558 l 331 822 q 326 856 326 839 q 358 931 326 900 q 433 961 389 961 q 509 931 478 961 q 540 856 540 900 z "},"#":{"ha":739,"x_min":28,"x_max":711,"o":"m 113 0 l 151 283 l 28 283 l 28 400 l 168 400 l 192 572 l 69 572 l 69 689 l 208 689 l 247 972 l 371 972 l 332 689 l 474 689 l 513 972 l 636 972 l 597 689 l 711 689 l 711 572 l 581 572 l 557 400 l 669 400 l 669 283 l 540 283 l 500 0 l 378 0 l 417 283 l 275 283 l 235 0 l 113 0 m 292 400 l 433 400 l 457 572 l 315 572 l 292 400 z "},"$":{"ha":739,"x_min":42,"x_max":690,"o":"m 690 250 q 622 67 690 140 q 436 -21 553 -6 l 436 -139 l 322 -139 l 322 -21 q 115 83 188 -4 q 42 318 42 171 l 201 318 q 249 169 201 224 q 381 115 296 115 q 492 149 453 115 q 531 246 531 183 q 503 325 531 293 q 406 382 475 357 l 256 431 q 117 533 164 463 q 69 699 69 603 q 140 871 69 797 q 322 958 210 944 l 322 1083 l 436 1083 l 436 954 q 606 856 543 935 q 668 661 668 778 l 508 661 q 470 783 508 740 q 361 825 432 825 q 265 794 300 825 q 231 708 231 763 q 260 617 231 654 q 367 554 290 581 l 524 499 q 690 250 690 440 z "},"%":{"ha":1103,"x_min":29,"x_max":1074,"o":"m 274 -25 l 172 31 l 828 978 l 926 922 l 274 -25 m 456 549 q 423 515 456 549 q 276 481 389 481 q 97 549 164 481 q 29 717 29 618 q 97 884 29 815 q 276 953 164 953 q 456 884 389 953 q 524 717 524 815 q 456 549 524 618 m 192 631 q 207 614 192 631 q 276 597 222 597 q 361 631 331 597 q 392 717 392 665 q 361 802 392 768 q 276 836 331 836 q 192 802 222 836 q 161 717 161 768 q 192 631 161 665 m 1006 62 q 973 27 1006 62 q 826 -7 939 -7 q 647 62 714 -7 q 579 229 579 131 q 647 397 579 328 q 826 465 714 465 q 1006 397 939 465 q 1074 229 1074 328 q 1006 62 1074 131 m 742 144 q 757 127 742 144 q 826 110 772 110 q 911 144 881 110 q 942 229 942 178 q 911 315 942 281 q 826 349 881 349 q 742 315 772 349 q 711 229 711 281 q 742 144 711 178 z "},"&":{"ha":829,"x_min":56,"x_max":815,"o":"m 815 456 l 815 315 l 744 315 q 642 63 740 149 q 394 -24 543 -24 q 151 60 247 -24 q 56 275 56 144 q 110 428 56 364 q 239 513 165 493 q 79 725 79 569 q 167 922 79 847 q 399 996 256 996 q 633 917 543 996 q 724 686 724 838 l 557 686 q 518 812 557 764 q 399 860 479 860 q 290 824 335 860 q 244 725 244 789 q 280 618 244 656 q 399 581 315 581 l 435 581 l 435 436 l 401 436 q 219 274 219 436 q 267 162 219 208 q 394 115 314 115 q 523 165 469 115 q 579 315 576 215 l 496 315 l 496 456 l 815 456 z "},"'":{"ha":353,"x_min":69,"x_max":283,"o":"m 283 856 q 279 822 283 839 l 213 558 l 140 558 l 74 822 q 69 856 69 839 q 101 931 69 900 q 176 961 132 961 q 252 931 221 961 q 283 856 283 900 z "},"(":{"ha":451,"x_min":69,"x_max":472,"o":"m 379 -271 q 69 379 69 -4 q 379 1029 69 763 l 472 944 q 284 685 347 819 q 221 379 221 550 q 284 74 221 208 q 472 -186 347 -61 l 379 -271 z "},")":{"ha":451,"x_min":-21,"x_max":382,"o":"m 72 -271 l -21 -186 q 167 74 104 -61 q 231 379 231 208 q 167 685 231 550 q -21 944 104 819 l 72 1029 q 382 379 382 763 q 72 -271 382 -4 z "},"*":{"ha":572,"x_min":28,"x_max":544,"o":"m 175 483 l 78 551 l 218 719 l 28 767 l 64 872 l 244 797 l 228 996 l 344 996 l 328 797 l 508 872 l 544 767 l 354 719 l 494 551 l 397 483 l 286 668 l 175 483 z "},"+":{"ha":700,"x_min":69,"x_max":631,"o":"m 278 157 l 278 369 l 69 369 l 69 504 l 278 504 l 278 718 l 422 718 l 422 504 l 631 504 l 631 369 l 422 369 l 422 157 l 278 157 z "},",":{"ha":418,"x_min":83,"x_max":335,"o":"m 138 -168 q 83 -164 104 -168 l 83 -96 q 144 -99 104 -99 q 222 -65 196 -99 q 253 15 249 -35 q 190 -8 233 -8 q 114 22 144 -8 q 83 101 83 51 q 116 183 83 151 q 199 215 149 215 q 292 173 250 215 q 335 47 335 131 q 284 -108 335 -49 q 138 -168 233 -168 z "},"-":{"ha":568,"x_min":69,"x_max":499,"o":"m 69 300 l 69 435 l 499 435 l 499 300 l 69 300 z "},".":{"ha":401,"x_min":83,"x_max":318,"o":"m 283 24 q 266 6 283 24 q 200 -11 249 -11 q 117 24 151 -11 q 83 107 83 58 q 117 190 83 156 q 200 224 151 224 q 283 190 249 224 q 318 107 318 156 q 283 24 318 58 z "},"/":{"ha":626,"x_min":14,"x_max":613,"o":"m 136 -96 l 14 -43 l 490 1061 l 613 1008 l 136 -96 z "},":":{"ha":401,"x_min":83,"x_max":318,"o":"m 283 464 q 266 447 283 464 q 200 429 249 429 q 117 464 151 429 q 83 547 83 499 q 117 630 83 596 q 200 664 151 664 q 283 630 249 664 q 318 547 318 596 q 283 464 318 499 m 283 24 q 266 6 283 24 q 200 -11 249 -11 q 117 24 151 -11 q 83 107 83 58 q 117 190 83 156 q 200 224 151 224 q 283 190 249 224 q 318 107 318 156 q 283 24 318 58 z "},";":{"ha":418,"x_min":83,"x_max":335,"o":"m 283 463 q 266 445 283 463 q 200 428 249 428 q 117 463 151 428 q 83 546 83 497 q 117 628 83 594 q 200 663 151 663 q 283 628 249 663 q 318 546 318 594 q 283 463 318 497 m 138 -168 q 83 -164 104 -168 l 83 -96 q 144 -99 104 -99 q 222 -65 196 -99 q 253 15 249 -35 q 190 -8 233 -8 q 114 22 144 -8 q 83 101 83 51 q 116 183 83 151 q 199 215 149 215 q 292 173 250 215 q 335 47 335 131 q 284 -108 335 -49 q 138 -168 233 -168 z "},"<":{"ha":692,"x_min":69,"x_max":622,"o":"m 622 138 l 69 382 l 69 490 l 622 735 l 622 592 l 279 436 l 622 281 l 622 138 z "},"=":{"ha":728,"x_min":69,"x_max":658,"o":"m 69 490 l 69 625 l 658 625 l 658 490 l 69 490 m 69 246 l 69 381 l 658 381 l 658 246 l 69 246 z "},">":{"ha":692,"x_min":69,"x_max":622,"o":"m 69 138 l 69 281 l 413 436 l 69 592 l 69 735 l 622 490 l 622 382 l 69 138 z "},"?":{"ha":650,"x_min":7,"x_max":622,"o":"m 217 310 l 217 325 q 233 435 217 394 q 306 517 249 475 l 369 564 q 457 724 457 628 q 422 821 457 785 q 328 857 386 857 q 210 814 254 857 q 167 686 167 771 l 7 686 q 94 915 7 833 q 335 996 182 996 q 546 922 469 996 q 622 729 622 849 q 586 589 622 646 q 478 475 550 532 l 428 436 q 380 386 392 408 q 368 329 368 364 l 368 310 l 217 310 m 375 24 q 358 6 375 24 q 292 -11 340 -11 q 209 24 243 -11 q 175 107 175 58 q 209 190 175 156 q 292 224 243 224 q 375 190 340 224 q 410 107 410 156 q 375 24 410 58 z "},"@":{"ha":1228,"x_min":49,"x_max":1179,"o":"m 635 -268 q 314 -191 449 -268 q 114 15 179 -114 q 49 306 49 143 q 204 715 49 563 q 619 867 360 867 q 1028 725 876 867 q 1179 308 1179 583 q 1117 45 1179 133 q 939 -43 1056 -43 q 740 103 778 -43 q 561 15 685 15 q 368 99 443 15 q 293 299 293 182 q 369 502 293 418 q 564 586 446 586 q 740 499 685 586 l 740 572 l 867 572 l 867 196 q 944 57 867 57 q 1060 294 1060 57 q 618 761 1060 761 q 290 638 411 761 q 168 303 168 514 q 290 -32 168 96 q 638 -160 413 -160 q 886 -103 768 -160 l 932 -203 q 635 -268 794 -268 m 465 178 q 486 154 465 178 q 579 129 508 129 q 695 178 650 129 q 740 300 740 228 q 695 422 740 372 q 579 472 650 472 q 465 422 508 472 q 421 300 421 372 q 465 178 421 228 z "},"A":{"ha":838,"x_min":21,"x_max":817,"o":"m 643 0 l 606 124 l 232 124 l 194 0 l 21 0 l 349 972 l 489 972 l 817 0 l 643 0 m 274 267 l 563 267 l 418 749 l 274 267 z "},"B":{"ha":813,"x_min":104,"x_max":757,"o":"m 557 500 q 699 431 642 492 q 757 271 757 371 q 674 72 757 144 q 447 0 592 0 l 104 0 l 104 972 l 429 972 q 658 905 575 972 q 742 719 742 838 q 557 500 742 536 m 422 832 l 264 832 l 264 565 l 422 565 q 540 601 497 565 q 582 699 582 636 q 540 797 582 763 q 422 832 499 832 m 444 140 q 557 179 517 140 q 597 288 597 218 q 556 387 597 349 q 446 425 514 425 l 264 425 l 264 140 l 444 140 z "},"C":{"ha":1068,"x_min":49,"x_max":1025,"o":"m 554 -24 q 185 118 321 -24 q 49 486 49 260 q 185 854 49 713 q 554 996 321 996 q 876 897 750 996 q 1025 639 1003 797 l 850 639 q 751 796 826 739 q 556 853 675 853 q 306 753 396 853 q 217 486 217 654 q 306 219 217 318 q 556 119 396 119 q 751 176 675 119 q 850 333 826 233 l 1025 333 q 876 76 1003 175 q 554 -24 750 -24 z "},"D":{"ha":965,"x_min":104,"x_max":924,"o":"m 104 0 l 104 972 l 433 972 q 794 830 664 972 q 924 486 924 688 q 794 142 924 285 q 433 0 664 0 l 104 0 m 264 143 l 419 143 q 673 243 586 143 q 760 486 760 343 q 673 729 760 629 q 419 829 586 829 l 264 829 l 264 143 z "},"E":{"ha":756,"x_min":104,"x_max":665,"o":"m 104 0 l 104 972 l 665 972 l 665 829 l 264 829 l 264 554 l 665 554 l 665 411 l 264 411 l 264 143 l 665 143 l 665 0 l 104 0 z "},"F":{"ha":735,"x_min":104,"x_max":665,"o":"m 104 0 l 104 972 l 665 972 l 665 829 l 264 829 l 264 521 l 665 521 l 665 378 l 264 378 l 264 0 l 104 0 z "},"G":{"ha":1157,"x_min":47,"x_max":1129,"o":"m 1129 488 l 1129 344 l 1022 344 q 862 74 985 172 q 549 -24 739 -24 q 185 119 322 -24 q 49 479 47 261 q 185 846 50 696 q 563 996 321 996 q 855 906 738 996 q 985 681 972 815 l 810 681 q 728 805 793 757 q 563 853 663 853 q 304 747 393 853 q 217 479 215 640 q 306 222 215 325 q 549 119 397 119 q 854 344 797 119 l 667 344 l 667 488 l 1129 488 z "},"H":{"ha":929,"x_min":104,"x_max":825,"o":"m 104 0 l 104 972 l 264 972 l 264 554 l 665 554 l 665 972 l 825 972 l 825 0 l 665 0 l 665 411 l 264 411 l 264 0 l 104 0 z "},"I":{"ha":368,"x_min":104,"x_max":264,"o":"m 104 0 l 104 972 l 264 972 l 264 0 l 104 0 z "},"J":{"ha":744,"x_min":28,"x_max":661,"o":"m 343 -24 q 111 69 194 -24 q 28 317 28 163 l 188 317 q 227 173 188 226 q 343 119 267 119 q 460 173 419 119 q 501 315 501 226 l 501 972 l 661 972 l 661 315 q 577 69 661 161 q 343 -24 493 -24 z "},"K":{"ha":842,"x_min":104,"x_max":828,"o":"m 828 972 l 410 493 l 828 0 l 625 0 l 264 436 l 264 0 l 104 0 l 104 972 l 264 972 l 264 533 l 626 972 l 828 972 z "},"L":{"ha":710,"x_min":104,"x_max":654,"o":"m 104 0 l 104 972 l 264 972 l 264 150 l 654 150 l 654 0 l 104 0 z "},"M":{"ha":1135,"x_min":104,"x_max":1031,"o":"m 104 0 l 104 972 l 257 972 l 568 228 l 878 972 l 1031 972 l 1031 0 l 878 0 l 878 643 l 628 0 l 507 0 l 257 650 l 257 0 l 104 0 z "},"N":{"ha":914,"x_min":104,"x_max":810,"o":"m 104 0 l 104 972 l 272 972 l 657 267 l 657 972 l 810 972 l 810 0 l 642 0 l 257 706 l 257 0 l 104 0 z "},"O":{"ha":1103,"x_min":49,"x_max":1054,"o":"m 917 124 q 849 50 917 124 q 551 -24 781 -24 q 185 124 322 -24 q 49 486 49 271 q 185 849 49 701 q 551 996 322 996 q 917 849 781 996 q 1054 486 1054 701 q 917 124 1054 271 m 305 224 q 350 172 305 224 q 551 119 394 119 q 798 224 708 119 q 886 486 888 329 q 798 748 888 643 q 551 853 708 853 q 305 748 394 853 q 217 486 215 643 q 305 224 215 329 z "},"P":{"ha":810,"x_min":104,"x_max":796,"o":"m 463 972 q 702 876 608 972 q 796 632 796 781 q 702 388 796 483 q 463 292 608 292 l 264 292 l 264 0 l 104 0 l 104 972 l 463 972 m 453 435 q 584 491 532 435 q 636 632 636 547 q 584 773 636 717 q 453 829 532 829 l 264 829 l 264 435 l 453 435 z "},"Q":{"ha":1103,"x_min":49,"x_max":1054,"o":"m 1054 486 q 967 187 1054 318 q 728 4 881 56 l 832 -133 l 692 -204 l 554 -24 l 551 -24 q 185 124 322 -24 q 49 486 49 271 q 185 849 49 701 q 551 996 322 996 q 917 849 781 996 q 1054 486 1054 701 m 305 224 q 350 172 305 224 q 551 119 394 119 q 798 224 708 119 q 886 486 888 329 q 798 748 888 643 q 551 853 708 853 q 305 748 394 853 q 217 486 215 643 q 305 224 215 329 z "},"R":{"ha":844,"x_min":104,"x_max":796,"o":"m 796 632 q 740 435 796 519 q 589 314 683 350 l 781 0 l 599 0 l 421 292 l 264 292 l 264 0 l 104 0 l 104 972 l 463 972 q 702 876 608 972 q 796 632 796 781 m 264 829 l 264 435 l 453 435 q 584 491 532 435 q 636 632 636 547 q 584 773 636 717 q 453 829 532 829 l 264 829 z "},"S":{"ha":767,"x_min":42,"x_max":718,"o":"m 396 -24 q 134 65 226 -24 q 42 318 42 154 l 201 318 q 253 169 201 224 q 394 115 304 115 q 516 151 474 115 q 558 251 558 186 q 527 340 558 307 q 414 407 496 374 l 256 471 q 69 729 69 543 q 156 922 69 847 q 381 996 243 996 q 613 913 525 996 q 701 692 701 829 l 542 692 q 499 816 542 772 q 375 860 456 860 q 269 827 307 860 q 231 739 231 794 q 268 653 231 689 q 392 582 306 617 l 535 524 q 718 256 718 449 q 629 53 718 131 q 396 -24 540 -24 z "},"T":{"ha":739,"x_min":7,"x_max":732,"o":"m 289 0 l 289 822 l 7 822 l 7 972 l 732 972 l 732 822 l 449 822 l 449 0 l 289 0 z "},"U":{"ha":889,"x_min":83,"x_max":806,"o":"m 708 66 q 660 21 708 66 q 444 -24 611 -24 q 181 66 278 -24 q 83 322 83 156 l 83 972 l 243 972 l 243 332 q 297 174 243 229 q 444 119 351 119 q 592 174 538 119 q 646 332 646 229 l 646 972 l 806 972 l 806 322 q 708 66 806 156 z "},"V":{"ha":797,"x_min":0,"x_max":797,"o":"m 322 0 l 0 972 l 174 972 l 399 251 l 624 972 l 797 972 l 475 0 l 322 0 z "},"W":{"ha":1351,"x_min":0,"x_max":1351,"o":"m 336 0 l 0 972 l 168 972 l 399 265 l 617 972 l 735 972 l 953 265 l 1183 972 l 1351 972 l 1015 0 l 900 0 l 676 693 l 451 0 l 336 0 z "},"X":{"ha":856,"x_min":21,"x_max":835,"o":"m 21 0 l 338 486 l 21 972 l 201 972 l 428 617 l 654 972 l 835 972 l 518 486 l 835 0 l 654 0 l 428 354 l 201 0 l 21 0 z "},"Y":{"ha":779,"x_min":-21,"x_max":807,"o":"m 632 972 l 807 972 l 325 0 l 150 0 l 343 390 l -21 972 l 164 972 l 425 554 l 632 972 z "},"Z":{"ha":807,"x_min":28,"x_max":772,"o":"m 28 0 l 510 829 l 88 829 l 88 972 l 772 972 l 297 143 l 756 143 l 756 0 l 28 0 z "},"[":{"ha":406,"x_min":104,"x_max":385,"o":"m 104 -268 l 104 1018 l 385 1018 l 385 897 l 242 897 l 242 -149 l 385 -149 l 385 -268 l 104 -268 z "},"\\":{"ha":626,"x_min":14,"x_max":613,"o":"m 490 -96 l 14 1008 l 136 1061 l 613 -43 l 490 -96 z "},"]":{"ha":406,"x_min":21,"x_max":301,"o":"m 301 -268 l 21 -268 l 21 -149 l 164 -149 l 164 897 l 21 897 l 21 1018 l 301 1018 l 301 -268 z "},"^":{"ha":789,"x_min":69,"x_max":719,"o":"m 69 421 l 339 972 l 444 972 l 719 421 l 549 421 l 393 781 l 235 421 l 69 421 z "},"_":{"ha":722,"x_min":0,"x_max":722,"o":"m 0 -292 l 0 -187 l 722 -187 l 722 -292 l 0 -292 z "},"`":{"ha":833,"x_min":19,"x_max":460,"o":"m 411 697 l 19 850 l 68 963 l 460 814 l 411 697 z "},"a":{"ha":822,"x_min":49,"x_max":725,"o":"m 367 -17 q 132 79 215 -17 q 49 324 49 175 q 136 567 49 471 q 371 664 224 664 q 490 636 436 664 q 574 560 544 608 l 574 647 l 725 647 l 725 0 l 574 0 l 574 88 q 487 12 546 40 q 367 -17 428 -17 m 389 118 q 531 176 482 118 q 581 324 581 235 q 531 471 581 413 q 389 529 482 529 q 251 472 301 529 q 200 324 200 414 q 251 176 200 233 q 389 118 301 118 z "},"b":{"ha":822,"x_min":97,"x_max":774,"o":"m 465 664 q 689 570 604 664 q 774 324 774 476 q 685 78 774 174 q 456 -17 596 -17 q 335 12 392 -17 q 249 88 278 40 l 249 0 l 97 0 l 97 972 l 249 972 l 249 560 q 338 635 278 607 q 465 664 397 664 m 433 118 q 569 176 517 118 q 622 324 622 233 q 569 472 622 414 q 433 529 517 529 q 294 472 347 529 q 242 324 242 415 q 294 175 242 232 q 433 118 347 118 z "},"c":{"ha":726,"x_min":49,"x_max":678,"o":"m 371 -17 q 135 77 222 -17 q 49 324 49 171 q 135 570 49 476 q 371 664 222 664 q 585 597 504 664 q 678 417 667 529 l 526 417 q 371 529 501 529 q 245 476 290 529 q 200 324 200 422 q 245 172 200 225 q 371 118 290 118 q 526 224 500 118 l 678 224 q 585 49 667 114 q 371 -17 504 -17 z "},"d":{"ha":822,"x_min":49,"x_max":725,"o":"m 574 972 l 725 972 l 725 0 l 574 0 l 574 88 q 487 12 546 40 q 367 -17 428 -17 q 132 79 215 -17 q 49 324 49 175 q 136 567 49 471 q 371 664 224 664 q 490 636 436 664 q 574 560 544 608 l 574 972 m 389 118 q 531 176 482 118 q 581 324 581 235 q 531 471 581 413 q 389 529 482 529 q 251 472 301 529 q 200 324 200 414 q 251 176 200 233 q 389 118 301 118 z "},"e":{"ha":732,"x_min":49,"x_max":683,"o":"m 683 357 q 679 274 683 332 l 199 274 q 249 156 201 197 q 379 115 296 115 q 524 189 486 115 l 676 189 q 578 41 661 99 q 379 -17 496 -17 q 138 75 226 -17 q 49 324 49 167 q 137 572 49 479 q 374 664 225 664 q 598 578 513 664 q 683 357 683 493 m 199 389 l 535 389 q 491 504 533 464 q 371 544 449 544 q 246 501 292 544 q 199 389 200 458 z "},"f":{"ha":501,"x_min":28,"x_max":481,"o":"m 421 846 q 384 843 400 846 q 349 831 368 840 q 321 800 331 822 q 311 744 311 778 l 311 647 l 481 647 l 481 521 l 311 521 l 311 0 l 160 0 l 160 521 l 28 521 l 28 647 l 160 647 l 160 742 q 183 866 160 815 q 245 940 207 917 q 315 972 283 963 q 379 981 347 981 q 481 968 443 981 l 481 840 q 453 843 474 840 q 421 846 433 846 z "},"g":{"ha":822,"x_min":49,"x_max":725,"o":"m 574 647 l 725 647 l 725 28 q 608 -251 725 -167 q 386 -308 532 -308 q 158 -250 244 -308 q 56 -74 60 -183 l 214 -74 q 385 -183 235 -183 q 527 -137 481 -183 q 574 17 574 -90 l 574 88 q 487 12 546 40 q 367 -17 428 -17 q 134 80 219 -17 q 49 324 49 176 q 138 567 49 469 q 371 664 228 664 q 490 636 436 664 q 574 560 544 608 l 574 647 m 389 118 q 529 177 478 118 q 581 324 581 236 q 529 470 581 411 q 389 529 478 529 q 252 472 304 529 q 200 324 200 414 q 252 176 200 233 q 389 118 304 118 z "},"h":{"ha":786,"x_min":97,"x_max":696,"o":"m 460 664 q 696 407 696 664 l 696 0 l 544 0 l 544 338 q 513 489 544 443 q 403 535 481 535 q 289 488 329 535 q 249 356 249 442 l 249 0 l 97 0 l 97 972 l 249 972 l 249 557 q 460 664 311 664 z "},"i":{"ha":346,"x_min":61,"x_max":286,"o":"m 254 773 q 238 757 254 773 q 174 740 222 740 q 93 773 125 740 q 61 853 61 806 q 93 933 61 900 q 174 965 125 965 q 254 933 222 965 q 286 853 286 900 q 254 773 286 806 m 97 0 l 97 647 l 249 647 l 249 0 l 97 0 z "},"j":{"ha":350,"x_min":-14,"x_max":290,"o":"m 258 773 q 242 757 258 773 q 178 740 226 740 q 97 773 129 740 q 65 853 65 806 q 97 933 65 900 q 178 965 129 965 q 258 933 226 965 q 290 853 290 900 q 258 773 290 806 m 75 -300 q -14 -286 13 -300 l -14 -151 q 43 -157 13 -157 q 101 -90 101 -157 l 101 647 l 253 647 l 253 -135 q 207 -258 253 -215 q 75 -300 161 -300 z "},"k":{"ha":719,"x_min":97,"x_max":685,"o":"m 685 647 l 404 338 l 685 0 l 486 0 l 249 294 l 249 0 l 97 0 l 97 972 l 249 972 l 249 364 l 493 647 l 685 647 z "},"l":{"ha":346,"x_min":97,"x_max":249,"o":"m 97 0 l 97 972 l 249 972 l 249 0 l 97 0 z "},"m":{"ha":1156,"x_min":97,"x_max":1065,"o":"m 97 0 l 97 647 l 249 647 l 249 557 q 319 634 271 604 q 429 664 368 664 q 633 549 583 664 q 711 631 657 599 q 832 664 765 664 q 1065 410 1065 664 l 1065 0 l 914 0 l 914 381 q 793 535 914 535 q 693 492 729 535 q 657 343 657 450 l 657 0 l 506 0 l 506 382 q 388 535 506 535 q 285 492 322 535 q 249 343 249 450 l 249 0 l 97 0 z "},"n":{"ha":786,"x_min":97,"x_max":696,"o":"m 97 0 l 97 647 l 249 647 l 249 557 q 460 664 311 664 q 696 407 696 664 l 696 0 l 544 0 l 544 338 q 513 489 544 443 q 403 535 481 535 q 289 488 329 535 q 249 356 249 442 l 249 0 l 97 0 z "},"o":{"ha":781,"x_min":49,"x_max":732,"o":"m 640 80 q 593 32 640 80 q 390 -17 547 -17 q 141 80 233 -17 q 49 324 49 176 q 141 567 49 471 q 390 664 233 664 q 640 567 547 664 q 732 324 732 471 q 640 80 732 176 m 251 175 q 276 147 251 175 q 390 118 301 118 q 530 175 479 118 q 581 324 581 232 q 530 472 581 415 q 390 529 479 529 q 251 472 301 529 q 200 324 200 415 q 251 175 200 232 z "},"p":{"ha":822,"x_min":97,"x_max":774,"o":"m 465 664 q 689 570 604 664 q 774 324 774 476 q 685 78 774 174 q 456 -17 596 -17 q 335 12 392 -17 q 249 88 278 40 l 249 -292 l 97 -292 l 97 647 l 249 647 l 249 560 q 338 635 278 607 q 465 664 397 664 m 433 118 q 569 176 517 118 q 622 324 622 233 q 569 472 622 414 q 433 529 517 529 q 294 472 347 529 q 242 324 242 415 q 294 175 242 232 q 433 118 347 118 z "},"q":{"ha":822,"x_min":49,"x_max":725,"o":"m 574 647 l 725 647 l 725 -292 l 574 -292 l 574 88 q 487 12 546 40 q 367 -17 428 -17 q 132 79 215 -17 q 49 324 49 175 q 136 567 49 471 q 371 664 224 664 q 490 636 436 664 q 574 560 544 608 l 574 647 m 389 118 q 531 176 482 118 q 581 324 581 235 q 531 471 581 413 q 389 529 482 529 q 251 472 301 529 q 200 324 200 414 q 251 176 200 233 q 389 118 301 118 z "},"r":{"ha":508,"x_min":97,"x_max":481,"o":"m 97 0 l 97 647 l 249 647 l 249 522 q 314 622 265 588 q 421 656 363 656 q 481 650 458 656 l 481 511 q 421 514 457 514 q 294 455 340 514 q 249 286 249 396 l 249 0 l 97 0 z "},"s":{"ha":635,"x_min":49,"x_max":579,"o":"m 324 -17 q 125 46 201 -17 q 49 199 49 108 l 200 199 q 237 131 200 157 q 332 104 274 104 q 400 125 375 104 q 425 181 425 146 q 376 249 425 236 l 210 294 q 69 474 69 333 q 139 609 69 554 q 318 664 208 664 q 508 608 442 664 q 574 463 574 553 l 425 463 q 395 526 425 503 q 313 549 365 549 q 246 530 272 549 q 219 482 219 511 q 275 413 219 429 l 429 368 q 538 302 496 349 q 579 194 579 256 q 512 42 579 100 q 324 -17 444 -17 z "},"t":{"ha":508,"x_min":35,"x_max":467,"o":"m 390 128 q 467 133 436 128 l 467 0 q 354 -8 419 -8 q 289 -3 317 -8 q 224 23 261 3 q 165 93 186 43 q 144 219 144 143 l 144 521 l 35 521 l 35 647 l 144 647 l 144 843 l 296 843 l 296 647 l 444 647 l 444 521 l 296 521 l 296 254 q 318 152 296 176 q 390 128 340 128 z "},"u":{"ha":779,"x_min":90,"x_max":682,"o":"m 331 -17 q 156 49 221 -17 q 90 240 90 114 l 90 647 l 242 647 l 242 278 q 272 154 242 196 q 374 113 303 113 q 493 159 456 113 q 531 282 531 206 l 531 647 l 682 647 l 682 0 l 531 0 l 531 90 q 331 -17 471 -17 z "},"v":{"ha":683,"x_min":0,"x_max":683,"o":"m 281 0 l 0 647 l 163 647 l 342 203 l 521 647 l 683 647 l 403 0 l 281 0 z "},"w":{"ha":1061,"x_min":7,"x_max":1054,"o":"m 246 0 l 7 647 l 174 647 l 308 219 l 449 647 l 613 647 l 753 219 l 888 647 l 1054 647 l 815 0 l 688 0 l 531 461 l 374 0 l 246 0 z "},"x":{"ha":681,"x_min":14,"x_max":667,"o":"m 14 0 l 253 326 l 18 647 l 206 647 l 340 438 l 475 647 l 663 647 l 428 326 l 667 0 l 479 0 l 340 217 l 201 0 l 14 0 z "},"y":{"ha":786,"x_min":90,"x_max":689,"o":"m 538 647 l 689 647 l 689 -3 q 604 -233 689 -151 q 385 -308 522 -308 q 163 -242 242 -308 q 90 -74 93 -181 l 243 -74 q 280 -156 249 -129 q 382 -183 311 -183 q 496 -137 454 -183 q 538 8 538 -90 l 538 90 q 329 -17 475 -17 q 152 58 214 -17 q 90 253 90 132 l 90 647 l 242 647 l 242 285 q 382 117 242 117 q 498 171 458 117 q 538 313 538 225 l 538 647 z "},"z":{"ha":615,"x_min":7,"x_max":608,"o":"m 7 0 l 357 519 l 36 519 l 36 647 l 608 647 l 257 126 l 583 126 l 583 0 l 7 0 z "},"{":{"ha":443,"x_min":28,"x_max":436,"o":"m 346 -268 q 213 -217 271 -268 q 156 -75 156 -167 l 156 189 q 113 281 156 250 q 28 313 71 313 l 28 438 q 113 469 71 438 q 156 561 156 500 l 156 825 q 213 967 156 917 q 346 1018 271 1018 l 436 1018 l 436 899 l 368 899 q 293 794 293 899 l 293 540 q 278 461 293 494 q 239 410 263 428 q 195 385 215 393 q 156 375 175 378 q 195 365 175 372 q 239 340 215 357 q 278 289 263 322 q 293 210 293 256 l 293 -44 q 368 -149 293 -149 l 436 -149 l 436 -268 l 346 -268 z "},"|":{"ha":325,"x_min":104,"x_max":221,"o":"m 104 -267 l 104 1018 l 221 1018 l 221 -267 l 104 -267 z "},"}":{"ha":443,"x_min":7,"x_max":415,"o":"m 97 -268 l 7 -268 l 7 -149 l 75 -149 q 150 -44 150 -149 l 150 210 q 165 289 150 256 q 204 340 181 322 q 248 365 228 357 q 288 375 268 372 q 248 385 268 378 q 204 410 228 393 q 165 461 181 428 q 150 540 150 494 l 150 794 q 75 899 150 899 l 7 899 l 7 1018 l 97 1018 q 230 967 172 1018 q 288 825 288 917 l 288 561 q 330 469 288 500 q 415 438 372 438 l 415 313 q 330 281 372 313 q 288 189 288 250 l 288 -75 q 230 -217 288 -167 q 97 -268 172 -268 z "},"~":{"ha":760,"x_min":69,"x_max":690,"o":"m 536 250 q 386 296 475 250 q 217 344 294 344 q 69 268 149 344 l 69 397 q 224 479 131 479 q 388 435 281 479 q 419 422 397 431 q 453 408 442 413 q 483 397 465 403 q 513 388 500 390 q 538 385 526 385 q 690 461 611 385 l 690 332 q 536 250 629 250 z "}," ":{"ha":361,"x_min":0,"x_max":0,"o":""},"¡":{"ha":390,"x_min":78,"x_max":313,"o":"m 112 657 q 129 674 112 657 q 194 692 146 692 q 278 657 243 692 q 313 574 313 622 q 278 491 313 525 q 194 457 243 457 q 112 491 146 457 q 78 574 78 525 q 112 657 78 622 m 119 371 l 271 371 l 271 -292 l 119 -292 l 119 371 z "},"¢":{"ha":726,"x_min":49,"x_max":678,"o":"m 371 264 q 526 369 500 264 l 678 369 q 603 210 668 272 q 432 133 539 147 l 432 0 l 318 0 l 318 132 q 120 240 192 150 q 49 469 49 331 q 120 699 49 608 q 318 807 192 789 l 318 944 l 432 944 l 432 806 q 603 726 539 792 q 678 563 668 661 l 526 563 q 371 675 501 675 q 245 622 290 675 q 200 469 200 568 q 245 317 200 371 q 371 264 290 264 z "},"£":{"ha":711,"x_min":49,"x_max":697,"o":"m 289 381 q 270 233 289 301 q 229 143 251 165 l 661 143 l 661 0 l 53 0 l 53 104 q 107 197 85 133 q 129 347 129 260 l 129 442 l 49 442 l 49 556 l 129 556 l 129 660 q 208 888 129 815 q 414 961 288 961 q 622 889 547 961 q 697 685 697 817 l 538 685 q 413 832 538 832 q 289 664 289 832 l 289 556 l 501 556 l 501 442 l 289 442 l 289 381 z "},"¤":{"ha":824,"x_min":35,"x_max":789,"o":"m 131 139 l 35 233 l 125 324 q 71 514 71 410 q 125 703 71 618 l 36 793 l 131 889 l 219 799 q 411 854 304 854 q 604 799 519 854 l 693 888 l 789 793 l 699 703 q 754 514 754 619 q 699 324 754 407 l 788 235 l 693 139 l 604 228 q 411 174 522 174 q 221 228 303 174 l 131 139 m 411 308 q 549 368 496 308 q 603 514 603 428 q 549 660 603 600 q 411 719 496 719 q 275 660 328 719 q 222 514 222 600 q 275 368 222 428 q 411 308 328 308 z "},"¥":{"ha":778,"x_min":7,"x_max":771,"o":"m 771 944 l 474 388 l 656 388 l 656 283 l 469 283 l 469 214 l 656 214 l 656 110 l 469 110 l 469 0 l 308 0 l 308 110 l 122 110 l 122 214 l 308 214 l 308 283 l 122 283 l 122 388 l 304 388 l 7 944 l 185 944 l 389 517 l 593 944 l 771 944 z "},"¦":{"ha":325,"x_min":104,"x_max":221,"o":"m 104 450 l 104 1018 l 221 1018 l 221 450 l 104 450 m 104 -267 l 104 322 l 221 322 l 221 -267 l 104 -267 z "},"§":{"ha":783,"x_min":69,"x_max":714,"o":"m 703 325 q 579 143 703 206 q 681 -67 681 64 q 598 -244 681 -179 q 378 -308 515 -308 q 149 -235 228 -308 q 69 -40 69 -161 l 233 -40 q 270 -140 233 -104 q 379 -176 307 -176 q 479 -147 443 -176 q 515 -69 515 -118 q 470 31 515 -11 q 361 99 425 72 q 233 155 297 125 q 124 241 169 185 q 79 378 79 297 q 197 557 79 496 q 103 754 103 631 q 186 928 103 860 q 403 996 269 996 q 634 922 554 996 q 714 728 714 849 l 549 728 q 512 828 549 792 q 403 864 475 864 q 303 835 339 864 q 268 757 268 806 q 292 683 268 715 q 355 629 317 650 q 440 589 393 608 q 532 547 486 569 q 616 498 578 525 q 678 426 654 471 q 703 325 703 382 m 238 386 q 248 342 238 363 q 269 309 258 322 q 308 280 281 296 q 351 257 336 264 q 406 233 367 250 q 460 211 446 217 q 546 317 546 243 q 535 359 546 339 q 513 392 525 379 q 473 420 500 406 q 427 443 446 435 q 372 466 408 451 q 317 489 335 481 q 238 386 238 456 z "},"¨":{"ha":833,"x_min":74,"x_max":568,"o":"m 179 739 q 105 769 136 739 q 74 844 74 800 q 104 920 74 889 q 179 951 135 951 q 255 920 224 951 q 286 844 286 889 q 255 769 286 800 q 179 739 224 739 m 537 769 q 521 754 537 769 q 461 739 506 739 q 386 769 417 739 q 356 844 356 800 q 386 920 356 889 q 461 951 417 951 q 537 920 506 951 q 568 844 568 889 q 537 769 568 800 z "},"©":{"ha":1103,"x_min":49,"x_max":1054,"o":"m 917 122 q 849 49 917 122 q 551 -24 781 -24 q 185 122 322 -24 q 49 486 49 268 q 185 850 49 704 q 551 996 322 996 q 917 850 781 996 q 1054 486 1054 704 q 917 122 1054 268 m 275 197 q 327 139 275 197 q 551 81 379 81 q 828 197 724 81 q 932 486 932 314 q 828 775 932 658 q 551 892 724 892 q 275 775 379 892 q 171 486 171 658 q 275 197 171 314 m 560 203 q 356 285 432 203 q 279 486 279 368 q 356 687 279 604 q 560 769 432 769 q 730 714 665 769 q 807 571 794 658 l 703 571 q 656 650 693 619 q 558 681 618 681 q 429 624 478 681 q 381 486 381 567 q 429 349 381 406 q 558 292 478 292 q 656 322 618 292 q 703 401 693 353 l 807 401 q 730 258 794 314 q 560 203 665 203 z "},"ª":{"ha":517,"x_min":29,"x_max":471,"o":"m 218 547 q 81 602 132 547 q 29 744 29 657 q 82 888 29 831 q 219 944 135 944 q 349 879 310 944 l 349 933 l 471 933 l 471 556 l 349 556 l 349 610 q 218 547 313 547 m 253 647 q 326 675 299 647 q 353 744 353 703 q 326 814 353 786 q 253 842 299 842 q 181 814 208 842 q 154 744 154 786 q 181 675 154 703 q 253 647 208 647 z "},"«":{"ha":715,"x_min":7,"x_max":701,"o":"m 296 90 l 7 363 l 296 635 l 381 547 l 185 363 l 381 178 l 296 90 m 617 90 l 328 363 l 617 635 l 701 547 l 506 363 l 701 178 l 617 90 z "},"¬":{"ha":700,"x_min":69,"x_max":631,"o":"m 479 264 l 479 476 l 69 476 l 69 611 l 631 611 l 631 264 l 479 264 z "},"­":{"ha":568,"x_min":69,"x_max":499,"o":"m 69 300 l 69 435 l 499 435 l 499 300 l 69 300 z "},"®":{"ha":853,"x_min":49,"x_max":804,"o":"m 701 339 q 650 284 701 339 q 426 229 599 229 q 151 339 254 229 q 49 613 49 449 q 151 886 49 776 q 426 996 254 996 q 701 886 599 996 q 804 613 804 776 q 701 339 804 449 m 426 308 q 635 396 557 308 q 713 613 713 483 q 635 829 713 742 q 426 917 557 917 q 219 829 297 917 q 140 613 140 742 q 219 396 140 483 q 426 308 297 308 m 290 421 l 290 814 l 450 814 q 549 774 511 814 q 588 675 588 733 q 565 599 588 633 q 504 549 543 565 l 583 421 l 500 421 l 429 539 l 364 539 l 364 421 l 290 421 m 367 603 l 444 603 q 493 624 475 603 q 511 675 511 644 q 493 727 511 706 q 444 749 475 749 l 367 749 l 367 603 z "},"¯":{"ha":833,"x_min":83,"x_max":525,"o":"m 83 772 l 83 892 l 525 892 l 525 772 l 83 772 z "},"°":{"ha":493,"x_min":28,"x_max":465,"o":"m 247 524 q 91 587 154 524 q 28 742 28 650 q 91 898 28 835 q 247 961 154 961 q 402 898 339 961 q 465 742 465 835 q 402 587 465 650 q 247 524 339 524 m 247 638 q 320 668 293 638 q 347 742 347 699 q 320 816 347 786 q 247 846 293 846 q 173 816 200 846 q 146 742 146 786 q 173 667 146 697 q 247 638 200 638 z "},"±":{"ha":700,"x_min":69,"x_max":631,"o":"m 274 397 l 274 540 l 69 540 l 69 675 l 274 675 l 274 819 l 425 819 l 425 675 l 631 675 l 631 540 l 425 540 l 425 397 l 274 397 m 69 181 l 69 315 l 631 315 l 631 181 l 69 181 z "},"²":{"ha":536,"x_min":40,"x_max":478,"o":"m 40 556 q 75 715 40 654 q 188 815 110 775 l 279 861 q 343 949 343 892 q 324 997 343 979 q 274 1014 306 1014 q 188 919 188 1014 l 54 919 q 114 1062 54 1008 q 272 1115 174 1115 q 423 1072 368 1115 q 478 954 478 1029 q 365 788 478 846 l 281 743 q 226 706 242 722 q 203 663 210 690 l 474 663 l 474 556 l 40 556 z "},"³":{"ha":544,"x_min":46,"x_max":489,"o":"m 268 543 q 103 593 161 543 q 46 736 46 643 l 178 736 q 202 669 178 693 q 271 646 226 646 q 332 665 310 646 q 354 717 354 685 q 263 790 354 790 l 207 790 l 207 890 l 264 890 q 347 957 347 890 q 326 1001 347 983 q 271 1018 304 1018 q 210 998 233 1018 q 188 942 188 978 l 57 942 q 115 1068 57 1021 q 274 1115 174 1115 q 423 1074 367 1115 q 479 964 479 1033 q 372 842 479 868 q 458 797 426 832 q 489 711 489 763 q 428 590 489 636 q 268 543 368 543 z "},"´":{"ha":833,"x_min":106,"x_max":546,"o":"m 154 697 l 106 814 l 497 963 l 546 850 l 154 697 z "},"µ":{"ha":786,"x_min":97,"x_max":689,"o":"m 538 647 l 689 647 l 689 0 l 538 0 l 538 90 q 338 -17 478 -17 q 249 -4 288 -17 l 249 -292 l 97 -292 l 97 647 l 249 647 l 249 278 q 279 154 249 196 q 381 113 310 113 q 500 159 463 113 q 538 282 538 206 l 538 647 z "},"¶":{"ha":944,"x_min":69,"x_max":875,"o":"m 369 -206 l 369 457 q 152 524 235 457 q 69 722 69 592 q 94 844 69 792 q 156 924 119 896 q 242 969 192 953 q 333 991 293 986 q 415 996 372 996 l 875 996 l 875 871 l 801 871 l 801 -206 l 658 -206 l 658 869 l 513 869 l 513 -206 l 369 -206 z "},"·":{"ha":401,"x_min":83,"x_max":318,"o":"m 283 351 q 266 334 283 351 q 200 317 249 317 q 117 351 151 317 q 83 435 83 386 q 117 517 83 483 q 200 551 151 551 q 283 517 249 551 q 318 435 318 483 q 283 351 318 386 z "},"¸":{"ha":833,"x_min":69,"x_max":324,"o":"m 194 -300 q 108 -274 142 -300 q 69 -197 75 -247 l 146 -197 q 161 -226 147 -215 q 193 -236 175 -236 q 243 -178 243 -236 q 194 -122 243 -122 q 150 -144 165 -122 l 82 -144 l 82 0 l 161 0 l 161 -82 q 218 -67 179 -67 q 293 -95 263 -67 q 324 -176 324 -124 q 290 -265 324 -231 q 194 -300 257 -300 z "},"¹":{"ha":396,"x_min":38,"x_max":293,"o":"m 167 556 l 167 906 l 38 906 l 38 1004 q 153 1027 122 1004 q 183 1103 183 1050 l 293 1103 l 293 556 l 167 556 z "},"º":{"ha":507,"x_min":31,"x_max":476,"o":"m 415 602 q 385 574 415 602 q 253 546 354 546 q 91 602 151 546 q 31 746 31 658 q 91 889 31 833 q 253 944 151 944 q 415 889 354 944 q 476 746 476 833 q 415 602 476 658 m 179 675 q 193 661 179 675 q 253 647 207 647 q 326 675 299 647 q 353 746 353 703 q 326 815 353 789 q 253 842 299 842 q 179 815 207 842 q 151 746 151 788 q 179 675 151 703 z "},"»":{"ha":715,"x_min":14,"x_max":708,"o":"m 99 90 l 14 178 l 210 363 l 14 547 l 99 635 l 388 363 l 99 90 m 419 90 l 335 178 l 531 363 l 335 547 l 419 635 l 708 363 l 419 90 z "},"¼":{"ha":1174,"x_min":38,"x_max":1125,"o":"m 788 978 l 888 913 l 232 -35 l 132 31 l 788 978 m 167 397 l 167 747 l 38 747 l 38 846 q 153 869 122 846 q 183 944 183 892 l 293 944 l 293 397 l 167 397 m 1125 267 l 1125 156 l 1056 156 l 1056 0 l 926 0 l 926 156 l 690 156 l 690 547 l 818 547 l 818 267 l 926 267 l 926 408 l 1056 408 l 1056 267 l 1125 267 z "},"½":{"ha":1146,"x_min":38,"x_max":1088,"o":"m 232 -35 l 132 31 l 788 978 l 888 913 l 232 -35 m 167 397 l 167 747 l 38 747 l 38 846 q 153 869 122 846 q 183 944 183 892 l 293 944 l 293 397 l 167 397 m 650 0 q 685 159 650 99 q 797 260 719 219 l 889 306 q 953 393 953 336 q 934 441 953 424 q 883 458 915 458 q 797 364 797 458 l 664 364 q 724 506 664 453 q 882 560 783 560 q 1033 517 978 560 q 1088 399 1088 474 q 975 232 1088 290 l 890 188 q 835 151 851 167 q 813 107 819 135 l 1083 107 l 1083 0 l 650 0 z "},"¾":{"ha":1294,"x_min":46,"x_max":1246,"o":"m 908 978 l 1008 913 l 353 -35 l 253 31 l 908 978 m 489 553 q 428 431 489 478 q 268 385 368 385 q 103 435 161 385 q 46 578 46 485 l 178 578 q 202 511 178 535 q 271 488 226 488 q 332 507 310 488 q 354 558 354 526 q 263 632 354 632 l 207 632 l 207 732 l 264 732 q 347 799 347 732 q 326 842 347 825 q 271 860 304 860 q 210 840 233 860 q 188 783 188 819 l 57 783 q 115 910 57 863 q 274 957 174 957 q 423 916 367 957 q 479 806 479 875 q 372 683 479 710 q 458 639 426 674 q 489 553 489 604 m 1246 267 l 1246 156 l 1176 156 l 1176 0 l 1047 0 l 1047 156 l 811 156 l 811 547 l 939 547 l 939 267 l 1047 267 l 1047 408 l 1176 408 l 1176 267 l 1246 267 z "},"¿":{"ha":650,"x_min":28,"x_max":643,"o":"m 275 700 q 292 717 275 700 q 358 735 310 735 q 441 700 407 735 q 475 617 475 665 q 441 534 475 568 q 358 500 407 500 q 275 534 310 500 q 240 617 240 568 q 275 700 240 665 m 433 414 l 433 399 q 417 289 433 329 q 344 207 401 249 l 281 160 q 193 0 193 96 q 228 -97 193 -61 q 322 -133 264 -133 q 440 -90 396 -133 q 483 38 483 -47 l 643 38 q 556 -191 643 -110 q 315 -272 468 -272 q 104 -199 181 -272 q 28 -6 28 -125 q 64 135 28 78 q 172 249 100 192 l 222 288 q 270 338 258 315 q 282 394 282 360 l 282 414 l 433 414 z "},"À":{"ha":838,"x_min":21,"x_max":817,"o":"m 582 1118 l 528 1015 l 242 1144 l 294 1246 l 582 1118 m 643 0 l 606 124 l 232 124 l 194 0 l 21 0 l 349 972 l 489 972 l 817 0 l 643 0 m 274 267 l 563 267 l 418 749 l 274 267 z "},"Á":{"ha":838,"x_min":21,"x_max":817,"o":"m 596 1144 l 310 1015 l 256 1118 l 543 1246 l 596 1144 m 643 0 l 606 124 l 232 124 l 194 0 l 21 0 l 349 972 l 489 972 l 817 0 l 643 0 m 274 267 l 563 267 l 418 749 l 274 267 z "},"Â":{"ha":838,"x_min":21,"x_max":817,"o":"m 414 1124 l 297 1018 l 218 1088 l 414 1253 l 610 1088 l 531 1018 l 414 1124 m 643 0 l 606 124 l 232 124 l 194 0 l 21 0 l 349 972 l 489 972 l 817 0 l 643 0 m 274 267 l 563 267 l 418 749 l 274 267 z "},"Ã":{"ha":838,"x_min":21,"x_max":817,"o":"m 303 1097 q 252 1085 272 1097 q 204 1038 232 1072 l 142 1097 q 292 1211 208 1211 q 416 1167 344 1211 q 522 1124 488 1124 q 636 1189 585 1124 l 696 1121 q 533 1010 638 1015 q 404 1051 476 1006 q 303 1097 332 1097 m 643 0 l 606 124 l 232 124 l 194 0 l 21 0 l 349 972 l 489 972 l 817 0 l 643 0 m 274 267 l 563 267 l 418 749 l 274 267 z "},"Ä":{"ha":838,"x_min":21,"x_max":817,"o":"m 328 1056 q 313 1040 328 1056 q 253 1025 297 1025 q 178 1056 208 1025 q 147 1131 147 1086 q 178 1206 147 1175 q 253 1238 208 1238 q 328 1206 297 1238 q 360 1131 360 1175 q 328 1056 360 1086 m 585 1025 q 510 1056 542 1025 q 479 1131 479 1086 q 510 1206 479 1175 q 585 1238 540 1238 q 660 1206 629 1238 q 692 1131 692 1175 q 660 1056 692 1086 q 585 1025 629 1025 m 643 0 l 606 124 l 232 124 l 194 0 l 21 0 l 349 972 l 489 972 l 817 0 l 643 0 m 274 267 l 563 267 l 418 749 l 274 267 z "},"Å":{"ha":838,"x_min":21,"x_max":817,"o":"m 643 0 l 606 124 l 232 124 l 194 0 l 21 0 l 332 921 q 265 985 290 944 q 240 1072 240 1025 q 292 1197 240 1146 q 419 1249 344 1249 q 551 1196 496 1249 q 606 1072 606 1143 q 578 983 606 1024 q 507 919 551 942 l 817 0 l 643 0 m 419 1160 q 360 1134 385 1160 q 335 1072 335 1108 q 360 1013 335 1038 q 419 989 385 989 q 482 1013 457 989 q 507 1074 507 1038 q 483 1135 507 1111 q 419 1160 458 1160 m 274 267 l 563 267 l 418 749 l 274 267 z "},"Æ":{"ha":1199,"x_min":14,"x_max":1108,"o":"m 1108 829 l 735 829 l 735 554 l 1108 554 l 1108 411 l 735 411 l 735 143 l 1108 143 l 1108 0 l 575 0 l 575 131 l 249 131 l 188 0 l 14 0 l 493 972 l 1108 972 l 1108 829 m 311 267 l 575 267 l 575 836 l 311 267 z "},"Ç":{"ha":1068,"x_min":49,"x_max":1025,"o":"m 556 119 q 751 176 675 119 q 850 333 826 233 l 1025 333 q 889 86 1004 185 q 594 -22 774 -12 l 594 -82 q 651 -67 613 -67 q 726 -95 696 -67 q 757 -176 757 -124 q 724 -265 757 -231 q 628 -300 690 -300 q 542 -274 575 -300 q 503 -197 508 -247 l 579 -197 q 594 -226 581 -215 q 626 -236 608 -236 q 676 -178 676 -236 q 628 -122 676 -122 q 583 -144 599 -122 l 515 -144 l 515 -22 q 174 130 299 -10 q 49 486 49 269 q 185 854 49 713 q 554 996 321 996 q 876 897 750 996 q 1025 639 1003 797 l 850 639 q 751 796 826 739 q 556 853 675 853 q 306 753 396 853 q 217 486 217 654 q 306 219 217 318 q 556 119 396 119 z "},"È":{"ha":756,"x_min":104,"x_max":665,"o":"m 500 1015 l 214 1144 l 267 1246 l 554 1118 l 500 1015 m 104 0 l 104 972 l 665 972 l 665 829 l 264 829 l 264 554 l 665 554 l 665 411 l 264 411 l 264 143 l 665 143 l 665 0 l 104 0 z "},"É":{"ha":756,"x_min":104,"x_max":665,"o":"m 282 1015 l 228 1118 l 515 1246 l 568 1144 l 282 1015 m 104 0 l 104 972 l 665 972 l 665 829 l 264 829 l 264 554 l 665 554 l 665 411 l 264 411 l 264 143 l 665 143 l 665 0 l 104 0 z "},"Ê":{"ha":756,"x_min":104,"x_max":665,"o":"m 386 1253 l 582 1088 l 503 1018 l 386 1124 l 269 1018 l 190 1088 l 386 1253 m 104 0 l 104 972 l 665 972 l 665 829 l 264 829 l 264 554 l 665 554 l 665 411 l 264 411 l 264 143 l 665 143 l 665 0 l 104 0 z "},"Ë":{"ha":756,"x_min":104,"x_max":665,"o":"m 301 1056 q 285 1040 301 1056 q 225 1025 269 1025 q 150 1056 181 1025 q 119 1131 119 1086 q 150 1206 119 1175 q 225 1238 181 1238 q 301 1206 269 1238 q 332 1131 332 1175 q 301 1056 332 1086 m 557 1025 q 483 1056 514 1025 q 451 1131 451 1086 q 482 1206 451 1175 q 557 1238 513 1238 q 633 1206 601 1238 q 664 1131 664 1175 q 633 1056 664 1086 q 557 1025 601 1025 m 104 0 l 104 972 l 665 972 l 665 829 l 264 829 l 264 554 l 665 554 l 665 411 l 264 411 l 264 143 l 665 143 l 665 0 l 104 0 z "},"Ì":{"ha":368,"x_min":42,"x_max":326,"o":"m 258 1015 l 42 1144 l 110 1246 l 326 1117 l 258 1015 m 104 0 l 104 972 l 264 972 l 264 0 l 104 0 z "},"Í":{"ha":368,"x_min":31,"x_max":339,"o":"m 99 1014 l 31 1111 l 269 1260 l 339 1163 l 99 1014 m 104 0 l 104 972 l 264 972 l 264 0 l 104 0 z "},"Î":{"ha":368,"x_min":22,"x_max":344,"o":"m 276 1025 l 183 1103 l 90 1025 l 22 1100 l 183 1231 l 344 1100 l 276 1025 m 104 0 l 104 972 l 264 972 l 264 0 l 104 0 z "},"Ï":{"ha":368,"x_min":-22,"x_max":392,"o":"m 144 1059 q 131 1045 144 1059 q 75 1032 117 1032 q 6 1059 33 1032 q -22 1129 -22 1086 q 6 1199 -22 1172 q 75 1226 33 1226 q 144 1199 117 1226 q 172 1129 172 1172 q 144 1059 172 1086 m 364 1059 q 350 1045 364 1059 q 294 1032 336 1032 q 225 1059 253 1032 q 197 1129 197 1086 q 225 1199 197 1172 q 294 1226 253 1226 q 364 1199 336 1226 q 392 1129 392 1172 q 364 1059 392 1086 m 104 0 l 104 972 l 264 972 l 264 0 l 104 0 z "},"Ð":{"ha":965,"x_min":-4,"x_max":924,"o":"m 433 972 q 794 830 664 972 q 924 486 924 688 q 794 142 924 285 q 433 0 664 0 l 104 0 l 104 419 l -4 419 l -4 554 l 104 554 l 104 972 l 433 972 m 419 143 q 673 243 586 143 q 760 486 760 343 q 673 729 760 629 q 419 829 586 829 l 264 829 l 264 554 l 433 554 l 433 419 l 264 419 l 264 143 l 419 143 z "},"Ñ":{"ha":914,"x_min":104,"x_max":810,"o":"m 571 1010 q 442 1051 514 1006 q 340 1097 369 1097 q 290 1085 310 1097 q 242 1038 269 1072 l 179 1097 q 329 1211 246 1211 q 453 1167 382 1211 q 560 1124 525 1124 q 674 1189 622 1124 l 733 1121 q 571 1010 675 1015 m 104 0 l 104 972 l 272 972 l 657 267 l 657 972 l 810 972 l 810 0 l 642 0 l 257 706 l 257 0 l 104 0 z "},"Ò":{"ha":1103,"x_min":49,"x_max":1054,"o":"m 660 1015 l 374 1144 l 426 1246 l 714 1118 l 660 1015 m 917 124 q 849 50 917 124 q 551 -24 781 -24 q 185 124 322 -24 q 49 486 49 271 q 185 849 49 701 q 551 996 322 996 q 917 849 781 996 q 1054 486 1054 701 q 917 124 1054 271 m 305 224 q 350 172 305 224 q 551 119 394 119 q 798 224 708 119 q 886 486 888 329 q 798 748 888 643 q 551 853 708 853 q 305 748 394 853 q 217 486 215 643 q 305 224 215 329 z "},"Ó":{"ha":1103,"x_min":49,"x_max":1054,"o":"m 442 1015 l 388 1118 l 675 1246 l 728 1144 l 442 1015 m 917 124 q 849 50 917 124 q 551 -24 781 -24 q 185 124 322 -24 q 49 486 49 271 q 185 849 49 701 q 551 996 322 996 q 917 849 781 996 q 1054 486 1054 701 q 917 124 1054 271 m 305 224 q 350 172 305 224 q 551 119 394 119 q 798 224 708 119 q 886 486 888 329 q 798 748 888 643 q 551 853 708 853 q 305 748 394 853 q 217 486 215 643 q 305 224 215 329 z "},"Ô":{"ha":1103,"x_min":49,"x_max":1054,"o":"m 546 1253 l 742 1088 l 663 1018 l 546 1124 l 429 1018 l 350 1088 l 546 1253 m 917 124 q 849 50 917 124 q 551 -24 781 -24 q 185 124 322 -24 q 49 486 49 271 q 185 849 49 701 q 551 996 322 996 q 917 849 781 996 q 1054 486 1054 701 q 917 124 1054 271 m 305 224 q 350 172 305 224 q 551 119 394 119 q 798 224 708 119 q 886 486 888 329 q 798 748 888 643 q 551 853 708 853 q 305 748 394 853 q 217 486 215 643 q 305 224 215 329 z "},"Õ":{"ha":1103,"x_min":49,"x_max":1054,"o":"m 665 1010 q 536 1051 608 1006 q 435 1097 464 1097 q 384 1085 404 1097 q 336 1038 364 1072 l 274 1097 q 424 1211 340 1211 q 548 1167 476 1211 q 654 1124 619 1124 q 768 1189 717 1124 l 828 1121 q 665 1010 769 1015 m 917 124 q 849 50 917 124 q 551 -24 781 -24 q 185 124 322 -24 q 49 486 49 271 q 185 849 49 701 q 551 996 322 996 q 917 849 781 996 q 1054 486 1054 701 q 917 124 1054 271 m 305 224 q 350 172 305 224 q 551 119 394 119 q 798 224 708 119 q 886 486 888 329 q 798 748 888 643 q 551 853 708 853 q 305 748 394 853 q 217 486 215 643 q 305 224 215 329 z "},"Ö":{"ha":1103,"x_min":49,"x_max":1054,"o":"m 385 1025 q 310 1056 342 1025 q 279 1131 279 1086 q 310 1206 279 1175 q 385 1238 340 1238 q 460 1206 429 1238 q 492 1131 492 1175 q 460 1056 492 1086 q 385 1025 429 1025 m 792 1056 q 777 1040 792 1056 q 717 1025 761 1025 q 642 1056 672 1025 q 611 1131 611 1086 q 642 1206 611 1175 q 717 1238 672 1238 q 792 1206 761 1238 q 824 1131 824 1175 q 792 1056 824 1086 m 917 124 q 849 50 917 124 q 551 -24 781 -24 q 185 124 322 -24 q 49 486 49 271 q 185 849 49 701 q 551 996 322 996 q 917 849 781 996 q 1054 486 1054 701 q 917 124 1054 271 m 305 224 q 350 172 305 224 q 551 119 394 119 q 798 224 708 119 q 886 486 888 329 q 798 748 888 643 q 551 853 708 853 q 305 748 394 853 q 217 486 215 643 q 305 224 215 329 z "},"×":{"ha":688,"x_min":69,"x_max":618,"o":"m 618 617 l 439 438 l 617 258 l 522 163 l 343 342 l 165 164 l 69 258 l 249 438 l 69 615 l 164 711 l 343 532 l 522 711 l 618 617 z "},"Ø":{"ha":1103,"x_min":49,"x_max":1054,"o":"m 811 932 q 990 749 926 867 q 1054 486 1054 631 q 917 124 1054 271 q 551 -24 781 -24 q 410 -7 475 -24 l 357 -129 l 251 -82 l 301 35 q 115 219 182 99 q 49 486 49 340 q 185 849 49 701 q 551 996 322 996 q 704 975 636 996 l 756 1094 l 860 1047 l 811 932 m 217 486 q 253 305 215 388 q 361 175 292 222 l 647 840 q 551 853 603 853 q 305 748 394 853 q 217 486 215 643 m 551 119 q 798 224 708 119 q 886 486 888 329 q 852 662 888 582 q 750 792 817 742 l 467 129 q 551 119 504 119 z "},"Ù":{"ha":889,"x_min":83,"x_max":806,"o":"m 553 1015 l 267 1144 l 319 1246 l 607 1118 l 553 1015 m 708 66 q 660 21 708 66 q 444 -24 611 -24 q 181 66 278 -24 q 83 322 83 156 l 83 972 l 243 972 l 243 332 q 297 174 243 229 q 444 119 351 119 q 592 174 538 119 q 646 332 646 229 l 646 972 l 806 972 l 806 322 q 708 66 806 156 z "},"Ú":{"ha":889,"x_min":83,"x_max":806,"o":"m 335 1015 l 281 1118 l 568 1246 l 621 1144 l 335 1015 m 708 66 q 660 21 708 66 q 444 -24 611 -24 q 181 66 278 -24 q 83 322 83 156 l 83 972 l 243 972 l 243 332 q 297 174 243 229 q 444 119 351 119 q 592 174 538 119 q 646 332 646 229 l 646 972 l 806 972 l 806 322 q 708 66 806 156 z "},"Û":{"ha":889,"x_min":83,"x_max":806,"o":"m 439 1253 l 635 1088 l 556 1018 l 439 1124 l 322 1018 l 243 1088 l 439 1253 m 708 66 q 660 21 708 66 q 444 -24 611 -24 q 181 66 278 -24 q 83 322 83 156 l 83 972 l 243 972 l 243 332 q 297 174 243 229 q 444 119 351 119 q 592 174 538 119 q 646 332 646 229 l 646 972 l 806 972 l 806 322 q 708 66 806 156 z "},"Ü":{"ha":889,"x_min":83,"x_max":806,"o":"m 353 1056 q 338 1040 353 1056 q 278 1025 322 1025 q 203 1056 233 1025 q 172 1131 172 1086 q 203 1206 172 1175 q 278 1238 233 1238 q 353 1206 322 1238 q 385 1131 385 1175 q 353 1056 385 1086 m 610 1025 q 535 1056 567 1025 q 504 1131 504 1086 q 535 1206 504 1175 q 610 1238 565 1238 q 685 1206 654 1238 q 717 1131 717 1175 q 685 1056 717 1086 q 610 1025 654 1025 m 708 66 q 660 21 708 66 q 444 -24 611 -24 q 181 66 278 -24 q 83 322 83 156 l 83 972 l 243 972 l 243 332 q 297 174 243 229 q 444 119 351 119 q 592 174 538 119 q 646 332 646 229 l 646 972 l 806 972 l 806 322 q 708 66 806 156 z "},"Ý":{"ha":779,"x_min":-21,"x_max":807,"o":"m 582 1144 l 296 1015 l 242 1118 l 529 1246 l 582 1144 m 632 972 l 807 972 l 325 0 l 150 0 l 343 390 l -21 972 l 164 972 l 425 554 l 632 972 z "},"Þ":{"ha":811,"x_min":104,"x_max":797,"o":"m 464 826 q 706 728 615 826 q 797 486 797 629 q 706 244 797 343 q 464 146 615 146 l 264 146 l 264 0 l 104 0 l 104 972 l 264 972 l 264 826 l 464 826 m 454 289 q 587 347 536 289 q 638 486 638 404 q 587 626 638 568 q 454 683 536 683 l 264 683 l 264 289 l 454 289 z "},"ß":{"ha":788,"x_min":97,"x_max":732,"o":"m 431 -17 q 303 0 356 -17 l 303 131 q 417 118 351 118 q 535 157 490 118 q 581 275 581 196 q 540 390 581 338 q 404 442 500 442 l 322 442 l 322 576 l 386 576 q 557 719 557 576 q 516 821 557 781 q 407 861 475 861 q 290 813 331 861 q 249 685 249 765 l 249 0 l 97 0 l 97 685 q 180 910 97 825 q 407 996 263 996 q 628 924 549 996 q 708 733 708 851 q 657 586 708 644 q 529 514 606 528 q 674 430 617 507 q 732 254 732 353 q 645 52 732 121 q 431 -17 558 -17 z "},"à":{"ha":822,"x_min":49,"x_max":725,"o":"m 550 697 l 158 850 l 207 963 l 599 814 l 550 697 m 367 -17 q 132 79 215 -17 q 49 324 49 175 q 136 567 49 471 q 371 664 224 664 q 490 636 436 664 q 574 560 544 608 l 574 647 l 725 647 l 725 0 l 574 0 l 574 88 q 487 12 546 40 q 367 -17 428 -17 m 389 118 q 531 176 482 118 q 581 324 581 235 q 531 471 581 413 q 389 529 482 529 q 251 472 301 529 q 200 324 200 414 q 251 176 200 233 q 389 118 301 118 z "},"á":{"ha":822,"x_min":49,"x_max":725,"o":"m 206 697 l 157 814 l 549 963 l 597 850 l 206 697 m 367 -17 q 132 79 215 -17 q 49 324 49 175 q 136 567 49 471 q 371 664 224 664 q 490 636 436 664 q 574 560 544 608 l 574 647 l 725 647 l 725 0 l 574 0 l 574 88 q 487 12 546 40 q 367 -17 428 -17 m 389 118 q 531 176 482 118 q 581 324 581 235 q 531 471 581 413 q 389 529 482 529 q 251 472 301 529 q 200 324 200 414 q 251 176 200 233 q 389 118 301 118 z "},"â":{"ha":822,"x_min":49,"x_max":725,"o":"m 392 983 l 642 779 l 561 690 l 392 836 l 224 692 l 142 779 l 392 983 m 367 -17 q 132 79 215 -17 q 49 324 49 175 q 136 567 49 471 q 371 664 224 664 q 490 636 436 664 q 574 560 544 608 l 574 647 l 725 647 l 725 0 l 574 0 l 574 88 q 487 12 546 40 q 367 -17 428 -17 m 389 118 q 531 176 482 118 q 581 324 581 235 q 531 471 581 413 q 389 529 482 529 q 251 472 301 529 q 200 324 200 414 q 251 176 200 233 q 389 118 301 118 z "},"ã":{"ha":822,"x_min":49,"x_max":725,"o":"m 494 724 q 391 763 454 724 q 299 801 328 801 q 204 749 256 801 l 150 831 q 289 925 206 925 q 392 886 329 925 q 485 847 454 847 q 579 900 531 847 l 633 818 q 494 724 578 724 m 367 -17 q 132 79 215 -17 q 49 324 49 175 q 136 567 49 471 q 371 664 224 664 q 490 636 436 664 q 574 560 544 608 l 574 647 l 725 647 l 725 0 l 574 0 l 574 88 q 487 12 546 40 q 367 -17 428 -17 m 389 118 q 531 176 482 118 q 581 324 581 235 q 531 471 581 413 q 389 529 482 529 q 251 472 301 529 q 200 324 200 414 q 251 176 200 233 q 389 118 301 118 z "},"ä":{"ha":822,"x_min":49,"x_max":725,"o":"m 326 769 q 310 754 326 769 q 250 739 294 739 q 175 769 206 739 q 144 844 144 800 q 175 920 144 889 q 250 951 206 951 q 326 920 294 951 q 357 844 357 889 q 326 769 357 800 m 532 739 q 458 769 489 739 q 426 844 426 800 q 457 920 426 889 q 532 951 488 951 q 608 920 576 951 q 639 844 639 889 q 608 769 639 800 q 532 739 576 739 m 367 -17 q 132 79 215 -17 q 49 324 49 175 q 136 567 49 471 q 371 664 224 664 q 490 636 436 664 q 574 560 544 608 l 574 647 l 725 647 l 725 0 l 574 0 l 574 88 q 487 12 546 40 q 367 -17 428 -17 m 389 118 q 531 176 482 118 q 581 324 581 235 q 531 471 581 413 q 389 529 482 529 q 251 472 301 529 q 200 324 200 414 q 251 176 200 233 q 389 118 301 118 z "},"å":{"ha":822,"x_min":49,"x_max":725,"o":"m 503 742 q 481 720 503 742 q 392 699 458 699 q 280 742 325 699 q 235 851 235 785 q 280 961 235 918 q 392 1004 325 1004 q 503 961 458 1004 q 549 851 549 918 q 503 742 549 785 m 339 794 q 349 783 339 794 q 392 772 360 772 q 444 794 424 772 q 465 851 465 817 q 444 908 465 886 q 392 931 424 931 q 339 908 360 931 q 318 851 318 886 q 339 794 318 817 m 367 -17 q 132 79 215 -17 q 49 324 49 175 q 136 567 49 471 q 371 664 224 664 q 490 636 436 664 q 574 560 544 608 l 574 647 l 725 647 l 725 0 l 574 0 l 574 88 q 487 12 546 40 q 367 -17 428 -17 m 389 118 q 531 176 482 118 q 581 324 581 235 q 531 471 581 413 q 389 529 482 529 q 251 472 301 529 q 200 324 200 414 q 251 176 200 233 q 389 118 301 118 z "},"æ":{"ha":1199,"x_min":56,"x_max":1150,"o":"m 1150 354 q 1146 271 1150 329 l 665 271 q 715 153 668 194 q 846 113 763 113 q 990 197 954 113 l 1143 197 q 1046 41 1129 101 q 846 -19 963 -19 q 589 103 678 -19 q 317 -17 500 -17 q 128 35 200 -17 q 56 175 56 88 q 133 336 56 283 q 231 374 174 365 q 408 383 288 383 l 526 383 l 526 440 q 492 514 526 485 q 381 543 458 543 q 231 438 238 543 l 79 438 q 169 602 86 540 q 383 664 253 664 q 618 572 547 664 q 840 661 707 661 q 1065 576 979 661 q 1150 354 1150 490 m 665 385 l 1001 385 q 959 502 1001 460 q 840 544 917 544 q 715 500 764 544 q 665 385 667 456 m 526 249 l 526 269 l 526 271 l 358 271 q 208 188 208 271 q 342 103 208 103 q 470 138 414 103 q 526 249 526 174 z "},"ç":{"ha":726,"x_min":49,"x_max":678,"o":"m 371 118 q 526 224 500 118 l 678 224 q 597 58 668 122 q 407 -15 525 -6 l 407 -82 q 464 -67 425 -67 q 539 -95 508 -67 q 569 -176 569 -124 q 536 -265 569 -231 q 440 -300 503 -300 q 354 -274 388 -300 q 315 -197 321 -247 l 392 -197 q 407 -226 393 -215 q 439 -236 421 -236 q 489 -178 489 -236 q 440 -122 489 -122 q 396 -144 411 -122 l 328 -144 l 328 -14 q 123 92 197 0 q 49 324 49 183 q 135 570 49 476 q 371 664 222 664 q 585 597 504 664 q 678 417 667 529 l 526 417 q 371 529 501 529 q 245 476 290 529 q 200 324 200 422 q 245 172 200 225 q 371 118 290 118 z "},"è":{"ha":732,"x_min":49,"x_max":683,"o":"m 581 814 l 532 697 l 140 850 l 189 963 l 581 814 m 683 357 q 679 274 683 332 l 199 274 q 249 156 201 197 q 379 115 296 115 q 524 189 486 115 l 676 189 q 578 41 661 99 q 379 -17 496 -17 q 138 75 226 -17 q 49 324 49 167 q 137 572 49 479 q 374 664 225 664 q 598 578 513 664 q 683 357 683 493 m 199 389 l 535 389 q 491 504 533 464 q 371 544 449 544 q 246 501 292 544 q 199 389 200 458 z "},"é":{"ha":732,"x_min":49,"x_max":683,"o":"m 579 850 l 188 697 l 139 814 l 531 963 l 579 850 m 683 357 q 679 274 683 332 l 199 274 q 249 156 201 197 q 379 115 296 115 q 524 189 486 115 l 676 189 q 578 41 661 99 q 379 -17 496 -17 q 138 75 226 -17 q 49 324 49 167 q 137 572 49 479 q 374 664 225 664 q 598 578 513 664 q 683 357 683 493 m 199 389 l 535 389 q 491 504 533 464 q 371 544 449 544 q 246 501 292 544 q 199 389 200 458 z "},"ê":{"ha":732,"x_min":49,"x_max":683,"o":"m 374 836 l 206 692 l 124 779 l 374 983 l 624 779 l 543 690 l 374 836 m 683 357 q 679 274 683 332 l 199 274 q 249 156 201 197 q 379 115 296 115 q 524 189 486 115 l 676 189 q 578 41 661 99 q 379 -17 496 -17 q 138 75 226 -17 q 49 324 49 167 q 137 572 49 479 q 374 664 225 664 q 598 578 513 664 q 683 357 683 493 m 199 389 l 535 389 q 491 504 533 464 q 371 544 449 544 q 246 501 292 544 q 199 389 200 458 z "},"ë":{"ha":732,"x_min":49,"x_max":683,"o":"m 232 739 q 158 769 189 739 q 126 844 126 800 q 157 920 126 889 q 232 951 188 951 q 308 920 276 951 q 339 844 339 889 q 308 769 339 800 q 232 739 276 739 m 590 769 q 574 754 590 769 q 514 739 558 739 q 439 769 469 739 q 408 844 408 800 q 439 920 408 889 q 514 951 469 951 q 590 920 558 951 q 621 844 621 889 q 590 769 621 800 m 683 357 q 679 274 683 332 l 199 274 q 249 156 201 197 q 379 115 296 115 q 524 189 486 115 l 676 189 q 578 41 661 99 q 379 -17 496 -17 q 138 75 226 -17 q 49 324 49 167 q 137 572 49 479 q 374 664 225 664 q 598 578 513 664 q 683 357 683 493 m 199 389 l 535 389 q 491 504 533 464 q 371 544 449 544 q 246 501 292 544 q 199 389 200 458 z "},"ì":{"ha":346,"x_min":33,"x_max":313,"o":"m 243 711 l 33 860 l 103 963 l 313 814 l 243 711 m 97 0 l 97 647 l 249 647 l 249 0 l 97 0 z "},"í":{"ha":346,"x_min":33,"x_max":313,"o":"m 103 711 l 33 814 l 243 963 l 313 860 l 103 711 m 97 0 l 97 647 l 249 647 l 249 0 l 97 0 z "},"î":{"ha":346,"x_min":-7,"x_max":354,"o":"m 75 713 l -7 800 l 174 958 l 354 800 l 274 711 l 174 804 l 75 713 m 97 0 l 97 647 l 249 647 l 249 0 l 97 0 z "},"ï":{"ha":346,"x_min":-12,"x_max":360,"o":"m 138 778 q 124 766 138 778 q 75 753 111 753 q 13 778 39 753 q -12 840 -12 804 q 13 903 -12 878 q 75 929 39 929 q 138 903 111 929 q 164 840 164 878 q 138 778 164 804 m 271 753 q 210 779 236 753 q 183 840 183 806 q 209 903 183 878 q 271 929 235 929 q 334 903 308 929 q 360 840 360 878 q 334 778 360 804 q 271 753 308 753 m 97 0 l 97 647 l 249 647 l 249 0 l 97 0 z "},"ð":{"ha":781,"x_min":49,"x_max":732,"o":"m 663 540 q 732 324 732 449 q 640 80 732 176 q 390 -17 547 -17 q 141 80 233 -17 q 49 324 49 176 q 140 567 49 471 q 389 664 232 663 l 321 757 l 211 697 l 168 776 l 269 831 l 167 972 l 357 972 l 406 903 l 508 958 l 551 882 l 457 831 l 663 540 m 251 175 q 276 147 251 175 q 390 118 301 118 q 530 175 479 118 q 581 324 581 232 q 530 472 581 415 q 390 529 479 529 q 251 472 301 529 q 200 324 200 415 q 251 175 200 232 z "},"ñ":{"ha":786,"x_min":97,"x_max":696,"o":"m 496 724 q 392 763 456 724 q 300 801 329 801 q 206 749 257 801 l 151 831 q 290 925 207 925 q 393 886 331 925 q 486 847 456 847 q 581 900 532 847 l 635 818 q 496 724 579 724 m 97 0 l 97 647 l 249 647 l 249 557 q 460 664 311 664 q 696 407 696 664 l 696 0 l 544 0 l 544 338 q 513 489 544 443 q 403 535 481 535 q 289 488 329 535 q 249 356 249 442 l 249 0 l 97 0 z "},"ò":{"ha":781,"x_min":49,"x_max":732,"o":"m 549 697 l 157 850 l 206 963 l 597 814 l 549 697 m 640 80 q 593 32 640 80 q 390 -17 547 -17 q 141 80 233 -17 q 49 324 49 176 q 141 567 49 471 q 390 664 233 664 q 640 567 547 664 q 732 324 732 471 q 640 80 732 176 m 251 175 q 276 147 251 175 q 390 118 301 118 q 530 175 479 118 q 581 324 581 232 q 530 472 581 415 q 390 529 479 529 q 251 472 301 529 q 200 324 200 415 q 251 175 200 232 z "},"ó":{"ha":781,"x_min":49,"x_max":732,"o":"m 204 697 l 156 814 l 547 963 l 596 850 l 204 697 m 640 80 q 593 32 640 80 q 390 -17 547 -17 q 141 80 233 -17 q 49 324 49 176 q 141 567 49 471 q 390 664 233 664 q 640 567 547 664 q 732 324 732 471 q 640 80 732 176 m 251 175 q 276 147 251 175 q 390 118 301 118 q 530 175 479 118 q 581 324 581 232 q 530 472 581 415 q 390 529 479 529 q 251 472 301 529 q 200 324 200 415 q 251 175 200 232 z "},"ô":{"ha":781,"x_min":49,"x_max":732,"o":"m 390 983 l 640 779 l 560 690 l 390 836 l 222 692 l 140 779 l 390 983 m 640 80 q 593 32 640 80 q 390 -17 547 -17 q 141 80 233 -17 q 49 324 49 176 q 141 567 49 471 q 390 664 233 664 q 640 567 547 664 q 732 324 732 471 q 640 80 732 176 m 251 175 q 276 147 251 175 q 390 118 301 118 q 530 175 479 118 q 581 324 581 232 q 530 472 581 415 q 390 529 479 529 q 251 472 301 529 q 200 324 200 415 q 251 175 200 232 z "},"õ":{"ha":781,"x_min":49,"x_max":732,"o":"m 493 724 q 390 763 453 724 q 297 801 326 801 q 203 749 254 801 l 149 831 q 288 925 204 925 q 390 886 328 925 q 483 847 453 847 q 578 900 529 847 l 632 818 q 493 724 576 724 m 640 80 q 593 32 640 80 q 390 -17 547 -17 q 141 80 233 -17 q 49 324 49 176 q 141 567 49 471 q 390 664 233 664 q 640 567 547 664 q 732 324 732 471 q 640 80 732 176 m 251 175 q 276 147 251 175 q 390 118 301 118 q 530 175 479 118 q 581 324 581 232 q 530 472 581 415 q 390 529 479 529 q 251 472 301 529 q 200 324 200 415 q 251 175 200 232 z "},"ö":{"ha":781,"x_min":49,"x_max":732,"o":"m 249 739 q 174 769 206 739 q 143 844 143 800 q 174 920 143 889 q 249 951 204 951 q 324 920 293 951 q 356 844 356 889 q 324 769 356 800 q 249 739 293 739 m 606 769 q 591 754 606 769 q 531 739 575 739 q 456 769 486 739 q 425 844 425 800 q 456 920 425 889 q 531 951 486 951 q 606 920 575 951 q 638 844 638 889 q 606 769 638 800 m 640 80 q 593 32 640 80 q 390 -17 547 -17 q 141 80 233 -17 q 49 324 49 176 q 141 567 49 471 q 390 664 233 664 q 640 567 547 664 q 732 324 732 471 q 640 80 732 176 m 251 175 q 276 147 251 175 q 390 118 301 118 q 530 175 479 118 q 581 324 581 232 q 530 472 581 415 q 390 529 479 529 q 251 472 301 529 q 200 324 200 415 q 251 175 200 232 z "},"÷":{"ha":700,"x_min":69,"x_max":631,"o":"m 350 554 q 272 587 304 554 q 239 665 239 619 q 272 745 239 713 q 350 778 304 778 q 430 745 397 778 q 463 665 463 713 q 430 587 463 619 q 350 554 397 554 m 69 364 l 69 499 l 631 499 l 631 364 l 69 364 m 350 97 q 272 130 304 97 q 239 208 239 163 q 272 288 239 256 q 350 321 304 321 q 430 288 397 321 q 463 208 463 256 q 430 130 463 163 q 350 97 397 97 z "},"ø":{"ha":781,"x_min":49,"x_max":732,"o":"m 575 617 q 691 497 650 574 q 732 324 732 419 q 640 80 732 176 q 390 -17 547 -17 q 304 -8 346 -17 l 258 -115 l 174 -76 l 217 24 q 93 146 138 67 q 49 324 49 225 q 141 567 49 471 q 390 664 233 664 q 489 653 440 664 l 538 764 l 622 725 l 575 617 m 200 324 q 274 154 200 208 l 435 525 q 390 529 414 529 q 251 472 301 529 q 200 324 200 415 m 390 118 q 530 175 479 118 q 581 324 581 232 q 518 485 581 426 l 360 119 q 390 118 369 118 z "},"ù":{"ha":779,"x_min":90,"x_max":682,"o":"m 549 697 l 157 850 l 206 963 l 597 814 l 549 697 m 331 -17 q 156 49 221 -17 q 90 240 90 114 l 90 647 l 242 647 l 242 278 q 272 154 242 196 q 374 113 303 113 q 493 159 456 113 q 531 282 531 206 l 531 647 l 682 647 l 682 0 l 531 0 l 531 90 q 331 -17 471 -17 z "},"ú":{"ha":779,"x_min":90,"x_max":682,"o":"m 204 697 l 156 814 l 547 963 l 596 850 l 204 697 m 331 -17 q 156 49 221 -17 q 90 240 90 114 l 90 647 l 242 647 l 242 278 q 272 154 242 196 q 374 113 303 113 q 493 159 456 113 q 531 282 531 206 l 531 647 l 682 647 l 682 0 l 531 0 l 531 90 q 331 -17 471 -17 z "},"û":{"ha":779,"x_min":90,"x_max":682,"o":"m 390 983 l 640 779 l 560 690 l 390 836 l 222 692 l 140 779 l 390 983 m 331 -17 q 156 49 221 -17 q 90 240 90 114 l 90 647 l 242 647 l 242 278 q 272 154 242 196 q 374 113 303 113 q 493 159 456 113 q 531 282 531 206 l 531 647 l 682 647 l 682 0 l 531 0 l 531 90 q 331 -17 471 -17 z "},"ü":{"ha":779,"x_min":90,"x_max":682,"o":"m 249 739 q 174 769 206 739 q 143 844 143 800 q 174 920 143 889 q 249 951 204 951 q 324 920 293 951 q 356 844 356 889 q 324 769 356 800 q 249 739 293 739 m 606 769 q 591 754 606 769 q 531 739 575 739 q 456 769 486 739 q 425 844 425 800 q 456 920 425 889 q 531 951 486 951 q 606 920 575 951 q 638 844 638 889 q 606 769 638 800 m 331 -17 q 156 49 221 -17 q 90 240 90 114 l 90 647 l 242 647 l 242 278 q 272 154 242 196 q 374 113 303 113 q 493 159 456 113 q 531 282 531 206 l 531 647 l 682 647 l 682 0 l 531 0 l 531 90 q 331 -17 471 -17 z "},"ý":{"ha":786,"x_min":90,"x_max":689,"o":"m 194 697 l 146 814 l 538 963 l 586 850 l 194 697 m 538 647 l 689 647 l 689 -3 q 604 -233 689 -151 q 385 -308 522 -308 q 163 -242 242 -308 q 90 -74 93 -181 l 243 -74 q 280 -156 249 -129 q 382 -183 311 -183 q 496 -137 454 -183 q 538 8 538 -90 l 538 90 q 329 -17 475 -17 q 152 58 214 -17 q 90 253 90 132 l 90 647 l 242 647 l 242 285 q 382 117 242 117 q 498 171 458 117 q 538 313 538 225 l 538 647 z "},"þ":{"ha":822,"x_min":97,"x_max":774,"o":"m 465 664 q 689 570 604 664 q 774 324 774 476 q 685 78 774 174 q 456 -17 596 -17 q 335 12 392 -17 q 249 88 278 40 l 249 -292 l 97 -292 l 97 972 l 249 972 l 249 560 q 338 635 278 607 q 465 664 397 664 m 433 118 q 569 176 517 118 q 622 324 622 233 q 569 472 622 414 q 433 529 517 529 q 294 472 347 529 q 242 324 242 415 q 294 175 242 232 q 433 118 347 118 z "},"ÿ":{"ha":786,"x_min":90,"x_max":689,"o":"m 315 769 q 299 754 315 769 q 239 739 283 739 q 164 769 194 739 q 133 844 133 800 q 164 920 133 889 q 239 951 194 951 q 315 920 283 951 q 346 844 346 889 q 315 769 346 800 m 521 739 q 447 769 478 739 q 415 844 415 800 q 446 920 415 889 q 521 951 476 951 q 597 920 565 951 q 628 844 628 889 q 597 769 628 800 q 521 739 565 739 m 538 647 l 689 647 l 689 -3 q 604 -233 689 -151 q 385 -308 522 -308 q 163 -242 242 -308 q 90 -74 93 -181 l 243 -74 q 280 -156 249 -129 q 382 -183 311 -183 q 496 -137 454 -183 q 538 8 538 -90 l 538 90 q 329 -17 475 -17 q 152 58 214 -17 q 90 253 90 132 l 90 647 l 242 647 l 242 285 q 382 117 242 117 q 498 171 458 117 q 538 313 538 225 l 538 647 z "},"Ā":{"ha":838,"x_min":21,"x_max":817,"o":"m 690 1181 l 690 1061 l 149 1061 l 149 1181 l 690 1181 m 643 0 l 606 124 l 232 124 l 194 0 l 21 0 l 349 972 l 489 972 l 817 0 l 643 0 m 274 267 l 563 267 l 418 749 l 274 267 z "},"ā":{"ha":822,"x_min":49,"x_max":725,"o":"m 171 772 l 171 892 l 613 892 l 613 772 l 171 772 m 367 -17 q 132 79 215 -17 q 49 324 49 175 q 136 567 49 471 q 371 664 224 664 q 490 636 436 664 q 574 560 544 608 l 574 647 l 725 647 l 725 0 l 574 0 l 574 88 q 487 12 546 40 q 367 -17 428 -17 m 389 118 q 531 176 482 118 q 581 324 581 235 q 531 471 581 413 q 389 529 482 529 q 251 472 301 529 q 200 324 200 414 q 251 176 200 233 q 389 118 301 118 z "},"Ă":{"ha":838,"x_min":21,"x_max":817,"o":"m 585 1074 q 551 1045 585 1074 q 419 1017 518 1017 q 254 1074 321 1017 q 181 1214 188 1131 l 304 1214 q 419 1124 317 1124 q 535 1214 522 1124 l 658 1214 q 585 1074 651 1131 m 643 0 l 606 124 l 232 124 l 194 0 l 21 0 l 349 972 l 489 972 l 817 0 l 643 0 m 274 267 l 563 267 l 418 749 l 274 267 z "},"ă":{"ha":822,"x_min":49,"x_max":725,"o":"m 571 762 q 537 733 571 762 q 392 704 503 704 q 213 762 281 704 q 139 921 144 819 l 267 921 q 303 841 269 868 q 392 814 336 814 q 481 841 447 814 q 517 921 514 868 l 644 921 q 571 762 639 819 m 367 -17 q 132 79 215 -17 q 49 324 49 175 q 136 567 49 471 q 371 664 224 664 q 490 636 436 664 q 574 560 544 608 l 574 647 l 725 647 l 725 0 l 574 0 l 574 88 q 487 12 546 40 q 367 -17 428 -17 m 389 118 q 531 176 482 118 q 581 324 581 235 q 531 471 581 413 q 389 529 482 529 q 251 472 301 529 q 200 324 200 414 q 251 176 200 233 q 389 118 301 118 z "},"Ą":{"ha":838,"x_min":21,"x_max":842,"o":"m 771 -182 q 842 -165 807 -182 l 842 -274 q 729 -294 788 -294 q 603 -253 651 -294 q 556 -153 556 -212 q 665 0 556 -64 l 643 0 l 606 124 l 232 124 l 194 0 l 21 0 l 349 972 l 489 972 l 817 0 q 722 -40 751 -10 q 693 -107 693 -69 q 715 -160 693 -139 q 771 -182 738 -182 m 274 267 l 563 267 l 418 749 l 274 267 z "},"ą":{"ha":822,"x_min":49,"x_max":761,"o":"m 690 -182 q 761 -165 726 -182 l 761 -274 q 649 -294 707 -294 q 523 -253 571 -294 q 475 -153 475 -212 q 585 0 475 -64 l 574 0 l 574 88 q 487 12 546 40 q 367 -17 428 -17 q 132 79 215 -17 q 49 324 49 175 q 136 567 49 471 q 371 664 224 664 q 490 636 436 664 q 574 560 544 608 l 574 647 l 725 647 l 725 0 l 736 0 q 642 -40 671 -10 q 613 -107 613 -69 q 635 -160 613 -139 q 690 -182 657 -182 m 389 118 q 531 176 482 118 q 581 324 581 235 q 531 471 581 413 q 389 529 482 529 q 251 472 301 529 q 200 324 200 414 q 251 176 200 233 q 389 118 301 118 z "},"Ć":{"ha":1068,"x_min":49,"x_max":1025,"o":"m 446 1015 l 392 1118 l 679 1246 l 732 1144 l 446 1015 m 554 -24 q 185 118 321 -24 q 49 486 49 260 q 185 854 49 713 q 554 996 321 996 q 876 897 750 996 q 1025 639 1003 797 l 850 639 q 751 796 826 739 q 556 853 675 853 q 306 753 396 853 q 217 486 217 654 q 306 219 217 318 q 556 119 396 119 q 751 176 675 119 q 850 333 826 233 l 1025 333 q 876 76 1003 175 q 554 -24 750 -24 z "},"ć":{"ha":726,"x_min":49,"x_max":678,"o":"m 182 697 l 133 814 l 525 963 l 574 850 l 182 697 m 371 -17 q 135 77 222 -17 q 49 324 49 171 q 135 570 49 476 q 371 664 222 664 q 585 597 504 664 q 678 417 667 529 l 526 417 q 371 529 501 529 q 245 476 290 529 q 200 324 200 422 q 245 172 200 225 q 371 118 290 118 q 526 224 500 118 l 678 224 q 585 49 667 114 q 371 -17 504 -17 z "},"Ĉ":{"ha":1068,"x_min":49,"x_max":1025,"o":"m 550 1253 l 746 1088 l 667 1018 l 550 1124 l 433 1018 l 354 1088 l 550 1253 m 554 -24 q 185 118 321 -24 q 49 486 49 260 q 185 854 49 713 q 554 996 321 996 q 876 897 750 996 q 1025 639 1003 797 l 850 639 q 751 796 826 739 q 556 853 675 853 q 306 753 396 853 q 217 486 217 654 q 306 219 217 318 q 556 119 396 119 q 751 176 675 119 q 850 333 826 233 l 1025 333 q 876 76 1003 175 q 554 -24 750 -24 z "},"ĉ":{"ha":726,"x_min":49,"x_max":678,"o":"m 368 983 l 618 779 l 538 690 l 368 836 l 200 692 l 118 779 l 368 983 m 371 -17 q 135 77 222 -17 q 49 324 49 171 q 135 570 49 476 q 371 664 222 664 q 585 597 504 664 q 678 417 667 529 l 526 417 q 371 529 501 529 q 245 476 290 529 q 200 324 200 422 q 245 172 200 225 q 371 118 290 118 q 526 224 500 118 l 678 224 q 585 49 667 114 q 371 -17 504 -17 z "},"Ċ":{"ha":1068,"x_min":49,"x_max":1025,"o":"m 633 1050 q 618 1035 633 1050 q 556 1019 603 1019 q 478 1050 508 1019 q 449 1126 449 1081 q 478 1203 449 1172 q 556 1233 508 1233 q 633 1203 603 1233 q 663 1126 663 1172 q 633 1050 663 1081 m 554 -24 q 185 118 321 -24 q 49 486 49 260 q 185 854 49 713 q 554 996 321 996 q 876 897 750 996 q 1025 639 1003 797 l 850 639 q 751 796 826 739 q 556 853 675 853 q 306 753 396 853 q 217 486 217 654 q 306 219 217 318 q 556 119 396 119 q 751 176 675 119 q 850 333 826 233 l 1025 333 q 876 76 1003 175 q 554 -24 750 -24 z "},"ċ":{"ha":726,"x_min":49,"x_max":678,"o":"m 449 773 q 433 757 449 773 q 368 740 417 740 q 288 773 319 740 q 256 853 256 806 q 288 933 256 900 q 368 965 319 965 q 449 933 417 965 q 481 853 481 900 q 449 773 481 806 m 371 -17 q 135 77 222 -17 q 49 324 49 171 q 135 570 49 476 q 371 664 222 664 q 585 597 504 664 q 678 417 667 529 l 526 417 q 371 529 501 529 q 245 476 290 529 q 200 324 200 422 q 245 172 200 225 q 371 118 290 118 q 526 224 500 118 l 678 224 q 585 49 667 114 q 371 -17 504 -17 z "},"Č":{"ha":1068,"x_min":49,"x_max":1025,"o":"m 556 1019 l 360 1185 l 439 1254 l 556 1149 l 672 1254 l 751 1185 l 556 1019 m 554 -24 q 185 118 321 -24 q 49 486 49 260 q 185 854 49 713 q 554 996 321 996 q 876 897 750 996 q 1025 639 1003 797 l 850 639 q 751 796 826 739 q 556 853 675 853 q 306 753 396 853 q 217 486 217 654 q 306 219 217 318 q 556 119 396 119 q 751 176 675 119 q 850 333 826 233 l 1025 333 q 876 76 1003 175 q 554 -24 750 -24 z "},"č":{"ha":726,"x_min":49,"x_max":678,"o":"m 368 689 l 118 893 l 200 981 l 368 836 l 538 982 l 618 893 l 368 689 m 371 -17 q 135 77 222 -17 q 49 324 49 171 q 135 570 49 476 q 371 664 222 664 q 585 597 504 664 q 678 417 667 529 l 526 417 q 371 529 501 529 q 245 476 290 529 q 200 324 200 422 q 245 172 200 225 q 371 118 290 118 q 526 224 500 118 l 678 224 q 585 49 667 114 q 371 -17 504 -17 z "},"Ď":{"ha":965,"x_min":104,"x_max":924,"o":"m 449 1019 l 253 1185 l 332 1254 l 449 1149 l 565 1254 l 644 1185 l 449 1019 m 104 0 l 104 972 l 433 972 q 794 830 664 972 q 924 486 924 688 q 794 142 924 285 q 433 0 664 0 l 104 0 m 264 143 l 419 143 q 673 243 586 143 q 760 486 760 343 q 673 729 760 629 q 419 829 586 829 l 264 829 l 264 143 z "},"ď":{"ha":1019,"x_min":49,"x_max":1013,"o":"m 894 996 q 980 959 947 996 q 1013 853 1013 922 q 970 726 1013 772 q 853 679 928 679 q 824 681 833 679 l 824 746 q 850 744 833 744 q 919 768 896 744 q 936 829 936 789 q 878 807 918 807 q 818 833 842 807 q 794 900 794 860 q 822 969 794 943 q 894 996 850 996 m 574 972 l 725 972 l 725 0 l 574 0 l 574 88 q 487 12 546 40 q 367 -17 428 -17 q 132 79 215 -17 q 49 324 49 175 q 136 567 49 471 q 371 664 224 664 q 490 636 436 664 q 574 560 544 608 l 574 972 m 389 118 q 531 176 482 118 q 581 324 581 235 q 531 471 581 413 q 389 529 482 529 q 251 472 301 529 q 200 324 200 414 q 251 176 200 233 q 389 118 301 118 z "},"Đ":{"ha":965,"x_min":-4,"x_max":924,"o":"m 433 972 q 794 830 664 972 q 924 486 924 688 q 794 142 924 285 q 433 0 664 0 l 104 0 l 104 419 l -4 419 l -4 554 l 104 554 l 104 972 l 433 972 m 419 143 q 673 243 586 143 q 760 486 760 343 q 673 729 760 629 q 419 829 586 829 l 264 829 l 264 554 l 433 554 l 433 419 l 264 419 l 264 143 l 419 143 z "},"đ":{"ha":829,"x_min":49,"x_max":792,"o":"m 792 836 l 792 736 l 725 736 l 725 0 l 574 0 l 574 88 q 487 12 546 40 q 367 -17 428 -17 q 132 79 215 -17 q 49 324 49 175 q 136 567 49 471 q 371 664 224 664 q 490 636 436 664 q 574 560 544 608 l 574 736 l 385 736 l 385 836 l 574 836 l 574 972 l 725 972 l 725 836 l 792 836 m 389 118 q 531 176 482 118 q 581 324 581 235 q 531 471 581 413 q 389 529 482 529 q 251 472 301 529 q 200 324 200 414 q 251 176 200 233 q 389 118 301 118 z "},"Ē":{"ha":756,"x_min":104,"x_max":665,"o":"m 121 1061 l 121 1181 l 663 1181 l 663 1061 l 121 1061 m 104 0 l 104 972 l 665 972 l 665 829 l 264 829 l 264 554 l 665 554 l 665 411 l 264 411 l 264 143 l 665 143 l 665 0 l 104 0 z "},"ē":{"ha":732,"x_min":49,"x_max":683,"o":"m 594 892 l 594 772 l 153 772 l 153 892 l 594 892 m 683 357 q 679 274 683 332 l 199 274 q 249 156 201 197 q 379 115 296 115 q 524 189 486 115 l 676 189 q 578 41 661 99 q 379 -17 496 -17 q 138 75 226 -17 q 49 324 49 167 q 137 572 49 479 q 374 664 225 664 q 598 578 513 664 q 683 357 683 493 m 199 389 l 535 389 q 491 504 533 464 q 371 544 449 544 q 246 501 292 544 q 199 389 200 458 z "},"Ĕ":{"ha":756,"x_min":104,"x_max":665,"o":"m 557 1074 q 524 1045 557 1074 q 392 1017 490 1017 q 226 1074 293 1017 q 153 1214 160 1131 l 276 1214 q 392 1124 289 1124 q 507 1214 494 1124 l 631 1214 q 557 1074 624 1131 m 104 0 l 104 972 l 665 972 l 665 829 l 264 829 l 264 554 l 665 554 l 665 411 l 264 411 l 264 143 l 665 143 l 665 0 l 104 0 z "},"ĕ":{"ha":732,"x_min":49,"x_max":683,"o":"m 553 762 q 519 733 553 762 q 374 704 485 704 q 194 762 263 704 q 121 921 126 819 l 249 921 q 285 841 251 868 q 374 814 318 814 q 463 841 429 814 q 499 921 496 868 l 626 921 q 553 762 621 819 m 683 357 q 679 274 683 332 l 199 274 q 249 156 201 197 q 379 115 296 115 q 524 189 486 115 l 676 189 q 578 41 661 99 q 379 -17 496 -17 q 138 75 226 -17 q 49 324 49 167 q 137 572 49 479 q 374 664 225 664 q 598 578 513 664 q 683 357 683 493 m 199 389 l 535 389 q 491 504 533 464 q 371 544 449 544 q 246 501 292 544 q 199 389 200 458 z "},"Ė":{"ha":756,"x_min":104,"x_max":665,"o":"m 469 1050 q 454 1035 469 1050 q 392 1019 439 1019 q 315 1050 344 1019 q 285 1126 285 1081 q 315 1203 285 1172 q 392 1233 344 1233 q 469 1203 439 1233 q 499 1126 499 1172 q 469 1050 499 1081 m 104 0 l 104 972 l 665 972 l 665 829 l 264 829 l 264 554 l 665 554 l 665 411 l 264 411 l 264 143 l 665 143 l 665 0 l 104 0 z "},"ė":{"ha":732,"x_min":49,"x_max":683,"o":"m 454 773 q 438 757 454 773 q 374 740 422 740 q 293 773 325 740 q 261 853 261 806 q 293 933 261 900 q 374 965 325 965 q 454 933 422 965 q 486 853 486 900 q 454 773 486 806 m 683 357 q 679 274 683 332 l 199 274 q 249 156 201 197 q 379 115 296 115 q 524 189 486 115 l 676 189 q 578 41 661 99 q 379 -17 496 -17 q 138 75 226 -17 q 49 324 49 167 q 137 572 49 479 q 374 664 225 664 q 598 578 513 664 q 683 357 683 493 m 199 389 l 535 389 q 491 504 533 464 q 371 544 449 544 q 246 501 292 544 q 199 389 200 458 z "},"Ę":{"ha":756,"x_min":104,"x_max":690,"o":"m 619 -182 q 690 -165 656 -182 l 690 -274 q 578 -294 636 -294 q 452 -253 500 -294 q 404 -153 404 -212 q 514 0 404 -64 l 104 0 l 104 972 l 665 972 l 665 829 l 264 829 l 264 554 l 665 554 l 665 411 l 264 411 l 264 143 l 665 143 l 665 0 q 571 -40 600 -10 q 542 -107 542 -69 q 564 -160 542 -139 q 619 -182 586 -182 z "},"ę":{"ha":732,"x_min":49,"x_max":683,"o":"m 683 357 q 679 274 683 332 l 199 274 q 249 156 201 197 q 379 115 296 115 q 524 189 486 115 l 676 189 q 601 58 664 113 q 444 -11 538 4 q 368 -107 368 -39 q 390 -160 368 -139 q 446 -182 413 -182 q 517 -165 482 -182 l 517 -274 q 404 -294 463 -294 q 278 -253 326 -294 q 231 -153 231 -212 q 319 -12 231 -72 q 121 93 193 4 q 49 324 49 182 q 137 572 49 479 q 374 664 225 664 q 598 578 513 664 q 683 357 683 493 m 199 389 l 535 389 q 491 504 533 464 q 371 544 449 544 q 246 501 292 544 q 199 389 200 458 z "},"Ě":{"ha":756,"x_min":104,"x_max":665,"o":"m 392 1019 l 196 1185 l 275 1254 l 392 1149 l 508 1254 l 588 1185 l 392 1019 m 104 0 l 104 972 l 665 972 l 665 829 l 264 829 l 264 554 l 665 554 l 665 411 l 264 411 l 264 143 l 665 143 l 665 0 l 104 0 z "},"ě":{"ha":732,"x_min":49,"x_max":683,"o":"m 624 893 l 374 689 l 124 893 l 206 981 l 374 836 l 543 982 l 624 893 m 683 357 q 679 274 683 332 l 199 274 q 249 156 201 197 q 379 115 296 115 q 524 189 486 115 l 676 189 q 578 41 661 99 q 379 -17 496 -17 q 138 75 226 -17 q 49 324 49 167 q 137 572 49 479 q 374 664 225 664 q 598 578 513 664 q 683 357 683 493 m 199 389 l 535 389 q 491 504 533 464 q 371 544 449 544 q 246 501 292 544 q 199 389 200 458 z "},"Ĝ":{"ha":1157,"x_min":47,"x_max":1129,"o":"m 560 1124 l 443 1018 l 364 1088 l 560 1253 l 756 1088 l 676 1018 l 560 1124 m 1129 488 l 1129 344 l 1022 344 q 862 74 985 172 q 549 -24 739 -24 q 185 119 322 -24 q 49 479 47 261 q 185 846 50 696 q 563 996 321 996 q 855 906 738 996 q 985 681 972 815 l 810 681 q 728 805 793 757 q 563 853 663 853 q 304 747 393 853 q 217 479 215 640 q 306 222 215 325 q 549 119 397 119 q 854 344 797 119 l 667 344 l 667 488 l 1129 488 z "},"ĝ":{"ha":822,"x_min":49,"x_max":725,"o":"m 400 836 l 232 692 l 150 779 l 400 983 l 650 779 l 569 690 l 400 836 m 574 647 l 725 647 l 725 28 q 608 -251 725 -167 q 386 -308 532 -308 q 158 -250 244 -308 q 56 -74 60 -183 l 214 -74 q 385 -183 235 -183 q 527 -137 481 -183 q 574 17 574 -90 l 574 88 q 487 12 546 40 q 367 -17 428 -17 q 134 80 219 -17 q 49 324 49 176 q 138 567 49 469 q 371 664 228 664 q 490 636 436 664 q 574 560 544 608 l 574 647 m 389 118 q 529 177 478 118 q 581 324 581 236 q 529 470 581 411 q 389 529 478 529 q 252 472 304 529 q 200 324 200 414 q 252 176 200 233 q 389 118 304 118 z "},"Ğ":{"ha":1157,"x_min":47,"x_max":1129,"o":"m 731 1074 q 697 1045 731 1074 q 565 1017 664 1017 q 400 1074 467 1017 q 326 1214 333 1131 l 450 1214 q 565 1124 463 1124 q 681 1214 668 1124 l 804 1214 q 731 1074 797 1131 m 1129 488 l 1129 344 l 1022 344 q 862 74 985 172 q 549 -24 739 -24 q 185 119 322 -24 q 49 479 47 261 q 185 846 50 696 q 563 996 321 996 q 855 906 738 996 q 985 681 972 815 l 810 681 q 728 805 793 757 q 563 853 663 853 q 304 747 393 853 q 217 479 215 640 q 306 222 215 325 q 549 119 397 119 q 854 344 797 119 l 667 344 l 667 488 l 1129 488 z "},"ğ":{"ha":822,"x_min":49,"x_max":725,"o":"m 579 762 q 545 733 579 762 q 400 704 511 704 q 221 762 289 704 q 147 921 153 819 l 275 921 q 311 841 278 868 q 400 814 344 814 q 489 841 456 814 q 525 921 522 868 l 653 921 q 579 762 647 819 m 574 647 l 725 647 l 725 28 q 608 -251 725 -167 q 386 -308 532 -308 q 158 -250 244 -308 q 56 -74 60 -183 l 214 -74 q 385 -183 235 -183 q 527 -137 481 -183 q 574 17 574 -90 l 574 88 q 487 12 546 40 q 367 -17 428 -17 q 134 80 219 -17 q 49 324 49 176 q 138 567 49 469 q 371 664 228 664 q 490 636 436 664 q 574 560 544 608 l 574 647 m 389 118 q 529 177 478 118 q 581 324 581 236 q 529 470 581 411 q 389 529 478 529 q 252 472 304 529 q 200 324 200 414 q 252 176 200 233 q 389 118 304 118 z "},"Ġ":{"ha":1157,"x_min":47,"x_max":1129,"o":"m 642 1050 q 627 1035 642 1050 q 565 1019 613 1019 q 488 1050 518 1019 q 458 1126 458 1081 q 488 1203 458 1172 q 565 1233 518 1233 q 642 1203 613 1233 q 672 1126 672 1172 q 642 1050 672 1081 m 1129 488 l 1129 344 l 1022 344 q 862 74 985 172 q 549 -24 739 -24 q 185 119 322 -24 q 49 479 47 261 q 185 846 50 696 q 563 996 321 996 q 855 906 738 996 q 985 681 972 815 l 810 681 q 728 805 793 757 q 563 853 663 853 q 304 747 393 853 q 217 479 215 640 q 306 222 215 325 q 549 119 397 119 q 854 344 797 119 l 667 344 l 667 488 l 1129 488 z "},"ġ":{"ha":822,"x_min":49,"x_max":725,"o":"m 481 773 q 465 757 481 773 q 400 740 449 740 q 319 773 351 740 q 288 853 288 806 q 319 933 288 900 q 400 965 351 965 q 481 933 449 965 q 513 853 513 900 q 481 773 513 806 m 574 647 l 725 647 l 725 28 q 608 -251 725 -167 q 386 -308 532 -308 q 158 -250 244 -308 q 56 -74 60 -183 l 214 -74 q 385 -183 235 -183 q 527 -137 481 -183 q 574 17 574 -90 l 574 88 q 487 12 546 40 q 367 -17 428 -17 q 134 80 219 -17 q 49 324 49 176 q 138 567 49 469 q 371 664 228 664 q 490 636 436 664 q 574 560 544 608 l 574 647 m 389 118 q 529 177 478 118 q 581 324 581 236 q 529 470 581 411 q 389 529 478 529 q 252 472 304 529 q 200 324 200 414 q 252 176 200 233 q 389 118 304 118 z "},"Ģ":{"ha":1157,"x_min":47,"x_max":1129,"o":"m 1129 488 l 1129 344 l 1022 344 q 862 74 985 172 q 549 -24 739 -24 q 185 119 322 -24 q 49 479 47 261 q 185 846 50 696 q 563 996 321 996 q 855 906 738 996 q 985 681 972 815 l 810 681 q 728 805 793 757 q 563 853 663 853 q 304 747 393 853 q 217 479 215 640 q 306 222 215 325 q 549 119 397 119 q 854 344 797 119 l 667 344 l 667 488 l 1129 488 m 558 -42 q 624 -68 600 -42 q 649 -137 649 -94 q 499 -290 649 -287 l 499 -243 q 567 -225 542 -243 q 585 -183 582 -212 q 565 -189 579 -189 q 507 -168 529 -189 q 485 -117 485 -147 q 506 -63 485 -85 q 558 -42 528 -42 z "},"ģ":{"ha":822,"x_min":49,"x_max":725,"o":"m 375 706 q 313 738 338 706 q 288 819 288 769 q 331 924 288 885 q 447 965 374 964 l 447 917 q 378 897 404 917 q 353 851 353 881 q 379 860 358 860 q 432 838 411 860 q 453 783 453 815 q 430 728 453 750 q 375 706 407 706 m 574 647 l 725 647 l 725 28 q 608 -251 725 -167 q 386 -308 532 -308 q 158 -250 244 -308 q 56 -74 60 -183 l 214 -74 q 385 -183 235 -183 q 527 -137 481 -183 q 574 17 574 -90 l 574 88 q 487 12 546 40 q 367 -17 428 -17 q 134 80 219 -17 q 49 324 49 176 q 138 567 49 469 q 371 664 228 664 q 490 636 436 664 q 574 560 544 608 l 574 647 m 389 118 q 529 177 478 118 q 581 324 581 236 q 529 470 581 411 q 389 529 478 529 q 252 472 304 529 q 200 324 200 414 q 252 176 200 233 q 389 118 304 118 z "},"Ĥ":{"ha":929,"x_min":104,"x_max":825,"o":"m 460 1253 l 656 1088 l 576 1018 l 460 1124 l 343 1018 l 264 1088 l 460 1253 m 104 0 l 104 972 l 264 972 l 264 554 l 665 554 l 665 972 l 825 972 l 825 0 l 665 0 l 665 411 l 264 411 l 264 0 l 104 0 z "},"ĥ":{"ha":786,"x_min":11,"x_max":696,"o":"m 265 1025 l 172 1103 l 79 1025 l 11 1100 l 172 1231 l 333 1100 l 265 1025 m 460 664 q 696 407 696 664 l 696 0 l 544 0 l 544 338 q 513 489 544 443 q 403 535 481 535 q 289 488 329 535 q 249 356 249 442 l 249 0 l 97 0 l 97 972 l 249 972 l 249 557 q 460 664 311 664 z "},"Ħ":{"ha":929,"x_min":56,"x_max":874,"o":"m 874 796 l 874 696 l 825 696 l 825 0 l 665 0 l 665 411 l 264 411 l 264 0 l 104 0 l 104 696 l 56 696 l 56 796 l 104 796 l 104 972 l 264 972 l 264 796 l 665 796 l 665 972 l 825 972 l 825 796 l 874 796 m 665 554 l 665 696 l 264 696 l 264 554 l 665 554 z "},"ħ":{"ha":786,"x_min":46,"x_max":696,"o":"m 460 664 q 696 407 696 664 l 696 0 l 544 0 l 544 338 q 513 489 544 443 q 403 535 481 535 q 289 488 329 535 q 249 356 249 442 l 249 0 l 97 0 l 97 736 l 46 736 l 46 836 l 97 836 l 97 972 l 249 972 l 249 836 l 453 836 l 453 736 l 249 736 l 249 557 q 460 664 311 664 z "},"Ĩ":{"ha":368,"x_min":38,"x_max":335,"o":"m 243 1043 q 177 1069 211 1043 q 128 1094 143 1094 q 71 1057 97 1094 l 38 1128 q 129 1196 71 1196 q 195 1170 161 1196 q 244 1144 229 1144 q 301 1182 275 1144 l 335 1111 q 243 1043 301 1043 m 104 0 l 104 972 l 264 972 l 264 0 l 104 0 z "},"ĩ":{"ha":346,"x_min":21,"x_max":325,"o":"m 226 724 q 161 760 196 724 q 107 797 126 797 q 51 754 75 797 l 21 835 q 115 925 56 925 q 191 888 150 925 q 246 851 232 851 q 297 889 274 851 l 325 807 q 226 724 300 724 m 97 0 l 97 647 l 249 647 l 249 0 l 97 0 z "},"Ī":{"ha":368,"x_min":46,"x_max":324,"o":"m 46 1061 l 46 1167 l 324 1167 l 324 1061 l 46 1061 m 104 0 l 104 972 l 264 972 l 264 0 l 104 0 z "},"ī":{"ha":346,"x_min":29,"x_max":318,"o":"m 29 772 l 29 892 l 318 892 l 318 772 l 29 772 m 97 0 l 97 647 l 249 647 l 249 0 l 97 0 z "},"Ĭ":{"ha":368,"x_min":8,"x_max":361,"o":"m 361 1214 q 185 1017 361 1017 q 8 1214 8 1017 l 124 1214 q 185 1124 128 1124 q 246 1214 242 1124 l 361 1214 m 104 0 l 104 972 l 264 972 l 264 0 l 104 0 z "},"ĭ":{"ha":346,"x_min":11,"x_max":336,"o":"m 336 893 q 174 704 336 704 q 11 893 11 704 l 113 893 q 174 799 117 799 q 235 893 231 799 l 336 893 m 97 0 l 97 647 l 249 647 l 249 0 l 97 0 z "},"Į":{"ha":368,"x_min":3,"x_max":289,"o":"m 218 -182 q 289 -165 254 -182 l 289 -274 q 176 -294 235 -294 q 51 -253 99 -294 q 3 -153 3 -212 q 113 0 3 -64 l 104 0 l 104 972 l 264 972 l 264 0 q 169 -40 199 -10 q 140 -107 140 -69 q 163 -160 140 -139 q 218 -182 185 -182 z "},"į":{"ha":346,"x_min":-12,"x_max":286,"o":"m 254 773 q 238 757 254 773 q 174 740 222 740 q 93 773 125 740 q 61 853 61 806 q 93 933 61 900 q 174 965 125 965 q 254 933 222 965 q 286 853 286 900 q 254 773 286 806 m 125 -107 q 147 -160 125 -139 q 203 -182 169 -182 q 274 -165 239 -182 l 274 -274 q 161 -294 219 -294 q 35 -253 83 -294 q -12 -153 -12 -212 q 97 0 -12 -64 l 97 647 l 249 647 l 249 0 q 154 -40 183 -10 q 125 -107 125 -69 z "},"İ":{"ha":368,"x_min":78,"x_max":292,"o":"m 262 1050 q 247 1035 262 1050 q 185 1019 232 1019 q 108 1050 138 1019 q 78 1126 78 1081 q 108 1203 78 1172 q 185 1233 138 1233 q 262 1203 232 1233 q 292 1126 292 1172 q 262 1050 292 1081 m 104 0 l 104 972 l 264 972 l 264 0 l 104 0 z "},"ı":{"ha":346,"x_min":97,"x_max":249,"o":"m 97 0 l 97 647 l 249 647 l 249 0 l 97 0 z "},"Ĳ":{"ha":1113,"x_min":104,"x_max":1029,"o":"m 104 0 l 104 972 l 264 972 l 264 0 l 104 0 m 711 -24 q 479 69 563 -24 q 396 317 396 163 l 556 317 q 595 173 556 226 q 711 119 635 119 q 828 173 788 119 q 869 315 869 226 l 869 972 l 1029 972 l 1029 315 q 945 69 1029 161 q 711 -24 861 -24 z "},"ĳ":{"ha":696,"x_min":61,"x_max":636,"o":"m 254 773 q 238 757 254 773 q 174 740 222 740 q 93 773 125 740 q 61 853 61 806 q 93 933 61 900 q 174 965 125 965 q 254 933 222 965 q 286 853 286 900 q 254 773 286 806 m 604 773 q 588 757 604 773 q 524 740 572 740 q 443 773 475 740 q 411 853 411 806 q 443 933 411 900 q 524 965 475 965 q 604 933 572 965 q 636 853 636 900 q 604 773 636 806 m 97 0 l 97 647 l 249 647 l 249 0 l 97 0 m 421 -300 q 332 -286 358 -300 l 332 -151 q 389 -157 358 -157 q 447 -90 447 -157 l 447 647 l 599 647 l 599 -135 q 553 -258 599 -215 q 421 -300 507 -300 z "},"Ĵ":{"ha":744,"x_min":28,"x_max":742,"o":"m 674 1025 l 581 1103 l 488 1025 l 419 1100 l 581 1231 l 742 1100 l 674 1025 m 343 -24 q 111 69 194 -24 q 28 317 28 163 l 188 317 q 227 173 188 226 q 343 119 267 119 q 460 173 419 119 q 501 315 501 226 l 501 972 l 661 972 l 661 315 q 577 69 661 161 q 343 -24 493 -24 z "},"ĵ":{"ha":350,"x_min":-14,"x_max":358,"o":"m 79 713 l -3 800 l 178 958 l 358 800 l 278 711 l 178 804 l 79 713 m 75 -300 q -14 -286 13 -300 l -14 -151 q 43 -157 13 -157 q 101 -90 101 -157 l 101 647 l 253 647 l 253 -135 q 207 -258 253 -215 q 75 -300 161 -300 z "},"Ķ":{"ha":842,"x_min":104,"x_max":828,"o":"m 828 972 l 410 493 l 828 0 l 625 0 l 264 436 l 264 0 l 104 0 l 104 972 l 264 972 l 264 533 l 626 972 l 828 972 m 404 -42 q 470 -68 446 -42 q 494 -137 494 -94 q 344 -290 494 -287 l 344 -243 q 413 -225 388 -243 q 431 -183 428 -212 q 411 -189 425 -189 q 353 -168 375 -189 q 331 -117 331 -147 q 352 -63 331 -85 q 404 -42 374 -42 z "},"ķ":{"ha":719,"x_min":97,"x_max":685,"o":"m 685 647 l 404 338 l 685 0 l 486 0 l 249 294 l 249 0 l 97 0 l 97 972 l 249 972 l 249 364 l 493 647 l 685 647 m 367 -42 q 433 -68 408 -42 q 457 -137 457 -94 q 307 -290 457 -287 l 307 -243 q 375 -225 350 -243 q 393 -183 390 -212 q 374 -189 388 -189 q 315 -168 338 -189 q 293 -117 293 -147 q 315 -63 293 -85 q 367 -42 336 -42 z "},"ĸ":{"ha":719,"x_min":97,"x_max":685,"o":"m 685 647 l 404 338 l 685 0 l 486 0 l 249 294 l 249 0 l 97 0 l 97 647 l 249 647 l 249 364 l 493 647 l 685 647 z "},"Ĺ":{"ha":710,"x_min":31,"x_max":654,"o":"m 99 1014 l 31 1111 l 269 1260 l 339 1163 l 99 1014 m 104 0 l 104 972 l 264 972 l 264 150 l 654 150 l 654 0 l 104 0 z "},"ĺ":{"ha":346,"x_min":19,"x_max":328,"o":"m 88 1014 l 19 1111 l 258 1260 l 328 1163 l 88 1014 m 97 0 l 97 972 l 249 972 l 249 0 l 97 0 z "},"Ļ":{"ha":710,"x_min":104,"x_max":654,"o":"m 104 0 l 104 972 l 264 972 l 264 150 l 654 150 l 654 0 l 104 0 m 322 -290 l 322 -243 q 390 -225 365 -243 q 408 -183 406 -212 q 389 -189 403 -189 q 331 -168 353 -189 q 308 -117 308 -147 q 330 -63 308 -85 q 382 -42 351 -42 q 448 -68 424 -42 q 472 -137 472 -94 q 322 -290 472 -287 z "},"ļ":{"ha":346,"x_min":93,"x_max":257,"o":"m 97 0 l 97 972 l 249 972 l 249 0 l 97 0 m 107 -290 l 107 -243 q 175 -225 150 -243 q 193 -183 190 -212 q 174 -189 188 -189 q 115 -168 138 -189 q 93 -117 93 -147 q 115 -63 93 -85 q 167 -42 136 -42 q 233 -68 208 -42 q 257 -137 257 -94 q 107 -290 257 -287 z "},"Ľ":{"ha":710,"x_min":104,"x_max":654,"o":"m 460 679 q 431 681 440 679 l 431 746 q 457 744 440 744 q 526 768 503 744 q 543 829 543 789 q 485 807 525 807 q 425 833 449 807 q 401 900 401 860 q 429 969 401 943 q 501 996 457 996 q 587 959 554 996 q 619 853 619 922 q 577 726 619 772 q 460 679 535 679 m 104 0 l 104 972 l 264 972 l 264 150 l 654 150 l 654 0 l 104 0 z "},"ľ":{"ha":549,"x_min":97,"x_max":556,"o":"m 396 679 q 367 681 376 679 l 367 746 q 393 744 376 744 q 463 768 439 744 q 479 829 479 789 q 421 807 461 807 q 361 833 385 807 q 338 900 338 860 q 365 969 338 943 q 438 996 393 996 q 523 959 490 996 q 556 853 556 922 q 513 726 556 772 q 396 679 471 679 m 97 0 l 97 972 l 249 972 l 249 0 l 97 0 z "},"Ŀ":{"ha":710,"x_min":104,"x_max":654,"o":"m 104 0 l 104 972 l 264 972 l 264 150 l 654 150 l 654 0 l 104 0 m 579 474 q 562 456 579 474 q 496 439 544 439 q 413 474 447 439 q 379 557 379 508 q 413 640 379 606 q 496 674 447 674 q 579 640 544 674 q 614 557 614 606 q 579 474 614 508 z "},"ŀ":{"ha":546,"x_min":97,"x_max":539,"o":"m 97 0 l 97 972 l 249 972 l 249 0 l 97 0 m 504 404 q 487 387 504 404 q 421 369 469 369 q 338 404 372 369 q 304 488 304 439 q 338 570 304 536 q 421 604 372 604 q 504 570 469 604 q 539 488 539 536 q 504 404 539 439 z "},"Ł":{"ha":693,"x_min":39,"x_max":654,"o":"m 264 150 l 654 150 l 654 0 l 104 0 l 104 356 l 39 328 l 39 453 l 104 481 l 104 972 l 264 972 l 264 546 l 493 642 l 493 517 l 264 421 l 264 150 z "},"ł":{"ha":346,"x_min":4,"x_max":342,"o":"m 342 653 l 342 539 l 244 488 l 244 0 l 93 0 l 93 406 l 4 358 l 4 472 l 93 519 l 93 972 l 244 972 l 244 601 l 342 653 z "},"Ń":{"ha":914,"x_min":104,"x_max":810,"o":"m 347 1015 l 293 1118 l 581 1246 l 633 1144 l 347 1015 m 104 0 l 104 972 l 272 972 l 657 267 l 657 972 l 810 972 l 810 0 l 642 0 l 257 706 l 257 0 l 104 0 z "},"ń":{"ha":786,"x_min":97,"x_max":696,"o":"m 207 697 l 158 814 l 550 963 l 599 850 l 207 697 m 97 0 l 97 647 l 249 647 l 249 557 q 460 664 311 664 q 696 407 696 664 l 696 0 l 544 0 l 544 338 q 513 489 544 443 q 403 535 481 535 q 289 488 329 535 q 249 356 249 442 l 249 0 l 97 0 z "},"Ņ":{"ha":914,"x_min":104,"x_max":810,"o":"m 104 0 l 104 972 l 272 972 l 657 267 l 657 972 l 810 972 l 810 0 l 642 0 l 257 706 l 257 0 l 104 0 m 390 -290 l 390 -243 q 458 -225 433 -243 q 476 -183 474 -212 q 457 -189 471 -189 q 399 -168 421 -189 q 376 -117 376 -147 q 398 -63 376 -85 q 450 -42 419 -42 q 516 -68 492 -42 q 540 -137 540 -94 q 390 -290 540 -287 z "},"ņ":{"ha":786,"x_min":97,"x_max":696,"o":"m 97 0 l 97 647 l 249 647 l 249 557 q 460 664 311 664 q 696 407 696 664 l 696 0 l 544 0 l 544 338 q 513 489 544 443 q 403 535 481 535 q 289 488 329 535 q 249 356 249 442 l 249 0 l 97 0 m 326 -290 l 326 -243 q 394 -225 369 -243 q 413 -183 410 -212 q 393 -189 407 -189 q 335 -168 357 -189 q 313 -117 313 -147 q 334 -63 313 -85 q 386 -42 356 -42 q 452 -68 428 -42 q 476 -137 476 -94 q 326 -290 476 -287 z "},"Ň":{"ha":914,"x_min":104,"x_max":810,"o":"m 457 1019 l 261 1185 l 340 1254 l 457 1149 l 574 1254 l 653 1185 l 457 1019 m 104 0 l 104 972 l 272 972 l 657 267 l 657 972 l 810 972 l 810 0 l 642 0 l 257 706 l 257 0 l 104 0 z "},"ň":{"ha":786,"x_min":97,"x_max":696,"o":"m 393 689 l 143 893 l 225 981 l 393 836 l 563 982 l 643 893 l 393 689 m 97 0 l 97 647 l 249 647 l 249 557 q 460 664 311 664 q 696 407 696 664 l 696 0 l 544 0 l 544 338 q 513 489 544 443 q 403 535 481 535 q 289 488 329 535 q 249 356 249 442 l 249 0 l 97 0 z "},"ŉ":{"ha":822,"x_min":21,"x_max":732,"o":"m 79 679 q 50 681 60 679 l 50 746 q 76 744 60 744 q 146 768 122 744 q 163 829 163 789 q 104 807 144 807 q 44 833 68 807 q 21 900 21 860 q 49 969 21 943 q 121 996 76 996 q 206 959 174 996 q 239 853 239 922 q 197 726 239 772 q 79 679 154 679 m 133 0 l 133 647 l 285 647 l 285 557 q 496 664 347 664 q 732 407 732 664 l 732 0 l 581 0 l 581 338 q 549 489 581 443 q 439 535 517 535 q 325 488 365 535 q 285 356 285 442 l 285 0 l 133 0 z "},"Ŋ":{"ha":914,"x_min":104,"x_max":810,"o":"m 657 972 l 810 972 l 810 -106 q 753 -250 810 -200 q 593 -300 697 -300 q 500 -286 532 -300 l 500 -144 q 568 -150 528 -150 q 631 -129 613 -150 q 650 -54 650 -108 l 650 0 l 642 0 l 257 706 l 257 0 l 104 0 l 104 972 l 272 972 l 657 267 l 657 972 z "},"ŋ":{"ha":786,"x_min":97,"x_max":696,"o":"m 460 664 q 696 407 696 664 l 696 -135 q 650 -258 696 -215 q 518 -300 604 -300 q 429 -286 456 -300 l 429 -151 q 486 -157 456 -157 q 544 -90 544 -157 l 544 338 q 513 489 544 443 q 403 535 481 535 q 289 488 329 535 q 249 356 249 442 l 249 0 l 97 0 l 97 647 l 249 647 l 249 557 q 460 664 311 664 z "},"Ō":{"ha":1103,"x_min":49,"x_max":1054,"o":"m 281 1061 l 281 1181 l 822 1181 l 822 1061 l 281 1061 m 917 124 q 849 50 917 124 q 551 -24 781 -24 q 185 124 322 -24 q 49 486 49 271 q 185 849 49 701 q 551 996 322 996 q 917 849 781 996 q 1054 486 1054 701 q 917 124 1054 271 m 305 224 q 350 172 305 224 q 551 119 394 119 q 798 224 708 119 q 886 486 888 329 q 798 748 888 643 q 551 853 708 853 q 305 748 394 853 q 217 486 215 643 q 305 224 215 329 z "},"ō":{"ha":781,"x_min":49,"x_max":732,"o":"m 169 772 l 169 892 l 611 892 l 611 772 l 169 772 m 640 80 q 593 32 640 80 q 390 -17 547 -17 q 141 80 233 -17 q 49 324 49 176 q 141 567 49 471 q 390 664 233 664 q 640 567 547 664 q 732 324 732 471 q 640 80 732 176 m 251 175 q 276 147 251 175 q 390 118 301 118 q 530 175 479 118 q 581 324 581 232 q 530 472 581 415 q 390 529 479 529 q 251 472 301 529 q 200 324 200 415 q 251 175 200 232 z "},"Ŏ":{"ha":1103,"x_min":49,"x_max":1054,"o":"m 717 1074 q 683 1045 717 1074 q 551 1017 650 1017 q 386 1074 453 1017 q 313 1214 319 1131 l 436 1214 q 551 1124 449 1124 q 667 1214 654 1124 l 790 1214 q 717 1074 783 1131 m 917 124 q 849 50 917 124 q 551 -24 781 -24 q 185 124 322 -24 q 49 486 49 271 q 185 849 49 701 q 551 996 322 996 q 917 849 781 996 q 1054 486 1054 701 q 917 124 1054 271 m 305 224 q 350 172 305 224 q 551 119 394 119 q 798 224 708 119 q 886 486 888 329 q 798 748 888 643 q 551 853 708 853 q 305 748 394 853 q 217 486 215 643 q 305 224 215 329 z "},"ŏ":{"ha":781,"x_min":49,"x_max":732,"o":"m 569 762 q 535 733 569 762 q 390 704 501 704 q 211 762 279 704 q 138 921 143 819 l 265 921 q 301 841 268 868 q 390 814 335 814 q 479 841 446 814 q 515 921 513 868 l 643 921 q 569 762 638 819 m 640 80 q 593 32 640 80 q 390 -17 547 -17 q 141 80 233 -17 q 49 324 49 176 q 141 567 49 471 q 390 664 233 664 q 640 567 547 664 q 732 324 732 471 q 640 80 732 176 m 251 175 q 276 147 251 175 q 390 118 301 118 q 530 175 479 118 q 581 324 581 232 q 530 472 581 415 q 390 529 479 529 q 251 472 301 529 q 200 324 200 415 q 251 175 200 232 z "},"Ő":{"ha":1103,"x_min":49,"x_max":1054,"o":"m 438 1021 l 356 1056 l 528 1239 l 664 1186 l 438 1021 m 676 1019 l 596 1056 l 768 1239 l 903 1183 l 676 1019 m 917 124 q 849 50 917 124 q 551 -24 781 -24 q 185 124 322 -24 q 49 486 49 271 q 185 849 49 701 q 551 996 322 996 q 917 849 781 996 q 1054 486 1054 701 q 917 124 1054 271 m 305 224 q 350 172 305 224 q 551 119 394 119 q 798 224 708 119 q 886 486 888 329 q 798 748 888 643 q 551 853 708 853 q 305 748 394 853 q 217 486 215 643 q 305 224 215 329 z "},"ő":{"ha":781,"x_min":49,"x_max":735,"o":"m 229 682 l 157 721 l 331 951 l 464 885 l 229 682 m 500 682 l 428 721 l 601 951 l 735 885 l 500 682 m 640 80 q 593 32 640 80 q 390 -17 547 -17 q 141 80 233 -17 q 49 324 49 176 q 141 567 49 471 q 390 664 233 664 q 640 567 547 664 q 732 324 732 471 q 640 80 732 176 m 251 175 q 276 147 251 175 q 390 118 301 118 q 530 175 479 118 q 581 324 581 232 q 530 472 581 415 q 390 529 479 529 q 251 472 301 529 q 200 324 200 415 q 251 175 200 232 z "},"Œ":{"ha":1242,"x_min":49,"x_max":1151,"o":"m 1151 829 l 776 829 l 776 554 l 1151 554 l 1151 411 l 776 411 l 776 143 l 1151 143 l 1151 0 l 524 0 q 178 140 307 0 q 49 486 49 281 q 178 832 49 692 q 524 972 307 972 l 1151 972 l 1151 829 m 524 143 l 617 143 l 617 829 l 524 829 q 299 731 381 829 q 217 486 217 633 q 299 241 217 339 q 524 143 381 143 z "},"œ":{"ha":1264,"x_min":49,"x_max":1215,"o":"m 1215 357 q 1211 274 1215 332 l 731 274 q 781 156 733 197 q 911 115 828 115 q 1056 189 1019 115 l 1208 189 q 1110 41 1193 99 q 911 -17 1028 -17 q 653 94 742 -17 q 390 -17 556 -17 q 141 80 233 -17 q 49 324 49 176 q 141 567 49 471 q 390 664 233 664 q 653 553 557 664 q 906 664 742 664 q 1130 578 1044 664 q 1215 357 1215 493 m 731 389 l 1067 389 q 1023 504 1065 464 q 903 544 981 544 q 778 501 824 544 q 731 389 732 458 m 251 175 q 276 147 251 175 q 390 118 301 118 q 530 175 479 118 q 581 324 581 232 q 530 472 581 415 q 390 529 479 529 q 251 472 301 529 q 200 324 200 415 q 251 175 200 232 z "},"Ŕ":{"ha":844,"x_min":104,"x_max":796,"o":"m 596 1144 l 310 1015 l 256 1118 l 543 1246 l 596 1144 m 796 632 q 740 435 796 519 q 589 314 683 350 l 781 0 l 599 0 l 421 292 l 264 292 l 264 0 l 104 0 l 104 972 l 463 972 q 702 876 608 972 q 796 632 796 781 m 264 829 l 264 435 l 453 435 q 584 491 532 435 q 636 632 636 547 q 584 773 636 717 q 453 829 532 829 l 264 829 z "},"ŕ":{"ha":508,"x_min":10,"x_max":481,"o":"m 58 697 l 10 814 l 401 963 l 450 850 l 58 697 m 97 0 l 97 647 l 249 647 l 249 522 q 314 622 265 588 q 421 656 363 656 q 481 650 458 656 l 481 511 q 421 514 457 514 q 294 455 340 514 q 249 286 249 396 l 249 0 l 97 0 z "},"Ŗ":{"ha":844,"x_min":104,"x_max":796,"o":"m 796 632 q 740 435 796 519 q 589 314 683 350 l 781 0 l 599 0 l 421 292 l 264 292 l 264 0 l 104 0 l 104 972 l 463 972 q 702 876 608 972 q 796 632 796 781 m 264 829 l 264 435 l 453 435 q 584 491 532 435 q 636 632 636 547 q 584 773 636 717 q 453 829 532 829 l 264 829 m 413 -42 q 478 -68 454 -42 q 503 -137 503 -94 q 353 -290 503 -287 l 353 -243 q 421 -225 396 -243 q 439 -183 436 -212 q 419 -189 433 -189 q 361 -168 383 -189 q 339 -117 339 -147 q 360 -63 339 -85 q 413 -42 382 -42 z "},"ŗ":{"ha":508,"x_min":97,"x_max":481,"o":"m 97 0 l 97 647 l 249 647 l 249 522 q 314 622 265 588 q 421 656 363 656 q 481 650 458 656 l 481 511 q 421 514 457 514 q 294 455 340 514 q 249 286 249 396 l 249 0 l 97 0 m 117 -290 l 117 -243 q 185 -225 160 -243 q 203 -183 200 -212 q 183 -189 197 -189 q 125 -168 147 -189 q 103 -117 103 -147 q 124 -63 103 -85 q 176 -42 146 -42 q 242 -68 218 -42 q 267 -137 267 -94 q 117 -290 267 -287 z "},"Ř":{"ha":844,"x_min":104,"x_max":796,"o":"m 615 1185 l 419 1019 l 224 1185 l 303 1254 l 419 1149 l 536 1254 l 615 1185 m 796 632 q 740 435 796 519 q 589 314 683 350 l 781 0 l 599 0 l 421 292 l 264 292 l 264 0 l 104 0 l 104 972 l 463 972 q 702 876 608 972 q 796 632 796 781 m 264 829 l 264 435 l 453 435 q 584 491 532 435 q 636 632 636 547 q 584 773 636 717 q 453 829 532 829 l 264 829 z "},"ř":{"ha":508,"x_min":-6,"x_max":494,"o":"m 244 689 l -6 893 l 76 981 l 244 836 l 414 982 l 494 893 l 244 689 m 97 0 l 97 647 l 249 647 l 249 522 q 314 622 265 588 q 421 656 363 656 q 481 650 458 656 l 481 511 q 421 514 457 514 q 294 455 340 514 q 249 286 249 396 l 249 0 l 97 0 z "},"Ś":{"ha":767,"x_min":42,"x_max":718,"o":"m 274 1015 l 219 1118 l 507 1246 l 560 1144 l 274 1015 m 396 -24 q 134 65 226 -24 q 42 318 42 154 l 201 318 q 253 169 201 224 q 394 115 304 115 q 516 151 474 115 q 558 251 558 186 q 527 340 558 307 q 414 407 496 374 l 256 471 q 69 729 69 543 q 156 922 69 847 q 381 996 243 996 q 613 913 525 996 q 701 692 701 829 l 542 692 q 499 816 542 772 q 375 860 456 860 q 269 827 307 860 q 231 739 231 794 q 268 653 231 689 q 392 582 306 617 l 535 524 q 718 256 718 449 q 629 53 718 131 q 396 -24 540 -24 z "},"ś":{"ha":635,"x_min":49,"x_max":579,"o":"m 128 697 l 79 814 l 471 963 l 519 850 l 128 697 m 324 -17 q 125 46 201 -17 q 49 199 49 108 l 200 199 q 237 131 200 157 q 332 104 274 104 q 400 125 375 104 q 425 181 425 146 q 376 249 425 236 l 210 294 q 69 474 69 333 q 139 609 69 554 q 318 664 208 664 q 508 608 442 664 q 574 463 574 553 l 425 463 q 395 526 425 503 q 313 549 365 549 q 246 530 272 549 q 219 482 219 511 q 275 413 219 429 l 429 368 q 538 302 496 349 q 579 194 579 256 q 512 42 579 100 q 324 -17 444 -17 z "},"Ŝ":{"ha":767,"x_min":42,"x_max":718,"o":"m 378 1253 l 574 1088 l 494 1018 l 378 1124 l 261 1018 l 182 1088 l 378 1253 m 396 -24 q 134 65 226 -24 q 42 318 42 154 l 201 318 q 253 169 201 224 q 394 115 304 115 q 516 151 474 115 q 558 251 558 186 q 527 340 558 307 q 414 407 496 374 l 256 471 q 69 729 69 543 q 156 922 69 847 q 381 996 243 996 q 613 913 525 996 q 701 692 701 829 l 542 692 q 499 816 542 772 q 375 860 456 860 q 269 827 307 860 q 231 739 231 794 q 268 653 231 689 q 392 582 306 617 l 535 524 q 718 256 718 449 q 629 53 718 131 q 396 -24 540 -24 z "},"ŝ":{"ha":635,"x_min":49,"x_max":579,"o":"m 314 983 l 564 779 l 483 690 l 314 836 l 146 692 l 64 779 l 314 983 m 324 -17 q 125 46 201 -17 q 49 199 49 108 l 200 199 q 237 131 200 157 q 332 104 274 104 q 400 125 375 104 q 425 181 425 146 q 376 249 425 236 l 210 294 q 69 474 69 333 q 139 609 69 554 q 318 664 208 664 q 508 608 442 664 q 574 463 574 553 l 425 463 q 395 526 425 503 q 313 549 365 549 q 246 530 272 549 q 219 482 219 511 q 275 413 219 429 l 429 368 q 538 302 496 349 q 579 194 579 256 q 512 42 579 100 q 324 -17 444 -17 z "},"Ş":{"ha":767,"x_min":42,"x_max":718,"o":"m 718 256 q 637 61 718 138 q 422 -22 556 -15 l 422 -82 q 479 -67 440 -67 q 554 -95 524 -67 q 585 -176 585 -124 q 551 -265 585 -231 q 456 -300 518 -300 q 369 -274 403 -300 q 331 -197 336 -247 l 407 -197 q 422 -226 408 -215 q 454 -236 436 -236 q 504 -178 504 -236 q 456 -122 504 -122 q 411 -144 426 -122 l 343 -144 l 343 -21 q 120 81 199 -7 q 42 318 42 168 l 201 318 q 253 169 201 224 q 394 115 304 115 q 516 151 474 115 q 558 251 558 186 q 527 340 558 307 q 414 407 496 374 l 256 471 q 69 729 69 543 q 156 922 69 847 q 381 996 243 996 q 613 913 525 996 q 701 692 701 829 l 542 692 q 499 816 542 772 q 375 860 456 860 q 269 827 307 860 q 231 739 231 794 q 268 653 231 689 q 392 582 306 617 l 535 524 q 718 256 718 449 z "},"ş":{"ha":635,"x_min":49,"x_max":579,"o":"m 579 194 q 520 49 579 106 q 353 -15 461 -8 l 353 -82 q 410 -67 371 -67 q 485 -95 454 -67 q 515 -176 515 -124 q 482 -265 515 -231 q 386 -300 449 -300 q 300 -274 333 -300 q 261 -197 267 -247 l 338 -197 q 353 -226 339 -215 q 385 -236 367 -236 q 435 -178 435 -236 q 386 -122 435 -122 q 342 -144 357 -122 l 274 -144 l 274 -14 q 110 59 172 0 q 49 199 49 118 l 200 199 q 237 131 200 157 q 332 104 274 104 q 400 125 375 104 q 425 181 425 146 q 376 249 425 236 l 210 294 q 69 474 69 333 q 139 609 69 554 q 318 664 208 664 q 508 608 442 664 q 574 463 574 553 l 425 463 q 395 526 425 503 q 313 549 365 549 q 246 530 272 549 q 219 482 219 511 q 275 413 219 429 l 429 368 q 538 302 496 349 q 579 194 579 256 z "},"Š":{"ha":767,"x_min":42,"x_max":718,"o":"m 383 1019 l 188 1185 l 267 1254 l 383 1149 l 500 1254 l 579 1185 l 383 1019 m 396 -24 q 134 65 226 -24 q 42 318 42 154 l 201 318 q 253 169 201 224 q 394 115 304 115 q 516 151 474 115 q 558 251 558 186 q 527 340 558 307 q 414 407 496 374 l 256 471 q 69 729 69 543 q 156 922 69 847 q 381 996 243 996 q 613 913 525 996 q 701 692 701 829 l 542 692 q 499 816 542 772 q 375 860 456 860 q 269 827 307 860 q 231 739 231 794 q 268 653 231 689 q 392 582 306 617 l 535 524 q 718 256 718 449 q 629 53 718 131 q 396 -24 540 -24 z "},"š":{"ha":635,"x_min":49,"x_max":579,"o":"m 314 689 l 64 893 l 146 981 l 314 836 l 483 982 l 564 893 l 314 689 m 324 -17 q 125 46 201 -17 q 49 199 49 108 l 200 199 q 237 131 200 157 q 332 104 274 104 q 400 125 375 104 q 425 181 425 146 q 376 249 425 236 l 210 294 q 69 474 69 333 q 139 609 69 554 q 318 664 208 664 q 508 608 442 664 q 574 463 574 553 l 425 463 q 395 526 425 503 q 313 549 365 549 q 246 530 272 549 q 219 482 219 511 q 275 413 219 429 l 429 368 q 538 302 496 349 q 579 194 579 256 q 512 42 579 100 q 324 -17 444 -17 z "},"Ţ":{"ha":739,"x_min":7,"x_max":732,"o":"m 449 0 l 408 0 l 408 -82 q 465 -67 426 -67 q 540 -95 510 -67 q 571 -176 571 -124 q 538 -265 571 -231 q 442 -300 504 -300 q 356 -274 389 -300 q 317 -197 322 -247 l 393 -197 q 408 -226 394 -215 q 440 -236 422 -236 q 490 -178 490 -236 q 442 -122 490 -122 q 397 -144 413 -122 l 329 -144 l 329 0 l 289 0 l 289 822 l 7 822 l 7 972 l 732 972 l 732 822 l 449 822 l 449 0 z "},"ţ":{"ha":508,"x_min":35,"x_max":532,"o":"m 426 -67 q 501 -95 471 -67 q 532 -176 532 -124 q 499 -265 532 -231 q 403 -300 465 -300 q 317 -274 350 -300 q 278 -197 283 -247 l 354 -197 q 369 -226 356 -215 q 401 -236 383 -236 q 451 -178 451 -236 q 403 -122 451 -122 q 358 -144 374 -122 l 290 -144 l 290 -3 q 144 219 144 24 l 144 521 l 35 521 l 35 647 l 144 647 l 144 843 l 296 843 l 296 647 l 444 647 l 444 521 l 296 521 l 296 254 q 318 152 296 176 q 390 128 340 128 q 467 133 436 128 l 467 0 q 369 -8 438 -6 l 369 -82 q 426 -67 388 -67 z "},"Ť":{"ha":739,"x_min":7,"x_max":732,"o":"m 369 1019 l 174 1185 l 253 1254 l 369 1149 l 486 1254 l 565 1185 l 369 1019 m 289 0 l 289 822 l 7 822 l 7 972 l 732 972 l 732 822 l 449 822 l 449 0 l 289 0 z "},"ť":{"ha":539,"x_min":35,"x_max":550,"o":"m 443 993 q 521 960 492 993 q 550 864 550 926 q 512 749 550 790 q 406 707 474 707 q 379 708 389 707 l 379 767 l 403 767 q 467 788 446 767 q 481 843 481 806 q 428 822 464 822 q 374 847 396 822 q 353 907 353 871 q 378 969 353 946 q 443 993 403 993 m 296 254 q 318 152 296 176 q 390 128 340 128 q 467 133 436 128 l 467 0 q 354 -8 419 -8 q 289 -3 317 -8 q 224 23 261 3 q 165 93 186 43 q 144 219 144 143 l 144 521 l 35 521 l 35 647 l 144 647 l 144 843 l 296 843 l 296 647 l 444 647 l 444 521 l 296 521 l 296 254 z "},"Ŧ":{"ha":739,"x_min":7,"x_max":732,"o":"m 732 822 l 449 822 l 449 613 l 646 613 l 646 499 l 449 499 l 449 0 l 289 0 l 289 499 l 94 499 l 94 613 l 289 613 l 289 822 l 7 822 l 7 972 l 732 972 l 732 822 z "},"ŧ":{"ha":515,"x_min":35,"x_max":474,"o":"m 397 128 q 474 133 443 128 l 474 0 q 361 -8 426 -8 q 296 -3 324 -8 q 231 23 268 3 q 172 93 193 43 q 151 219 151 143 l 151 294 l 35 294 l 35 394 l 151 394 l 151 521 l 42 521 l 42 647 l 151 647 l 151 843 l 303 843 l 303 647 l 451 647 l 451 521 l 303 521 l 303 394 l 444 394 l 444 294 l 303 294 l 303 254 q 325 152 303 176 q 397 128 347 128 z "},"Ũ":{"ha":889,"x_min":83,"x_max":806,"o":"m 558 1010 q 429 1051 501 1006 q 328 1097 357 1097 q 277 1085 297 1097 q 229 1038 257 1072 l 167 1097 q 317 1211 233 1211 q 441 1167 369 1211 q 547 1124 513 1124 q 661 1189 610 1124 l 721 1121 q 558 1010 663 1015 m 708 66 q 660 21 708 66 q 444 -24 611 -24 q 181 66 278 -24 q 83 322 83 156 l 83 972 l 243 972 l 243 332 q 297 174 243 229 q 444 119 351 119 q 592 174 538 119 q 646 332 646 229 l 646 972 l 806 972 l 806 322 q 708 66 806 156 z "},"ũ":{"ha":779,"x_min":90,"x_max":682,"o":"m 493 724 q 390 763 453 724 q 297 801 326 801 q 203 749 254 801 l 149 831 q 288 925 204 925 q 390 886 328 925 q 483 847 453 847 q 578 900 529 847 l 632 818 q 493 724 576 724 m 331 -17 q 156 49 221 -17 q 90 240 90 114 l 90 647 l 242 647 l 242 278 q 272 154 242 196 q 374 113 303 113 q 493 159 456 113 q 531 282 531 206 l 531 647 l 682 647 l 682 0 l 531 0 l 531 90 q 331 -17 471 -17 z "},"Ū":{"ha":889,"x_min":83,"x_max":806,"o":"m 174 1061 l 174 1181 l 715 1181 l 715 1061 l 174 1061 m 708 66 q 660 21 708 66 q 444 -24 611 -24 q 181 66 278 -24 q 83 322 83 156 l 83 972 l 243 972 l 243 332 q 297 174 243 229 q 444 119 351 119 q 592 174 538 119 q 646 332 646 229 l 646 972 l 806 972 l 806 322 q 708 66 806 156 z "},"ū":{"ha":779,"x_min":90,"x_max":682,"o":"m 169 772 l 169 892 l 611 892 l 611 772 l 169 772 m 331 -17 q 156 49 221 -17 q 90 240 90 114 l 90 647 l 242 647 l 242 278 q 272 154 242 196 q 374 113 303 113 q 493 159 456 113 q 531 282 531 206 l 531 647 l 682 647 l 682 0 l 531 0 l 531 90 q 331 -17 471 -17 z "},"Ŭ":{"ha":889,"x_min":83,"x_max":806,"o":"m 610 1074 q 576 1045 610 1074 q 444 1017 543 1017 q 279 1074 346 1017 q 206 1214 213 1131 l 329 1214 q 444 1124 342 1124 q 560 1214 547 1124 l 683 1214 q 610 1074 676 1131 m 708 66 q 660 21 708 66 q 444 -24 611 -24 q 181 66 278 -24 q 83 322 83 156 l 83 972 l 243 972 l 243 332 q 297 174 243 229 q 444 119 351 119 q 592 174 538 119 q 646 332 646 229 l 646 972 l 806 972 l 806 322 q 708 66 806 156 z "},"ŭ":{"ha":779,"x_min":90,"x_max":682,"o":"m 569 762 q 535 733 569 762 q 390 704 501 704 q 211 762 279 704 q 138 921 143 819 l 265 921 q 301 841 268 868 q 390 814 335 814 q 479 841 446 814 q 515 921 513 868 l 643 921 q 569 762 638 819 m 331 -17 q 156 49 221 -17 q 90 240 90 114 l 90 647 l 242 647 l 242 278 q 272 154 242 196 q 374 113 303 113 q 493 159 456 113 q 531 282 531 206 l 531 647 l 682 647 l 682 0 l 531 0 l 531 90 q 331 -17 471 -17 z "},"Ů":{"ha":889,"x_min":83,"x_max":806,"o":"m 574 950 q 548 924 574 950 q 444 899 521 899 q 315 950 368 899 q 261 1074 261 1001 q 315 1197 261 1146 q 444 1249 368 1249 q 574 1197 521 1249 q 628 1074 628 1146 q 574 950 628 1001 m 383 1013 q 396 1000 383 1013 q 444 988 408 988 q 506 1013 481 988 q 531 1074 531 1038 q 506 1135 531 1110 q 444 1160 481 1160 q 383 1135 408 1160 q 358 1074 358 1110 q 383 1013 358 1038 m 708 66 q 660 21 708 66 q 444 -24 611 -24 q 181 66 278 -24 q 83 322 83 156 l 83 972 l 243 972 l 243 332 q 297 174 243 229 q 444 119 351 119 q 592 174 538 119 q 646 332 646 229 l 646 972 l 806 972 l 806 322 q 708 66 806 156 z "},"ů":{"ha":779,"x_min":90,"x_max":682,"o":"m 502 742 q 480 720 502 742 q 390 699 457 699 q 278 742 324 699 q 233 851 233 785 q 278 961 233 918 q 390 1004 324 1004 q 502 961 457 1004 q 547 851 547 918 q 502 742 547 785 m 338 794 q 348 783 338 794 q 390 772 358 772 q 443 794 422 772 q 464 851 464 817 q 443 908 464 886 q 390 931 422 931 q 338 908 358 931 q 317 851 317 886 q 338 794 317 817 m 331 -17 q 156 49 221 -17 q 90 240 90 114 l 90 647 l 242 647 l 242 278 q 272 154 242 196 q 374 113 303 113 q 493 159 456 113 q 531 282 531 206 l 531 647 l 682 647 l 682 0 l 531 0 l 531 90 q 331 -17 471 -17 z "},"Ű":{"ha":889,"x_min":83,"x_max":806,"o":"m 331 1021 l 249 1056 l 421 1239 l 557 1186 l 331 1021 m 569 1019 l 489 1056 l 661 1239 l 796 1183 l 569 1019 m 708 66 q 660 21 708 66 q 444 -24 611 -24 q 181 66 278 -24 q 83 322 83 156 l 83 972 l 243 972 l 243 332 q 297 174 243 229 q 444 119 351 119 q 592 174 538 119 q 646 332 646 229 l 646 972 l 806 972 l 806 322 q 708 66 806 156 z "},"ű":{"ha":779,"x_min":90,"x_max":735,"o":"m 229 682 l 157 721 l 331 951 l 464 885 l 229 682 m 500 682 l 428 721 l 601 951 l 735 885 l 500 682 m 331 -17 q 156 49 221 -17 q 90 240 90 114 l 90 647 l 242 647 l 242 278 q 272 154 242 196 q 374 113 303 113 q 493 159 456 113 q 531 282 531 206 l 531 647 l 682 647 l 682 0 l 531 0 l 531 90 q 331 -17 471 -17 z "},"Ų":{"ha":889,"x_min":83,"x_max":806,"o":"m 646 972 l 806 972 l 806 322 q 734 94 806 181 q 535 -17 663 7 q 469 -107 469 -44 q 492 -160 469 -139 q 547 -182 514 -182 q 618 -165 583 -182 l 618 -274 q 506 -294 564 -294 q 380 -253 428 -294 q 332 -153 332 -212 q 408 -22 332 -81 q 170 76 257 -12 q 83 322 83 165 l 83 972 l 243 972 l 243 332 q 297 174 243 229 q 444 119 351 119 q 592 174 538 119 q 646 332 646 229 l 646 972 z "},"ų":{"ha":779,"x_min":90,"x_max":707,"o":"m 636 -182 q 707 -165 672 -182 l 707 -274 q 594 -294 653 -294 q 469 -253 517 -294 q 421 -153 421 -212 q 531 0 421 -64 l 531 90 q 331 -17 471 -17 q 156 49 221 -17 q 90 240 90 114 l 90 647 l 242 647 l 242 278 q 272 154 242 196 q 374 113 303 113 q 493 159 456 113 q 531 282 531 206 l 531 647 l 682 647 l 682 0 q 588 -40 617 -10 q 558 -107 558 -69 q 581 -160 558 -139 q 636 -182 603 -182 z "},"Ŵ":{"ha":1351,"x_min":0,"x_max":1351,"o":"m 671 1253 l 867 1088 l 788 1018 l 671 1124 l 554 1018 l 475 1088 l 671 1253 m 336 0 l 0 972 l 168 972 l 399 265 l 617 972 l 735 972 l 953 265 l 1183 972 l 1351 972 l 1015 0 l 900 0 l 676 693 l 451 0 l 336 0 z "},"ŵ":{"ha":1061,"x_min":7,"x_max":1054,"o":"m 531 983 l 781 779 l 700 690 l 531 836 l 363 692 l 281 779 l 531 983 m 246 0 l 7 647 l 174 647 l 308 219 l 449 647 l 613 647 l 753 219 l 888 647 l 1054 647 l 815 0 l 688 0 l 531 461 l 374 0 l 246 0 z "},"Ŷ":{"ha":779,"x_min":-21,"x_max":807,"o":"m 400 1124 l 283 1018 l 204 1088 l 400 1253 l 596 1088 l 517 1018 l 400 1124 m 632 972 l 807 972 l 325 0 l 150 0 l 343 390 l -21 972 l 164 972 l 425 554 l 632 972 z "},"ŷ":{"ha":786,"x_min":90,"x_max":689,"o":"m 381 983 l 631 779 l 550 690 l 381 836 l 213 692 l 131 779 l 381 983 m 538 647 l 689 647 l 689 -3 q 604 -233 689 -151 q 385 -308 522 -308 q 163 -242 242 -308 q 90 -74 93 -181 l 243 -74 q 280 -156 249 -129 q 382 -183 311 -183 q 496 -137 454 -183 q 538 8 538 -90 l 538 90 q 329 -17 475 -17 q 152 58 214 -17 q 90 253 90 132 l 90 647 l 242 647 l 242 285 q 382 117 242 117 q 498 171 458 117 q 538 313 538 225 l 538 647 z "},"Ÿ":{"ha":779,"x_min":-21,"x_max":807,"o":"m 315 1056 q 299 1040 315 1056 q 239 1025 283 1025 q 164 1056 194 1025 q 133 1131 133 1086 q 164 1206 133 1175 q 239 1238 194 1238 q 315 1206 283 1238 q 346 1131 346 1175 q 315 1056 346 1086 m 571 1025 q 497 1056 528 1025 q 465 1131 465 1086 q 496 1206 465 1175 q 571 1238 526 1238 q 647 1206 615 1238 q 678 1131 678 1175 q 647 1056 678 1086 q 571 1025 615 1025 m 632 972 l 807 972 l 325 0 l 150 0 l 343 390 l -21 972 l 164 972 l 425 554 l 632 972 z "},"Ź":{"ha":807,"x_min":28,"x_max":772,"o":"m 325 1015 l 271 1118 l 558 1246 l 611 1144 l 325 1015 m 28 0 l 510 829 l 88 829 l 88 972 l 772 972 l 297 143 l 756 143 l 756 0 l 28 0 z "},"ź":{"ha":615,"x_min":7,"x_max":608,"o":"m 115 697 l 67 814 l 458 963 l 507 850 l 115 697 m 7 0 l 357 519 l 36 519 l 36 647 l 608 647 l 257 126 l 583 126 l 583 0 l 7 0 z "},"Ż":{"ha":807,"x_min":28,"x_max":772,"o":"m 512 1050 q 497 1035 512 1050 q 435 1019 482 1019 q 358 1050 388 1019 q 328 1126 328 1081 q 358 1203 328 1172 q 435 1233 388 1233 q 512 1203 482 1233 q 542 1126 542 1172 q 512 1050 542 1081 m 28 0 l 510 829 l 88 829 l 88 972 l 772 972 l 297 143 l 756 143 l 756 0 l 28 0 z "},"ż":{"ha":615,"x_min":7,"x_max":608,"o":"m 382 773 q 366 757 382 773 q 301 740 350 740 q 221 773 253 740 q 189 853 189 806 q 221 933 189 900 q 301 965 253 965 q 382 933 350 965 q 414 853 414 900 q 382 773 414 806 m 7 0 l 357 519 l 36 519 l 36 647 l 608 647 l 257 126 l 583 126 l 583 0 l 7 0 z "},"Ž":{"ha":807,"x_min":28,"x_max":772,"o":"m 435 1019 l 239 1185 l 318 1254 l 435 1149 l 551 1254 l 631 1185 l 435 1019 m 28 0 l 510 829 l 88 829 l 88 972 l 772 972 l 297 143 l 756 143 l 756 0 l 28 0 z "},"ž":{"ha":615,"x_min":7,"x_max":608,"o":"m 301 689 l 51 893 l 133 981 l 301 836 l 471 982 l 551 893 l 301 689 m 7 0 l 357 519 l 36 519 l 36 647 l 608 647 l 257 126 l 583 126 l 583 0 l 7 0 z "},"ƒ":{"ha":599,"x_min":-97,"x_max":613,"o":"m 525 826 q 441 801 468 826 q 401 706 414 775 l 390 647 l 557 647 l 535 521 l 368 521 l 263 -58 q 15 -299 219 -299 q -97 -282 -51 -299 l -75 -154 q -10 -164 -46 -164 q 74 -140 46 -164 q 111 -61 101 -117 l 217 521 l 82 521 l 104 647 l 239 647 l 250 708 q 339 900 274 839 q 514 961 404 961 q 613 944 576 961 l 590 817 q 525 826 561 826 z "},"Ǽ":{"ha":1199,"x_min":14,"x_max":1108,"o":"m 1022 1144 l 736 1015 l 682 1118 l 969 1246 l 1022 1144 m 1108 829 l 735 829 l 735 554 l 1108 554 l 1108 411 l 735 411 l 735 143 l 1108 143 l 1108 0 l 575 0 l 575 131 l 249 131 l 188 0 l 14 0 l 493 972 l 1108 972 l 1108 829 m 311 267 l 575 267 l 575 836 l 311 267 z "},"ǽ":{"ha":1199,"x_min":56,"x_max":1150,"o":"m 819 850 l 428 697 l 379 814 l 771 963 l 819 850 m 1150 354 q 1146 271 1150 329 l 665 271 q 715 153 668 194 q 846 113 763 113 q 990 197 954 113 l 1143 197 q 1046 41 1129 101 q 846 -19 963 -19 q 589 103 678 -19 q 317 -17 500 -17 q 128 35 200 -17 q 56 175 56 88 q 133 336 56 283 q 231 374 174 365 q 408 383 288 383 l 526 383 l 526 440 q 492 514 526 485 q 381 543 458 543 q 231 438 238 543 l 79 438 q 169 602 86 540 q 383 664 253 664 q 618 572 547 664 q 840 661 707 661 q 1065 576 979 661 q 1150 354 1150 490 m 665 385 l 1001 385 q 959 502 1001 460 q 840 544 917 544 q 715 500 764 544 q 665 385 667 456 m 526 249 l 526 269 l 526 271 l 358 271 q 208 188 208 271 q 342 103 208 103 q 470 138 414 103 q 526 249 526 174 z "},"Ǿ":{"ha":1103,"x_min":49,"x_max":1054,"o":"m 735 1144 l 449 1015 l 394 1118 l 682 1246 l 735 1144 m 811 932 q 990 749 926 867 q 1054 486 1054 631 q 917 124 1054 271 q 551 -24 781 -24 q 410 -7 475 -24 l 357 -129 l 251 -82 l 301 35 q 115 219 182 99 q 49 486 49 340 q 185 849 49 701 q 551 996 322 996 q 704 975 636 996 l 756 1094 l 860 1047 l 811 932 m 217 486 q 253 305 215 388 q 361 175 292 222 l 647 840 q 551 853 603 853 q 305 748 394 853 q 217 486 215 643 m 551 119 q 798 224 708 119 q 886 486 888 329 q 852 662 888 582 q 750 792 817 742 l 467 129 q 551 119 504 119 z "},"ǿ":{"ha":781,"x_min":49,"x_max":732,"o":"m 596 850 l 204 697 l 156 814 l 547 963 l 596 850 m 575 617 q 691 497 650 574 q 732 324 732 419 q 640 80 732 176 q 390 -17 547 -17 q 304 -8 346 -17 l 258 -115 l 174 -76 l 217 24 q 93 146 138 67 q 49 324 49 225 q 141 567 49 471 q 390 664 233 664 q 489 653 440 664 l 538 764 l 622 725 l 575 617 m 200 324 q 274 154 200 208 l 435 525 q 390 529 414 529 q 251 472 301 529 q 200 324 200 415 m 390 118 q 530 175 479 118 q 581 324 581 232 q 518 485 581 426 l 360 119 q 390 118 369 118 z "},"Ș":{"ha":767,"x_min":42,"x_max":718,"o":"m 396 -24 q 134 65 226 -24 q 42 318 42 154 l 201 318 q 253 169 201 224 q 394 115 304 115 q 516 151 474 115 q 558 251 558 186 q 527 340 558 307 q 414 407 496 374 l 256 471 q 69 729 69 543 q 156 922 69 847 q 381 996 243 996 q 613 913 525 996 q 701 692 701 829 l 542 692 q 499 816 542 772 q 375 860 456 860 q 269 827 307 860 q 231 739 231 794 q 268 653 231 689 q 392 582 306 617 l 535 524 q 718 256 718 449 q 629 53 718 131 q 396 -24 540 -24 m 317 -290 l 317 -243 q 385 -225 360 -243 q 403 -183 400 -212 q 383 -189 397 -189 q 325 -168 347 -189 q 303 -117 303 -147 q 324 -63 303 -85 q 376 -42 346 -42 q 442 -68 418 -42 q 467 -137 467 -94 q 317 -290 467 -287 z "},"ș":{"ha":635,"x_min":49,"x_max":579,"o":"m 324 -17 q 125 46 201 -17 q 49 199 49 108 l 200 199 q 237 131 200 157 q 332 104 274 104 q 400 125 375 104 q 425 181 425 146 q 376 249 425 236 l 210 294 q 69 474 69 333 q 139 609 69 554 q 318 664 208 664 q 508 608 442 664 q 574 463 574 553 l 425 463 q 395 526 425 503 q 313 549 365 549 q 246 530 272 549 q 219 482 219 511 q 275 413 219 429 l 429 368 q 538 302 496 349 q 579 194 579 256 q 512 42 579 100 q 324 -17 444 -17 m 247 -290 l 247 -243 q 315 -225 290 -243 q 333 -183 331 -212 q 314 -189 328 -189 q 256 -168 278 -189 q 233 -117 233 -147 q 255 -63 233 -85 q 307 -42 276 -42 q 373 -68 349 -42 q 397 -137 397 -94 q 247 -290 397 -287 z "},"Ț":{"ha":739,"x_min":7,"x_max":732,"o":"m 289 0 l 289 822 l 7 822 l 7 972 l 732 972 l 732 822 l 449 822 l 449 0 l 289 0 m 303 -290 l 303 -243 q 371 -225 346 -243 q 389 -183 386 -212 q 369 -189 383 -189 q 311 -168 333 -189 q 289 -117 289 -147 q 310 -63 289 -85 q 363 -42 332 -42 q 428 -68 404 -42 q 453 -137 453 -94 q 303 -290 453 -287 z "},"ț":{"ha":508,"x_min":35,"x_max":467,"o":"m 390 128 q 467 133 436 128 l 467 0 q 354 -8 419 -8 q 289 -3 317 -8 q 224 23 261 3 q 165 93 186 43 q 144 219 144 143 l 144 521 l 35 521 l 35 647 l 144 647 l 144 843 l 296 843 l 296 647 l 444 647 l 444 521 l 296 521 l 296 254 q 318 152 296 176 q 390 128 340 128 m 324 -42 q 390 -68 365 -42 q 414 -137 414 -94 q 264 -290 414 -287 l 264 -243 q 332 -225 307 -243 q 350 -183 347 -212 q 331 -189 344 -189 q 272 -168 294 -189 q 250 -117 250 -147 q 272 -63 250 -85 q 324 -42 293 -42 z "},"ȷ":{"ha":350,"x_min":-14,"x_max":253,"o":"m 75 -300 q -14 -286 13 -300 l -14 -151 q 43 -157 13 -157 q 101 -90 101 -157 l 101 647 l 253 647 l 253 -135 q 207 -258 253 -215 q 75 -300 161 -300 z "},"Ƀ":{"ha":813,"x_min":104,"x_max":757,"o":"m 757 263 q 694 90 757 157 q 519 6 632 22 l 519 -139 l 406 -139 l 406 0 l 339 0 l 339 -139 l 225 -139 l 225 0 l 104 0 l 104 944 l 225 944 l 225 1083 l 339 1083 l 339 944 l 406 944 l 406 1083 l 519 1083 l 519 938 q 683 856 625 918 q 742 699 742 794 q 557 485 742 514 q 699 419 640 478 q 757 263 757 360 m 582 678 q 540 772 582 739 q 422 806 499 806 l 264 806 l 264 550 l 422 550 q 540 584 497 550 q 582 678 582 618 m 444 140 q 557 177 517 140 q 597 281 597 214 q 556 376 597 339 q 446 413 514 413 l 264 413 l 264 140 l 444 140 z "},"ʼ":{"ha":394,"x_min":83,"x_max":318,"o":"m 192 1026 q 279 987 240 1026 q 318 869 318 947 q 270 724 318 781 q 133 668 222 668 q 83 672 103 668 l 83 736 q 133 733 103 733 q 210 765 181 733 q 242 839 238 793 q 183 817 224 817 q 113 845 142 817 q 83 919 83 874 q 114 997 83 967 q 192 1026 144 1026 z "},"ˆ":{"ha":833,"x_min":56,"x_max":556,"o":"m 306 983 l 556 779 l 475 690 l 306 836 l 138 692 l 56 779 l 306 983 z "},"ˇ":{"ha":833,"x_min":56,"x_max":556,"o":"m 306 689 l 56 893 l 138 981 l 306 836 l 475 982 l 556 893 l 306 689 z "},"˘":{"ha":833,"x_min":69,"x_max":575,"o":"m 501 762 q 467 733 501 762 q 322 704 433 704 q 143 762 211 704 q 69 921 75 819 l 197 921 q 233 841 200 868 q 322 814 267 814 q 411 841 378 814 q 447 921 444 868 l 575 921 q 501 762 569 819 z "},"˙":{"ha":833,"x_min":304,"x_max":529,"o":"m 497 773 q 481 757 497 773 q 417 740 465 740 q 336 773 368 740 q 304 853 304 806 q 336 933 304 900 q 417 965 368 965 q 497 933 465 965 q 529 853 529 900 q 497 773 529 806 z "},"˚":{"ha":833,"x_min":58,"x_max":372,"o":"m 327 708 q 305 687 327 708 q 215 665 282 665 q 103 708 149 665 q 58 818 58 751 q 103 928 58 885 q 215 971 149 971 q 327 928 282 971 q 372 818 372 885 q 327 708 372 751 m 163 761 q 173 750 163 761 q 215 739 183 739 q 268 761 247 739 q 289 818 289 783 q 268 875 289 853 q 215 897 247 897 q 163 875 183 897 q 142 818 142 853 q 163 761 142 783 z "},"˛":{"ha":833,"x_min":56,"x_max":342,"o":"m 229 -294 q 103 -253 151 -294 q 56 -153 56 -212 q 165 0 56 -64 l 317 0 q 222 -40 251 -10 q 193 -107 193 -69 q 215 -160 193 -139 q 271 -182 238 -182 q 342 -165 307 -182 l 342 -274 q 229 -294 288 -294 z "},"˜":{"ha":833,"x_min":61,"x_max":544,"o":"m 406 724 q 302 763 365 724 q 210 801 239 801 q 115 749 167 801 l 61 831 q 200 925 117 925 q 303 886 240 925 q 396 847 365 847 q 490 900 442 847 l 544 818 q 406 724 489 724 z "},"˝":{"ha":833,"x_min":56,"x_max":633,"o":"m 128 682 l 56 721 l 229 951 l 363 885 l 128 682 m 399 682 l 326 721 l 500 951 l 633 885 l 399 682 z "},"̀":{"ha":0,"x_min":-546,"x_max":-106,"o":"m -154 697 l -546 850 l -497 963 l -106 814 l -154 697 z "},"́":{"ha":0,"x_min":-460,"x_max":-19,"o":"m -411 697 l -460 814 l -68 963 l -19 850 l -411 697 z "},"̂":{"ha":0,"x_min":-556,"x_max":-56,"o":"m -306 983 l -56 779 l -136 690 l -306 836 l -474 692 l -556 779 l -306 983 z "},"̃":{"ha":0,"x_min":-543,"x_max":-60,"o":"m -199 724 q -302 763 -239 724 q -394 801 -365 801 q -489 749 -437 801 l -543 831 q -404 925 -487 925 q -301 886 -364 925 q -208 847 -239 847 q -114 900 -162 847 l -60 818 q -199 724 -115 724 z "},"̄":{"ha":0,"x_min":-525,"x_max":-83,"o":"m -525 772 l -525 892 l -83 892 l -83 772 l -525 772 z "},"̆":{"ha":0,"x_min":-575,"x_max":-69,"o":"m -143 762 q -177 733 -143 762 q -322 704 -211 704 q -501 762 -433 704 q -575 921 -569 819 l -447 921 q -411 841 -444 868 q -322 814 -378 814 q -233 841 -267 814 q -197 921 -200 868 l -69 921 q -143 762 -75 819 z "},"̇":{"ha":0,"x_min":-279,"x_max":-54,"o":"m -86 773 q -102 757 -86 773 q -167 740 -118 740 q -247 773 -215 740 q -279 853 -279 806 q -247 933 -279 900 q -167 965 -215 965 q -86 933 -118 965 q -54 853 -54 900 q -86 773 -54 806 z "},"̈":{"ha":0,"x_min":-568,"x_max":-74,"o":"m -462 739 q -537 769 -506 739 q -568 844 -568 800 q -537 920 -568 889 q -462 951 -507 951 q -387 920 -418 951 q -356 844 -356 889 q -387 769 -356 800 q -462 739 -418 739 m -105 769 q -120 754 -105 769 q -181 739 -136 739 q -256 769 -225 739 q -286 844 -286 800 q -256 920 -286 889 q -181 951 -225 951 q -105 920 -136 951 q -74 844 -74 889 q -105 769 -74 800 z "},"̊":{"ha":0,"x_min":-371,"x_max":-57,"o":"m -102 708 q -125 687 -102 708 q -214 665 -147 665 q -326 708 -281 665 q -371 818 -371 751 q -326 928 -371 885 q -214 971 -281 971 q -102 928 -147 971 q -57 818 -57 885 q -102 708 -57 751 m -267 761 q -256 750 -267 761 q -214 739 -246 739 q -161 761 -182 739 q -140 818 -140 783 q -161 875 -140 853 q -214 897 -182 897 q -267 875 -246 897 q -287 818 -287 853 q -267 761 -287 783 z "},"̋":{"ha":0,"x_min":-633,"x_max":-56,"o":"m -561 682 l -633 721 l -460 951 l -326 885 l -561 682 m -290 682 l -362 721 l -189 951 l -56 885 l -290 682 z "},"̌":{"ha":0,"x_min":-556,"x_max":-56,"o":"m -306 689 l -556 893 l -474 981 l -306 836 l -136 982 l -56 893 l -306 689 z "},"̒":{"ha":0,"x_min":-728,"x_max":-562,"o":"m -568 965 l -568 917 q -637 897 -611 917 q -662 851 -662 881 q -636 860 -656 860 q -583 838 -604 860 q -562 783 -562 815 q -585 728 -562 750 q -640 706 -608 706 q -703 738 -678 706 q -728 819 -728 769 q -685 924 -728 885 q -568 965 -642 964 z "},"̦":{"ha":0,"x_min":-228,"x_max":-64,"o":"m -214 -290 l -214 -243 q -146 -225 -171 -243 q -128 -183 -131 -212 q -147 -189 -133 -189 q -206 -168 -183 -189 q -228 -117 -228 -147 q -206 -63 -228 -85 q -154 -42 -185 -42 q -88 -68 -112 -42 q -64 -137 -64 -94 q -214 -290 -64 -287 z "},"̧":{"ha":0,"x_min":-324,"x_max":-69,"o":"m -199 -300 q -285 -274 -251 -300 q -324 -197 -318 -247 l -247 -197 q -232 -226 -246 -215 q -200 -236 -218 -236 q -150 -178 -150 -236 q -199 -122 -150 -122 q -243 -144 -228 -122 l -311 -144 l -311 0 l -232 0 l -232 -82 q -175 -67 -214 -67 q -100 -95 -131 -67 q -69 -176 -69 -124 q -103 -265 -69 -231 q -199 -300 -136 -300 z "},"̨":{"ha":0,"x_min":-342,"x_max":-56,"o":"m -168 -294 q -294 -253 -246 -294 q -342 -153 -342 -212 q -232 0 -342 -64 l -81 0 q -175 -40 -146 -10 q -204 -107 -204 -69 q -182 -160 -204 -139 q -126 -182 -160 -182 q -56 -165 -90 -182 l -56 -274 q -168 -294 -110 -294 z "},"Δ":{"ha":826,"x_min":21,"x_max":806,"o":"m 21 0 l 357 972 l 469 972 l 806 0 l 21 0 m 242 143 l 585 143 l 414 707 l 242 143 z "},"Ω":{"ha":967,"x_min":49,"x_max":918,"o":"m 74 0 l 74 143 l 303 143 l 303 168 q 116 319 183 215 q 49 554 49 422 q 168 861 49 733 q 483 989 288 989 q 799 861 679 989 q 918 554 918 733 q 851 318 918 422 q 664 167 783 214 l 664 143 l 893 143 l 893 0 l 539 0 l 539 251 q 704 360 650 276 q 758 561 758 444 q 686 763 758 681 q 483 846 614 846 q 281 763 353 846 q 208 561 208 681 q 263 360 208 444 q 428 251 317 276 l 428 0 l 74 0 z "},"μ":{"ha":786,"x_min":97,"x_max":689,"o":"m 538 647 l 689 647 l 689 0 l 538 0 l 538 90 q 338 -17 478 -17 q 249 -4 288 -17 l 249 -292 l 97 -292 l 97 647 l 249 647 l 249 278 q 279 154 249 196 q 381 113 310 113 q 500 159 463 113 q 538 282 538 206 l 538 647 z "},"π":{"ha":911,"x_min":97,"x_max":814,"o":"m 194 0 l 194 513 l 97 513 l 97 647 l 814 647 l 814 513 l 717 513 l 717 0 l 565 0 l 565 513 l 346 513 l 346 0 l 194 0 z "},"Ё":{"ha":756,"x_min":104,"x_max":665,"o":"m 301 1056 q 285 1040 301 1056 q 225 1025 269 1025 q 150 1056 181 1025 q 119 1131 119 1086 q 150 1206 119 1175 q 225 1238 181 1238 q 301 1206 269 1238 q 332 1131 332 1175 q 301 1056 332 1086 m 557 1025 q 483 1056 514 1025 q 451 1131 451 1086 q 482 1206 451 1175 q 557 1238 513 1238 q 633 1206 601 1238 q 664 1131 664 1175 q 633 1056 664 1086 q 557 1025 601 1025 m 104 0 l 104 972 l 665 972 l 665 829 l 264 829 l 264 554 l 665 554 l 665 411 l 264 411 l 264 143 l 665 143 l 665 0 l 104 0 z "},"Ђ":{"ha":1000,"x_min":7,"x_max":951,"o":"m 632 681 q 859 590 767 681 q 951 346 951 499 q 863 74 951 163 q 610 -14 774 -14 q 549 -8 576 -14 l 549 131 q 592 126 578 126 q 739 178 686 126 q 792 336 792 231 q 739 490 792 442 q 600 538 686 538 q 449 496 510 538 l 449 0 l 289 0 l 289 822 l 7 822 l 7 972 l 732 972 l 732 822 l 449 822 l 449 636 q 632 681 524 681 z "},"Ѓ":{"ha":672,"x_min":104,"x_max":665,"o":"m 285 1015 l 231 1118 l 518 1246 l 571 1144 l 285 1015 m 104 972 l 665 972 l 665 822 l 264 822 l 264 0 l 104 0 l 104 972 z "},"Є":{"ha":1010,"x_min":49,"x_max":967,"o":"m 532 119 q 708 173 638 119 q 793 313 779 226 l 967 313 q 827 69 944 163 q 532 -24 710 -24 q 182 116 315 -24 q 49 486 49 256 q 182 856 49 717 q 532 996 315 996 q 823 906 704 996 q 967 663 942 815 l 792 663 q 707 800 778 747 q 532 853 636 853 q 323 774 406 853 q 221 558 240 696 l 657 558 l 657 414 l 221 414 q 323 198 240 276 q 532 119 406 119 z "},"Ѕ":{"ha":767,"x_min":42,"x_max":718,"o":"m 396 -24 q 134 65 226 -24 q 42 318 42 154 l 201 318 q 253 169 201 224 q 394 115 304 115 q 516 151 474 115 q 558 251 558 186 q 527 340 558 307 q 414 407 496 374 l 256 471 q 69 729 69 543 q 156 922 69 847 q 381 996 243 996 q 613 913 525 996 q 701 692 701 829 l 542 692 q 499 816 542 772 q 375 860 456 860 q 269 827 307 860 q 231 739 231 794 q 268 653 231 689 q 392 582 306 617 l 535 524 q 718 256 718 449 q 629 53 718 131 q 396 -24 540 -24 z "},"І":{"ha":368,"x_min":104,"x_max":264,"o":"m 104 0 l 104 972 l 264 972 l 264 0 l 104 0 z "},"Ї":{"ha":368,"x_min":-22,"x_max":392,"o":"m 144 1059 q 131 1045 144 1059 q 75 1032 117 1032 q 6 1059 33 1032 q -22 1129 -22 1086 q 6 1199 -22 1172 q 75 1226 33 1226 q 144 1199 117 1226 q 172 1129 172 1172 q 144 1059 172 1086 m 364 1059 q 350 1045 364 1059 q 294 1032 336 1032 q 225 1059 253 1032 q 197 1129 197 1086 q 225 1199 197 1172 q 294 1226 253 1226 q 364 1199 336 1226 q 392 1129 392 1172 q 364 1059 392 1086 m 104 0 l 104 972 l 264 972 l 264 0 l 104 0 z "},"Ј":{"ha":744,"x_min":28,"x_max":661,"o":"m 343 -24 q 111 69 194 -24 q 28 317 28 163 l 188 317 q 227 173 188 226 q 343 119 267 119 q 460 173 419 119 q 501 315 501 226 l 501 972 l 661 972 l 661 315 q 577 69 661 161 q 343 -24 493 -24 z "},"Љ":{"ha":1364,"x_min":28,"x_max":1322,"o":"m 1038 564 q 1243 482 1164 564 q 1322 282 1322 400 q 1243 82 1322 164 q 1038 0 1164 0 l 669 0 l 669 832 l 358 832 l 358 379 q 287 84 358 179 q 86 -11 215 -11 l 28 -11 l 28 139 l 61 139 q 164 194 129 139 q 199 383 199 249 l 199 972 l 829 972 l 829 564 l 1038 564 m 1038 142 q 1128 183 1093 142 q 1163 282 1163 224 q 1128 381 1163 340 q 1038 422 1093 422 l 829 422 l 829 142 l 1038 142 z "},"Њ":{"ha":1360,"x_min":104,"x_max":1318,"o":"m 1033 564 q 1239 482 1160 564 q 1318 282 1318 400 q 1239 82 1318 164 q 1033 0 1160 0 l 665 0 l 665 411 l 264 411 l 264 0 l 104 0 l 104 972 l 264 972 l 264 554 l 665 554 l 665 972 l 825 972 l 825 564 l 1033 564 m 1033 142 q 1124 183 1089 142 q 1158 282 1158 224 q 1124 381 1158 340 q 1033 422 1089 422 l 825 422 l 825 142 l 1033 142 z "},"Ћ":{"ha":1029,"x_min":7,"x_max":939,"o":"m 647 681 q 860 594 781 681 q 939 382 939 508 l 939 0 l 779 0 l 779 340 q 733 489 779 440 q 603 538 686 538 q 549 536 568 538 q 501 524 531 535 q 449 494 472 514 l 449 0 l 289 0 l 289 822 l 7 822 l 7 972 l 732 972 l 732 822 l 449 822 l 449 636 q 647 681 526 681 z "},"Ќ":{"ha":844,"x_min":104,"x_max":831,"o":"m 590 1144 l 304 1015 l 250 1118 l 538 1246 l 590 1144 m 415 496 l 831 0 l 631 0 l 264 463 l 264 0 l 104 0 l 104 972 l 264 972 l 264 565 l 292 565 q 375 619 343 565 l 519 840 q 607 947 568 915 q 704 979 646 979 l 786 979 l 786 835 l 740 835 q 692 819 714 835 q 642 760 671 804 l 500 539 q 426 496 471 496 l 415 496 z "},"Ў":{"ha":779,"x_min":-21,"x_max":807,"o":"m 571 1074 q 538 1045 571 1074 q 406 1017 504 1017 q 240 1074 307 1017 q 167 1214 174 1131 l 290 1214 q 406 1124 303 1124 q 521 1214 508 1124 l 644 1214 q 571 1074 638 1131 m 632 972 l 807 972 l 325 0 l 150 0 l 343 390 l -21 972 l 164 972 l 425 554 l 632 972 z "},"Џ":{"ha":908,"x_min":104,"x_max":804,"o":"m 804 972 l 804 0 l 533 0 l 533 -167 l 374 -167 l 374 0 l 104 0 l 104 972 l 264 972 l 264 143 l 644 143 l 644 972 l 804 972 z "},"А":{"ha":838,"x_min":21,"x_max":817,"o":"m 643 0 l 606 124 l 232 124 l 194 0 l 21 0 l 349 972 l 489 972 l 817 0 l 643 0 m 274 267 l 563 267 l 418 749 l 274 267 z "},"Б":{"ha":799,"x_min":104,"x_max":757,"o":"m 104 0 l 104 972 l 672 972 l 672 829 l 264 829 l 264 564 l 472 564 q 678 482 599 564 q 757 282 757 400 q 678 82 757 164 q 472 0 599 0 l 104 0 m 264 142 l 472 142 q 563 183 528 142 q 597 282 597 224 q 563 381 597 340 q 472 422 528 422 l 264 422 l 264 142 z "},"В":{"ha":813,"x_min":104,"x_max":757,"o":"m 557 500 q 699 431 642 492 q 757 271 757 371 q 674 72 757 144 q 447 0 592 0 l 104 0 l 104 972 l 429 972 q 658 905 575 972 q 742 719 742 838 q 557 500 742 536 m 422 832 l 264 832 l 264 565 l 422 565 q 540 601 497 565 q 582 699 582 636 q 540 797 582 763 q 422 832 499 832 m 444 140 q 557 179 517 140 q 597 288 597 218 q 556 387 597 349 q 446 425 514 425 l 264 425 l 264 140 l 444 140 z "},"Г":{"ha":672,"x_min":104,"x_max":665,"o":"m 104 972 l 665 972 l 665 822 l 264 822 l 264 0 l 104 0 l 104 972 z "},"Д":{"ha":908,"x_min":28,"x_max":867,"o":"m 792 143 l 867 143 l 867 -167 l 715 -167 l 715 0 l 188 0 l 188 -167 l 28 -167 l 28 143 l 82 143 q 153 197 129 143 q 178 383 178 250 l 178 972 l 792 972 l 792 143 m 289 143 l 631 143 l 631 829 l 342 829 l 342 386 q 289 143 342 238 z "},"Е":{"ha":756,"x_min":104,"x_max":665,"o":"m 104 0 l 104 972 l 665 972 l 665 829 l 264 829 l 264 554 l 665 554 l 665 411 l 264 411 l 264 143 l 665 143 l 665 0 l 104 0 z "},"Ж":{"ha":1321,"x_min":14,"x_max":1307,"o":"m 892 496 l 1307 0 l 1107 0 l 740 463 l 740 0 l 581 0 l 581 463 l 214 0 l 14 0 l 429 496 l 418 496 q 344 539 374 496 l 203 760 q 152 819 174 804 q 104 835 131 835 l 58 835 l 58 979 l 140 979 q 238 947 199 979 q 325 840 276 915 l 469 619 q 553 565 501 565 l 581 565 l 581 972 l 740 972 l 740 565 l 768 565 q 851 619 819 565 l 996 840 q 1083 947 1044 915 q 1181 979 1122 979 l 1263 979 l 1263 835 l 1217 835 q 1169 819 1190 835 q 1118 760 1147 804 l 976 539 q 903 496 947 496 l 892 496 z "},"З":{"ha":794,"x_min":56,"x_max":732,"o":"m 215 311 q 267 170 215 221 q 404 119 318 119 q 528 165 483 119 q 572 278 572 211 q 532 388 572 350 q 397 426 492 426 l 325 426 l 325 568 l 399 568 q 519 608 482 568 q 556 708 556 649 q 513 811 556 769 q 399 853 469 853 q 272 808 322 853 q 222 685 222 764 l 63 685 q 155 909 63 822 q 393 996 247 996 q 623 924 531 996 q 715 722 715 853 q 672 582 715 640 q 561 506 628 524 q 683 432 635 492 q 732 279 732 372 q 643 60 732 143 q 407 -24 554 -24 q 153 65 251 -24 q 56 311 56 154 l 215 311 z "},"И":{"ha":928,"x_min":104,"x_max":824,"o":"m 664 672 l 264 67 l 264 0 l 104 0 l 104 972 l 264 972 l 264 300 l 664 906 l 664 972 l 824 972 l 824 0 l 664 0 l 664 672 z "},"Й":{"ha":928,"x_min":104,"x_max":824,"o":"m 642 1035 q 607 1012 642 1035 q 465 989 572 989 q 288 1035 358 989 q 213 1158 218 1081 l 336 1158 q 465 1089 351 1089 q 594 1158 579 1089 l 718 1158 q 642 1035 713 1081 m 664 672 l 264 67 l 264 0 l 104 0 l 104 972 l 264 972 l 264 300 l 664 906 l 664 972 l 824 972 l 824 0 l 664 0 l 664 672 z "},"К":{"ha":844,"x_min":104,"x_max":831,"o":"m 415 496 l 831 0 l 631 0 l 264 463 l 264 0 l 104 0 l 104 972 l 264 972 l 264 565 l 292 565 q 375 619 343 565 l 519 840 q 607 947 568 915 q 704 979 646 979 l 786 979 l 786 835 l 740 835 q 692 819 714 835 q 642 760 671 804 l 500 539 q 426 496 471 496 l 415 496 z "},"Л":{"ha":933,"x_min":28,"x_max":829,"o":"m 28 139 l 61 139 q 164 194 129 139 q 199 383 199 249 l 199 972 l 829 972 l 829 0 l 669 0 l 669 832 l 358 832 l 358 379 q 287 84 358 179 q 86 -11 215 -11 l 28 -11 l 28 139 z "},"М":{"ha":1135,"x_min":104,"x_max":1031,"o":"m 104 0 l 104 972 l 257 972 l 568 228 l 878 972 l 1031 972 l 1031 0 l 878 0 l 878 643 l 628 0 l 507 0 l 257 650 l 257 0 l 104 0 z "},"Н":{"ha":929,"x_min":104,"x_max":825,"o":"m 104 0 l 104 972 l 264 972 l 264 554 l 665 554 l 665 972 l 825 972 l 825 0 l 665 0 l 665 411 l 264 411 l 264 0 l 104 0 z "},"О":{"ha":1103,"x_min":49,"x_max":1054,"o":"m 917 124 q 849 50 917 124 q 551 -24 781 -24 q 185 124 322 -24 q 49 486 49 271 q 185 849 49 701 q 551 996 322 996 q 917 849 781 996 q 1054 486 1054 701 q 917 124 1054 271 m 305 224 q 350 172 305 224 q 551 119 394 119 q 798 224 708 119 q 886 486 888 329 q 798 748 888 643 q 551 853 708 853 q 305 748 394 853 q 217 486 215 643 q 305 224 215 329 z "},"П":{"ha":928,"x_min":104,"x_max":824,"o":"m 264 829 l 264 0 l 104 0 l 104 972 l 824 972 l 824 0 l 664 0 l 664 829 l 264 829 z "},"Р":{"ha":810,"x_min":104,"x_max":796,"o":"m 463 972 q 702 876 608 972 q 796 632 796 781 q 702 388 796 483 q 463 292 608 292 l 264 292 l 264 0 l 104 0 l 104 972 l 463 972 m 453 435 q 584 491 532 435 q 636 632 636 547 q 584 773 636 717 q 453 829 532 829 l 264 829 l 264 435 l 453 435 z "},"С":{"ha":1068,"x_min":49,"x_max":1025,"o":"m 554 -24 q 185 118 321 -24 q 49 486 49 260 q 185 854 49 713 q 554 996 321 996 q 876 897 750 996 q 1025 639 1003 797 l 850 639 q 751 796 826 739 q 556 853 675 853 q 306 753 396 853 q 217 486 217 654 q 306 219 217 318 q 556 119 396 119 q 751 176 675 119 q 850 333 826 233 l 1025 333 q 876 76 1003 175 q 554 -24 750 -24 z "},"Т":{"ha":739,"x_min":7,"x_max":732,"o":"m 289 0 l 289 822 l 7 822 l 7 972 l 732 972 l 732 822 l 449 822 l 449 0 l 289 0 z "},"У":{"ha":779,"x_min":-21,"x_max":807,"o":"m 632 972 l 807 972 l 325 0 l 150 0 l 343 390 l -21 972 l 164 972 l 425 554 l 632 972 z "},"Ф":{"ha":979,"x_min":14,"x_max":965,"o":"m 622 846 q 870 742 775 846 q 965 486 965 638 q 870 231 965 335 q 622 126 775 126 l 569 126 l 569 0 l 410 0 l 410 126 l 357 126 q 109 231 204 126 q 14 486 14 335 q 109 742 14 638 q 357 846 204 846 l 410 846 l 410 972 l 569 972 l 569 846 l 622 846 m 224 640 q 199 609 224 640 q 174 486 174 578 q 224 332 174 394 q 357 269 275 269 l 410 269 l 410 703 l 357 703 q 224 640 275 703 m 622 269 q 755 332 704 269 q 806 486 806 394 q 755 640 806 578 q 622 703 704 703 l 569 703 l 569 269 l 622 269 z "},"Х":{"ha":856,"x_min":21,"x_max":835,"o":"m 21 0 l 338 486 l 21 972 l 201 972 l 428 617 l 654 972 l 835 972 l 518 486 l 835 0 l 654 0 l 428 354 l 201 0 l 21 0 z "},"Ц":{"ha":921,"x_min":104,"x_max":879,"o":"m 804 143 l 879 143 l 879 -167 l 728 -167 l 728 0 l 104 0 l 104 972 l 264 972 l 264 143 l 644 143 l 644 972 l 804 972 l 804 143 z "},"Ч":{"ha":810,"x_min":56,"x_max":706,"o":"m 546 0 l 546 336 q 347 292 468 292 q 135 378 214 292 q 56 590 56 464 l 56 972 l 215 972 l 215 632 q 262 483 215 532 q 392 435 308 435 q 445 436 426 435 q 493 448 464 438 q 546 478 522 458 l 546 972 l 706 972 l 706 0 l 546 0 z "},"Ш":{"ha":1263,"x_min":104,"x_max":1158,"o":"m 104 0 l 104 972 l 264 972 l 264 143 l 551 143 l 551 972 l 711 972 l 711 143 l 999 143 l 999 972 l 1158 972 l 1158 0 l 104 0 z "},"Щ":{"ha":1275,"x_min":104,"x_max":1233,"o":"m 1158 143 l 1233 143 l 1233 -167 l 1082 -167 l 1082 0 l 104 0 l 104 972 l 264 972 l 264 143 l 551 143 l 551 972 l 711 972 l 711 143 l 999 143 l 999 972 l 1158 972 l 1158 143 z "},"Ъ":{"ha":958,"x_min":7,"x_max":917,"o":"m 632 564 q 838 482 758 564 q 917 282 917 400 q 838 82 917 164 q 632 0 758 0 l 264 0 l 264 829 l 7 829 l 7 972 l 424 972 l 424 564 l 632 564 m 632 142 q 722 183 688 142 q 757 282 757 224 q 722 381 757 340 q 632 422 688 422 l 424 422 l 424 142 l 632 142 z "},"Ы":{"ha":1096,"x_min":104,"x_max":992,"o":"m 104 0 l 104 972 l 264 972 l 264 564 l 472 564 q 678 482 599 564 q 757 282 757 400 q 678 82 757 164 q 472 0 599 0 l 104 0 m 832 0 l 832 972 l 992 972 l 992 0 l 832 0 m 264 142 l 472 142 q 563 183 528 142 q 597 282 597 224 q 563 381 597 340 q 472 422 528 422 l 264 422 l 264 142 z "},"Ь":{"ha":799,"x_min":104,"x_max":757,"o":"m 104 0 l 104 972 l 264 972 l 264 564 l 472 564 q 678 482 599 564 q 757 282 757 400 q 678 82 757 164 q 472 0 599 0 l 104 0 m 264 142 l 472 142 q 563 183 528 142 q 597 282 597 224 q 563 381 597 340 q 472 422 528 422 l 264 422 l 264 142 z "},"Э":{"ha":1010,"x_min":43,"x_max":961,"o":"m 478 996 q 828 856 694 996 q 961 486 961 717 q 828 116 961 256 q 478 -24 694 -24 q 183 69 300 -24 q 43 313 65 163 l 217 313 q 301 173 231 226 q 478 119 372 119 q 687 198 604 119 q 789 414 769 276 l 353 414 l 353 558 l 789 558 q 687 774 769 696 q 478 853 604 853 q 303 800 374 853 q 218 663 232 747 l 43 663 q 187 906 68 815 q 478 996 306 996 z "},"Ю":{"ha":1443,"x_min":104,"x_max":1394,"o":"m 892 996 q 1258 849 1121 996 q 1394 486 1394 701 q 1258 124 1394 271 q 892 -24 1121 -24 q 550 99 683 -24 q 393 411 417 222 l 264 411 l 264 0 l 104 0 l 104 972 l 264 972 l 264 554 l 393 554 q 549 871 415 746 q 892 996 682 996 m 645 224 q 690 172 645 224 q 892 119 735 119 q 1138 224 1049 119 q 1226 486 1228 329 q 1138 748 1228 643 q 892 853 1049 853 q 645 748 735 853 q 557 486 556 643 q 645 224 556 329 z "},"Я":{"ha":844,"x_min":49,"x_max":740,"o":"m 382 972 l 740 972 l 740 0 l 581 0 l 581 292 l 424 292 l 246 0 l 64 0 l 256 314 q 105 435 161 350 q 49 632 49 519 q 142 876 49 781 q 382 972 236 972 m 392 435 l 581 435 l 581 829 l 392 829 q 260 773 313 829 q 208 632 208 717 q 260 491 208 547 q 392 435 313 435 z "},"а":{"ha":822,"x_min":49,"x_max":725,"o":"m 367 -17 q 132 79 215 -17 q 49 324 49 175 q 136 567 49 471 q 371 664 224 664 q 490 636 436 664 q 574 560 544 608 l 574 647 l 725 647 l 725 0 l 574 0 l 574 88 q 487 12 546 40 q 367 -17 428 -17 m 389 118 q 531 176 482 118 q 581 324 581 235 q 531 471 581 413 q 389 529 482 529 q 251 472 301 529 q 200 324 200 414 q 251 176 200 233 q 389 118 301 118 z "},"б":{"ha":801,"x_min":63,"x_max":753,"o":"m 421 -18 q 153 109 243 -18 q 63 442 63 236 q 183 841 63 710 q 554 972 304 972 l 686 972 l 686 826 l 514 826 q 291 749 364 826 q 206 510 218 672 q 299 624 231 583 q 442 664 367 664 q 670 566 588 664 q 753 324 753 468 q 659 82 753 182 q 421 -18 565 -18 m 413 117 q 551 176 500 117 q 601 322 601 235 q 551 469 601 410 q 413 528 500 528 q 271 471 321 528 q 221 322 221 414 q 271 174 221 231 q 413 117 321 117 z "},"в":{"ha":676,"x_min":97,"x_max":621,"o":"m 97 647 l 394 647 q 505 631 460 647 q 571 585 550 614 q 600 531 592 557 q 608 476 608 506 q 564 379 608 419 q 458 335 519 339 q 573 291 525 332 q 621 179 621 250 q 610 124 621 151 q 576 66 600 96 q 503 18 553 36 q 385 0 454 0 l 97 0 l 97 647 m 382 382 q 436 405 415 382 q 457 461 457 428 q 436 519 457 496 q 382 542 415 542 l 244 542 l 244 382 l 382 382 m 244 276 l 244 106 l 388 106 q 446 131 422 106 q 469 190 469 156 q 446 251 469 225 q 388 276 422 276 l 244 276 z "},"г":{"ha":522,"x_min":97,"x_max":494,"o":"m 494 647 l 494 507 l 249 507 l 249 0 l 97 0 l 97 647 l 494 647 z "},"д":{"ha":796,"x_min":28,"x_max":747,"o":"m 672 143 l 747 143 l 747 -167 l 596 -167 l 596 0 l 188 0 l 188 -167 l 28 -167 l 28 143 l 94 143 q 149 288 149 178 l 149 647 l 672 647 l 672 143 m 256 125 l 521 125 l 521 522 l 300 522 l 300 294 q 256 125 300 196 z "},"е":{"ha":732,"x_min":49,"x_max":683,"o":"m 683 357 q 679 274 683 332 l 199 274 q 249 156 201 197 q 379 115 296 115 q 524 189 486 115 l 676 189 q 578 41 661 99 q 379 -17 496 -17 q 138 75 226 -17 q 49 324 49 167 q 137 572 49 479 q 374 664 225 664 q 598 578 513 664 q 683 357 683 493 m 199 389 l 535 389 q 491 504 533 464 q 371 544 449 544 q 246 501 292 544 q 199 389 200 458 z "},"ж":{"ha":1101,"x_min":49,"x_max":1053,"o":"m 1053 0 l 867 0 l 626 296 l 626 0 l 475 0 l 475 296 l 235 0 l 49 0 l 333 342 l 324 342 q 272 353 293 342 q 224 406 251 365 l 171 479 q 99 518 143 518 l 76 518 l 76 654 l 128 654 q 209 638 179 654 q 274 575 239 622 l 388 419 q 461 376 419 376 l 475 376 l 475 647 l 626 647 l 626 376 l 640 376 q 714 419 682 376 l 828 575 q 892 638 863 622 q 974 654 922 654 l 1025 654 l 1025 518 l 1003 518 q 931 479 958 518 l 878 406 q 829 353 850 365 q 778 342 808 342 l 768 342 l 1053 0 z "},"з":{"ha":665,"x_min":56,"x_max":610,"o":"m 206 200 q 241 132 206 157 q 343 107 276 107 q 463 193 463 107 q 435 248 463 226 q 358 269 408 269 l 263 269 l 263 381 l 350 381 q 420 402 393 381 q 447 463 447 424 q 416 521 447 497 q 335 544 385 544 q 244 519 274 544 q 215 451 215 493 l 65 451 q 139 606 65 547 q 333 664 213 664 q 523 614 451 664 q 594 485 594 564 q 556 381 594 419 q 451 335 518 343 q 565 285 521 326 q 610 175 610 244 q 530 34 610 85 q 332 -17 450 -17 q 129 42 203 -17 q 56 200 56 101 l 206 200 z "},"и":{"ha":785,"x_min":97,"x_max":688,"o":"m 536 417 l 249 54 l 249 0 l 97 0 l 97 647 l 249 647 l 249 224 l 536 589 l 536 647 l 688 647 l 688 0 l 536 0 l 536 417 z "},"й":{"ha":785,"x_min":97,"x_max":688,"o":"m 565 742 q 531 715 565 742 q 386 688 497 688 q 208 742 275 688 q 133 892 140 797 l 261 892 q 386 797 267 797 q 511 892 506 797 l 639 892 q 565 742 632 797 m 536 417 l 249 54 l 249 0 l 97 0 l 97 647 l 249 647 l 249 224 l 536 589 l 536 647 l 688 647 l 688 0 l 536 0 l 536 417 z "},"к":{"ha":724,"x_min":97,"x_max":675,"o":"m 675 0 l 489 0 l 249 296 l 249 0 l 97 0 l 97 647 l 249 647 l 249 376 l 263 376 q 336 419 304 376 l 450 575 q 515 638 485 622 q 596 654 544 654 l 647 654 l 647 518 l 625 518 q 553 479 581 518 l 500 406 q 451 353 472 365 q 400 342 431 342 l 390 342 l 675 0 z "},"л":{"ha":772,"x_min":42,"x_max":675,"o":"m 42 136 l 67 136 q 168 276 168 136 l 168 647 l 675 647 l 675 0 l 524 0 l 524 507 l 319 507 l 319 283 q 261 71 319 149 q 97 -7 203 -7 l 42 -7 l 42 136 z "},"м":{"ha":1003,"x_min":97,"x_max":906,"o":"m 97 0 l 97 647 l 324 647 l 501 204 l 679 647 l 906 647 l 906 0 l 761 0 l 761 499 l 553 0 l 450 0 l 242 499 l 242 0 l 97 0 z "},"н":{"ha":793,"x_min":97,"x_max":696,"o":"m 97 0 l 97 647 l 249 647 l 249 392 l 544 392 l 544 647 l 696 647 l 696 0 l 544 0 l 544 265 l 249 265 l 249 0 l 97 0 z "},"о":{"ha":781,"x_min":49,"x_max":732,"o":"m 640 80 q 593 32 640 80 q 390 -17 547 -17 q 141 80 233 -17 q 49 324 49 176 q 141 567 49 471 q 390 664 233 664 q 640 567 547 664 q 732 324 732 471 q 640 80 732 176 m 251 175 q 276 147 251 175 q 390 118 301 118 q 530 175 479 118 q 581 324 581 232 q 530 472 581 415 q 390 529 479 529 q 251 472 301 529 q 200 324 200 415 q 251 175 200 232 z "},"п":{"ha":779,"x_min":97,"x_max":682,"o":"m 682 0 l 531 0 l 531 521 l 249 521 l 249 0 l 97 0 l 97 647 l 682 647 l 682 0 z "},"р":{"ha":822,"x_min":97,"x_max":774,"o":"m 465 664 q 689 570 604 664 q 774 324 774 476 q 685 78 774 174 q 456 -17 596 -17 q 335 12 392 -17 q 249 88 278 40 l 249 -292 l 97 -292 l 97 647 l 249 647 l 249 560 q 338 635 278 607 q 465 664 397 664 m 433 118 q 569 176 517 118 q 622 324 622 233 q 569 472 622 414 q 433 529 517 529 q 294 472 347 529 q 242 324 242 415 q 294 175 242 232 q 433 118 347 118 z "},"с":{"ha":726,"x_min":49,"x_max":678,"o":"m 371 -17 q 135 77 222 -17 q 49 324 49 171 q 135 570 49 476 q 371 664 222 664 q 585 597 504 664 q 678 417 667 529 l 526 417 q 371 529 501 529 q 245 476 290 529 q 200 324 200 422 q 245 172 200 225 q 371 118 290 118 q 526 224 500 118 l 678 224 q 585 49 667 114 q 371 -17 504 -17 z "},"т":{"ha":607,"x_min":42,"x_max":565,"o":"m 565 647 l 565 507 l 378 507 l 378 0 l 226 0 l 226 507 l 42 507 l 42 647 l 565 647 z "},"у":{"ha":786,"x_min":90,"x_max":689,"o":"m 538 647 l 689 647 l 689 -3 q 604 -233 689 -151 q 385 -308 522 -308 q 163 -242 242 -308 q 90 -74 93 -181 l 243 -74 q 280 -156 249 -129 q 382 -183 311 -183 q 496 -137 454 -183 q 538 8 538 -90 l 538 90 q 329 -17 475 -17 q 152 58 214 -17 q 90 253 90 132 l 90 647 l 242 647 l 242 285 q 382 117 242 117 q 498 171 458 117 q 538 313 538 225 l 538 647 z "},"ф":{"ha":886,"x_min":49,"x_max":838,"o":"m 838 324 q 747 90 838 190 q 519 -15 657 -10 l 519 -292 l 367 -292 l 367 -15 q 139 90 229 -10 q 49 324 49 190 q 139 556 49 456 q 367 663 229 657 l 367 972 l 519 972 l 519 663 q 747 556 657 657 q 838 324 838 456 m 200 324 q 247 175 200 238 q 376 111 294 113 l 376 536 q 247 473 294 535 q 200 324 200 411 m 510 111 q 639 175 592 113 q 686 324 686 238 q 639 473 686 411 q 510 536 592 535 l 510 111 z "},"х":{"ha":681,"x_min":14,"x_max":667,"o":"m 14 0 l 253 326 l 18 647 l 206 647 l 340 438 l 475 647 l 663 647 l 428 326 l 667 0 l 479 0 l 340 217 l 201 0 l 14 0 z "},"ц":{"ha":799,"x_min":97,"x_max":750,"o":"m 675 143 l 750 143 l 750 -167 l 599 -167 l 599 0 l 97 0 l 97 647 l 249 647 l 249 126 l 524 126 l 524 647 l 675 647 l 675 143 z "},"ч":{"ha":707,"x_min":56,"x_max":610,"o":"m 458 0 l 458 225 q 297 186 390 186 q 56 404 56 186 l 56 647 l 207 647 l 207 424 q 332 313 207 313 q 375 314 360 313 q 415 325 390 315 q 458 354 439 335 l 458 647 l 610 647 l 610 0 l 458 0 z "},"ш":{"ha":1079,"x_min":97,"x_max":982,"o":"m 615 126 l 831 126 l 831 647 l 982 647 l 982 0 l 97 0 l 97 647 l 249 647 l 249 126 l 464 126 l 464 647 l 615 647 l 615 126 z "},"щ":{"ha":1106,"x_min":97,"x_max":1057,"o":"m 982 143 l 1057 143 l 1057 -167 l 906 -167 l 906 0 l 97 0 l 97 647 l 249 647 l 249 126 l 464 126 l 464 647 l 615 647 l 615 126 l 831 126 l 831 647 l 982 647 l 982 143 z "},"ъ":{"ha":751,"x_min":28,"x_max":717,"o":"m 474 439 q 651 376 585 439 q 717 219 717 313 q 648 65 717 129 q 474 0 579 0 l 174 0 l 174 511 l 28 511 l 28 647 l 325 647 l 325 439 l 474 439 m 456 119 q 532 147 506 119 q 558 219 558 174 q 532 292 558 265 q 456 319 506 319 l 325 319 l 325 119 l 456 119 z "},"ы":{"ha":965,"x_min":97,"x_max":868,"o":"m 97 647 l 249 647 l 249 439 l 397 439 q 574 376 508 439 q 640 219 640 313 q 572 65 640 129 q 397 0 503 0 l 97 0 l 97 647 m 717 0 l 717 647 l 868 647 l 868 0 l 717 0 m 249 319 l 249 119 l 379 119 q 456 147 429 119 q 482 219 482 174 q 456 292 482 265 q 379 319 429 319 l 249 319 z "},"ь":{"ha":675,"x_min":97,"x_max":640,"o":"m 97 647 l 249 647 l 249 439 l 397 439 q 574 376 508 439 q 640 219 640 313 q 572 65 640 129 q 397 0 503 0 l 97 0 l 97 647 m 249 319 l 249 119 l 379 119 q 456 147 429 119 q 482 219 482 174 q 456 292 482 265 q 379 319 429 319 l 249 319 z "},"э":{"ha":742,"x_min":49,"x_max":693,"o":"m 201 411 l 50 411 q 138 592 53 519 q 360 664 224 664 q 608 565 522 664 q 693 324 693 467 q 608 82 693 181 q 360 -17 522 -17 q 137 51 222 -17 q 49 222 51 119 l 200 222 q 367 118 219 118 q 539 267 528 118 l 288 267 l 288 379 l 539 379 q 491 489 533 449 q 367 529 449 529 q 201 411 221 529 z "},"ю":{"ha":1060,"x_min":97,"x_max":1011,"o":"m 669 664 q 919 567 826 664 q 1011 324 1011 471 q 919 80 1011 176 q 669 -17 826 -17 q 441 60 531 -17 q 332 261 351 138 l 249 261 l 249 0 l 97 0 l 97 647 l 249 647 l 249 388 l 333 388 q 442 587 353 510 q 669 664 532 664 m 530 175 q 555 147 530 175 q 669 118 581 118 q 809 175 758 118 q 860 324 860 232 q 809 472 860 415 q 669 529 758 529 q 530 472 581 529 q 479 324 479 415 q 530 175 479 232 z "},"я":{"ha":738,"x_min":63,"x_max":640,"o":"m 67 0 l 207 215 q 102 296 142 238 q 63 424 63 354 q 126 583 63 518 q 292 647 190 647 l 640 647 l 640 0 l 492 0 l 492 199 l 361 199 l 242 0 l 67 0 m 325 324 l 492 324 l 492 525 l 325 525 q 247 495 276 525 q 217 424 217 465 q 247 353 217 382 q 325 324 276 324 z "},"ё":{"ha":732,"x_min":49,"x_max":683,"o":"m 232 739 q 158 769 189 739 q 126 844 126 800 q 157 920 126 889 q 232 951 188 951 q 308 920 276 951 q 339 844 339 889 q 308 769 339 800 q 232 739 276 739 m 590 769 q 574 754 590 769 q 514 739 558 739 q 439 769 469 739 q 408 844 408 800 q 439 920 408 889 q 514 951 469 951 q 590 920 558 951 q 621 844 621 889 q 590 769 621 800 m 683 357 q 679 274 683 332 l 199 274 q 249 156 201 197 q 379 115 296 115 q 524 189 486 115 l 676 189 q 578 41 661 99 q 379 -17 496 -17 q 138 75 226 -17 q 49 324 49 167 q 137 572 49 479 q 374 664 225 664 q 598 578 513 664 q 683 357 683 493 m 199 389 l 535 389 q 491 504 533 464 q 371 544 449 544 q 246 501 292 544 q 199 389 200 458 z "},"ђ":{"ha":786,"x_min":46,"x_max":696,"o":"m 460 664 q 696 407 696 664 l 696 -135 q 650 -258 696 -215 q 518 -300 604 -300 q 429 -286 456 -300 l 429 -151 q 486 -157 456 -157 q 544 -90 544 -157 l 544 338 q 513 489 544 443 q 403 535 481 535 q 289 488 329 535 q 249 356 249 442 l 249 0 l 97 0 l 97 751 l 46 751 l 46 872 l 97 872 l 97 972 l 249 972 l 249 872 l 501 872 l 501 751 l 249 751 l 249 557 q 460 664 311 664 z "},"ѓ":{"ha":522,"x_min":97,"x_max":558,"o":"m 167 697 l 118 814 l 510 963 l 558 850 l 167 697 m 494 647 l 494 507 l 249 507 l 249 0 l 97 0 l 97 647 l 494 647 z "},"є":{"ha":742,"x_min":49,"x_max":693,"o":"m 540 411 q 375 529 521 529 q 251 489 293 529 q 203 379 208 449 l 454 379 l 454 267 l 203 267 q 375 118 214 118 q 542 222 522 118 l 693 222 q 605 51 690 119 q 382 -17 519 -17 q 134 82 219 -17 q 49 324 49 181 q 134 565 49 467 q 382 664 219 664 q 603 592 518 664 q 692 411 689 519 l 540 411 z "},"ѕ":{"ha":635,"x_min":49,"x_max":579,"o":"m 324 -17 q 125 46 201 -17 q 49 199 49 108 l 200 199 q 237 131 200 157 q 332 104 274 104 q 400 125 375 104 q 425 181 425 146 q 376 249 425 236 l 210 294 q 69 474 69 333 q 139 609 69 554 q 318 664 208 664 q 508 608 442 664 q 574 463 574 553 l 425 463 q 395 526 425 503 q 313 549 365 549 q 246 530 272 549 q 219 482 219 511 q 275 413 219 429 l 429 368 q 538 302 496 349 q 579 194 579 256 q 512 42 579 100 q 324 -17 444 -17 z "},"і":{"ha":346,"x_min":61,"x_max":286,"o":"m 254 773 q 238 757 254 773 q 174 740 222 740 q 93 773 125 740 q 61 853 61 806 q 93 933 61 900 q 174 965 125 965 q 254 933 222 965 q 286 853 286 900 q 254 773 286 806 m 97 0 l 97 647 l 249 647 l 249 0 l 97 0 z "},"ї":{"ha":346,"x_min":-12,"x_max":360,"o":"m 138 778 q 124 766 138 778 q 75 753 111 753 q 13 778 39 753 q -12 840 -12 804 q 13 903 -12 878 q 75 929 39 929 q 138 903 111 929 q 164 840 164 878 q 138 778 164 804 m 271 753 q 210 779 236 753 q 183 840 183 806 q 209 903 183 878 q 271 929 235 929 q 334 903 308 929 q 360 840 360 878 q 334 778 360 804 q 271 753 308 753 m 97 0 l 97 647 l 249 647 l 249 0 l 97 0 z "},"ј":{"ha":350,"x_min":-14,"x_max":290,"o":"m 258 773 q 242 757 258 773 q 178 740 226 740 q 97 773 129 740 q 65 853 65 806 q 97 933 65 900 q 178 965 129 965 q 258 933 226 965 q 290 853 290 900 q 258 773 290 806 m 75 -300 q -14 -286 13 -300 l -14 -151 q 43 -157 13 -157 q 101 -90 101 -157 l 101 647 l 253 647 l 253 -135 q 207 -258 253 -215 q 75 -300 161 -300 z "},"љ":{"ha":1103,"x_min":42,"x_max":1068,"o":"m 825 439 q 1002 376 936 439 q 1068 219 1068 313 q 999 65 1068 129 q 825 0 931 0 l 524 0 l 524 507 l 319 507 l 319 283 q 261 71 319 149 q 97 -7 203 -7 l 42 -7 l 42 136 l 67 136 q 168 276 168 136 l 168 647 l 676 647 l 676 439 l 825 439 m 807 119 q 883 147 857 119 q 910 219 910 174 q 883 292 910 265 q 807 319 857 319 l 676 319 l 676 119 l 807 119 z "},"њ":{"ha":1122,"x_min":97,"x_max":1088,"o":"m 844 439 q 1022 376 956 439 q 1088 219 1088 313 q 1019 65 1088 129 q 844 0 950 0 l 544 0 l 544 265 l 249 265 l 249 0 l 97 0 l 97 647 l 249 647 l 249 392 l 544 392 l 544 647 l 696 647 l 696 439 l 844 439 m 826 119 q 903 147 876 119 q 929 219 929 174 q 903 292 929 265 q 826 319 876 319 l 696 319 l 696 119 l 826 119 z "},"ћ":{"ha":786,"x_min":46,"x_max":696,"o":"m 460 664 q 696 407 696 664 l 696 0 l 544 0 l 544 338 q 513 489 544 443 q 403 535 481 535 q 289 488 329 535 q 249 356 249 442 l 249 0 l 97 0 l 97 751 l 46 751 l 46 872 l 97 872 l 97 972 l 249 972 l 249 872 l 501 872 l 501 751 l 249 751 l 249 557 q 460 664 311 664 z "},"ќ":{"ha":724,"x_min":97,"x_max":675,"o":"m 592 850 l 200 697 l 151 814 l 543 963 l 592 850 m 675 0 l 489 0 l 249 296 l 249 0 l 97 0 l 97 647 l 249 647 l 249 376 l 263 376 q 336 419 304 376 l 450 575 q 515 638 485 622 q 596 654 544 654 l 647 654 l 647 518 l 625 518 q 553 479 581 518 l 500 406 q 451 353 472 365 q 400 342 431 342 l 390 342 l 675 0 z "},"ў":{"ha":786,"x_min":90,"x_max":689,"o":"m 559 756 q 525 729 559 756 q 381 701 492 701 q 202 756 269 701 q 128 906 135 811 l 256 906 q 381 811 261 811 q 506 906 500 811 l 633 906 q 559 756 626 811 m 538 647 l 689 647 l 689 -3 q 604 -233 689 -151 q 385 -308 522 -308 q 163 -242 242 -308 q 90 -74 93 -181 l 243 -74 q 280 -156 249 -129 q 382 -183 311 -183 q 496 -137 454 -183 q 538 8 538 -90 l 538 90 q 329 -17 475 -17 q 152 58 214 -17 q 90 253 90 132 l 90 647 l 242 647 l 242 285 q 382 117 242 117 q 498 171 458 117 q 538 313 538 225 l 538 647 z "},"џ":{"ha":772,"x_min":97,"x_max":675,"o":"m 675 647 l 675 0 l 467 0 l 467 -126 l 315 -126 l 315 0 l 97 0 l 97 647 l 249 647 l 249 126 l 524 126 l 524 647 l 675 647 z "},"Ѣ":{"ha":983,"x_min":7,"x_max":942,"o":"m 657 564 q 863 482 783 564 q 942 282 942 400 q 863 82 942 164 q 657 0 783 0 l 289 0 l 289 822 l 7 822 l 7 972 l 732 972 l 732 822 l 449 822 l 449 564 l 657 564 m 657 142 q 747 183 713 142 q 782 282 782 224 q 747 381 782 340 q 657 422 713 422 l 449 422 l 449 142 l 657 142 z "},"ѣ":{"ha":675,"x_min":24,"x_max":640,"o":"m 397 439 q 574 376 508 439 q 640 219 640 313 q 572 65 640 129 q 397 0 503 0 l 97 0 l 97 585 l 24 585 l 24 706 l 97 706 l 97 972 l 249 972 l 249 706 l 382 706 l 382 585 l 249 585 l 249 439 l 397 439 m 379 119 q 456 147 429 119 q 482 219 482 174 q 456 292 482 265 q 379 319 429 319 l 249 319 l 249 119 l 379 119 z "},"Ѳ":{"ha":1103,"x_min":49,"x_max":1054,"o":"m 185 849 q 254 922 185 849 q 551 996 322 996 q 917 849 781 996 q 1054 486 1054 701 q 917 124 1054 271 q 551 -24 781 -24 q 185 124 322 -24 q 49 486 49 271 q 185 849 49 701 m 782 765 q 738 809 782 765 q 551 853 694 853 q 321 765 408 853 q 219 538 233 676 l 883 538 q 782 765 869 676 m 320 208 q 364 164 320 208 q 551 119 408 119 q 783 208 694 119 q 883 438 871 297 l 219 438 q 320 208 232 297 z "},"ѳ":{"ha":781,"x_min":49,"x_max":732,"o":"m 141 567 q 187 616 141 567 q 390 664 233 664 q 640 567 547 664 q 732 324 732 471 q 640 80 732 176 q 390 -17 547 -17 q 141 80 233 -17 q 49 324 49 176 q 141 567 49 471 m 515 487 q 491 508 515 487 q 390 529 467 529 q 265 487 314 529 q 204 374 217 444 l 576 374 q 515 487 564 444 m 265 160 q 290 139 265 160 q 390 118 314 118 q 515 160 467 118 q 576 274 564 203 l 204 274 q 265 160 217 203 z "},"Ѵ":{"ha":819,"x_min":0,"x_max":813,"o":"m 449 0 l 336 0 l 0 972 l 168 972 l 393 251 l 571 824 q 636 944 597 908 q 750 979 675 979 l 813 979 l 813 836 l 788 836 q 713 765 736 836 l 449 0 z "},"ѵ":{"ha":679,"x_min":0,"x_max":679,"o":"m 390 0 l 289 0 l 0 647 l 163 647 l 340 203 l 461 504 q 527 619 490 585 q 631 654 564 654 l 679 654 l 679 511 l 660 511 q 618 497 633 511 q 586 436 603 482 l 390 0 z "},"Ҋ":{"ha":940,"x_min":104,"x_max":899,"o":"m 642 1035 q 607 1012 642 1035 q 465 989 572 989 q 288 1035 358 989 q 213 1158 218 1081 l 336 1158 q 465 1089 351 1089 q 594 1158 579 1089 l 718 1158 q 642 1035 713 1081 m 824 143 l 899 143 l 899 -167 l 747 -167 l 747 0 l 664 0 l 664 672 l 264 67 l 264 0 l 104 0 l 104 972 l 264 972 l 264 300 l 664 906 l 664 972 l 824 972 l 824 143 z "},"ҋ":{"ha":811,"x_min":97,"x_max":763,"o":"m 565 742 q 531 715 565 742 q 386 688 497 688 q 208 742 275 688 q 133 892 140 797 l 261 892 q 386 797 267 797 q 511 892 506 797 l 639 892 q 565 742 632 797 m 688 143 l 763 143 l 763 -167 l 611 -167 l 611 0 l 536 0 l 536 417 l 249 54 l 249 0 l 97 0 l 97 647 l 249 647 l 249 224 l 536 589 l 536 647 l 688 647 l 688 143 z "},"Ҍ":{"ha":799,"x_min":49,"x_max":757,"o":"m 472 564 q 678 482 599 564 q 757 282 757 400 q 678 82 757 164 q 472 0 599 0 l 104 0 l 104 735 l 49 735 l 49 856 l 104 856 l 104 972 l 264 972 l 264 856 l 504 856 l 504 735 l 264 735 l 264 564 l 472 564 m 472 142 q 563 183 528 142 q 597 282 597 224 q 563 381 597 340 q 472 422 528 422 l 264 422 l 264 142 l 472 142 z "},"ҍ":{"ha":675,"x_min":24,"x_max":640,"o":"m 397 439 q 574 376 508 439 q 640 219 640 313 q 572 65 640 129 q 397 0 503 0 l 97 0 l 97 585 l 24 585 l 24 706 l 97 706 l 97 972 l 249 972 l 249 706 l 382 706 l 382 585 l 249 585 l 249 439 l 397 439 m 379 119 q 456 147 429 119 q 482 219 482 174 q 456 292 482 265 q 379 319 429 319 l 249 319 l 249 119 l 379 119 z "},"Ҏ":{"ha":810,"x_min":104,"x_max":796,"o":"m 796 632 q 654 347 796 444 l 725 278 l 654 207 l 557 304 q 463 292 514 292 l 264 292 l 264 0 l 104 0 l 104 972 l 463 972 q 702 876 608 972 q 796 632 796 781 m 264 435 l 425 435 l 358 501 l 429 572 l 543 458 q 636 632 636 511 q 584 773 636 717 q 453 829 532 829 l 264 829 l 264 435 z "},"ҏ":{"ha":822,"x_min":97,"x_max":774,"o":"m 774 324 q 696 90 774 186 l 757 29 l 686 -42 l 618 25 q 456 -17 546 -17 q 335 12 392 -17 q 249 88 278 40 l 249 -292 l 97 -292 l 97 647 l 249 647 l 249 560 q 338 635 278 607 q 465 664 397 664 q 689 570 604 664 q 774 324 774 476 m 433 118 q 510 133 475 118 l 390 253 l 461 324 l 588 199 q 622 324 622 250 q 569 472 622 414 q 433 529 517 529 q 294 472 347 529 q 242 324 242 415 q 294 175 242 232 q 433 118 347 118 z "},"Ґ":{"ha":672,"x_min":104,"x_max":665,"o":"m 506 1099 l 665 1099 l 665 822 l 264 822 l 264 0 l 104 0 l 104 972 l 506 972 l 506 1099 z "},"ґ":{"ha":522,"x_min":97,"x_max":494,"o":"m 335 774 l 494 774 l 494 507 l 249 507 l 249 0 l 97 0 l 97 647 l 335 647 l 335 774 z "},"Ғ":{"ha":672,"x_min":21,"x_max":665,"o":"m 665 822 l 264 822 l 264 581 l 476 581 l 476 460 l 264 460 l 264 0 l 104 0 l 104 460 l 21 460 l 21 581 l 104 581 l 104 972 l 665 972 l 665 822 z "},"ғ":{"ha":522,"x_min":42,"x_max":494,"o":"m 494 507 l 249 507 l 249 400 l 400 400 l 400 279 l 249 279 l 249 0 l 97 0 l 97 279 l 42 279 l 42 400 l 97 400 l 97 647 l 494 647 l 494 507 z "},"Ҕ":{"ha":844,"x_min":104,"x_max":754,"o":"m 463 597 q 675 511 596 597 q 754 299 754 425 l 754 -106 q 698 -250 754 -200 q 538 -300 642 -300 q 444 -286 476 -300 l 444 -144 q 513 -150 472 -150 q 576 -129 557 -150 q 594 -54 594 -108 l 594 257 q 548 406 594 357 q 418 454 501 454 q 365 453 383 454 q 317 441 346 451 q 264 411 288 431 l 264 0 l 104 0 l 104 972 l 665 972 l 665 822 l 264 822 l 264 553 q 463 597 342 597 z "},"ҕ":{"ha":729,"x_min":97,"x_max":701,"o":"m 432 388 q 625 307 549 388 q 701 88 701 226 q 619 -146 701 -67 q 382 -225 538 -225 q 321 -219 349 -225 l 321 -83 q 364 -87 350 -87 q 550 85 550 -87 q 508 210 550 167 q 400 253 465 253 q 249 219 321 253 l 249 0 l 97 0 l 97 647 l 494 647 l 494 507 l 249 507 l 249 358 q 432 388 333 388 z "},"Җ":{"ha":1347,"x_min":14,"x_max":1333,"o":"m 1188 143 l 1333 143 l 1333 -167 l 1182 -167 l 1182 0 l 1107 0 l 740 463 l 740 0 l 581 0 l 581 463 l 214 0 l 14 0 l 429 496 l 418 496 q 344 539 374 496 l 203 760 q 152 819 174 804 q 104 835 131 835 l 58 835 l 58 979 l 140 979 q 238 947 199 979 q 325 840 276 915 l 469 619 q 553 565 501 565 l 581 565 l 581 972 l 740 972 l 740 565 l 768 565 q 851 619 819 565 l 996 840 q 1083 947 1044 915 q 1181 979 1122 979 l 1263 979 l 1263 835 l 1217 835 q 1169 819 1190 835 q 1118 760 1147 804 l 976 539 q 903 496 947 496 l 892 496 l 1188 143 z "},"җ":{"ha":1101,"x_min":49,"x_max":1053,"o":"m 1053 0 l 1017 0 l 1017 -167 l 865 -167 l 865 1 l 626 296 l 626 0 l 475 0 l 475 296 l 235 0 l 49 0 l 333 342 l 324 342 q 272 353 293 342 q 224 406 251 365 l 171 479 q 99 518 143 518 l 76 518 l 76 654 l 128 654 q 209 638 179 654 q 274 575 239 622 l 388 419 q 461 376 419 376 l 475 376 l 475 647 l 626 647 l 626 376 l 640 376 q 714 419 682 376 l 828 575 q 892 638 863 622 q 974 654 922 654 l 1025 654 l 1025 518 l 1003 518 q 931 479 958 518 l 878 406 q 829 353 850 365 q 778 342 808 342 l 768 342 l 933 143 l 1017 143 l 1017 43 l 1053 0 z "},"Ҙ":{"ha":794,"x_min":56,"x_max":732,"o":"m 732 279 q 654 71 732 153 q 446 -22 576 -11 l 446 -82 q 503 -67 464 -67 q 578 -95 547 -67 q 608 -176 608 -124 q 575 -265 608 -231 q 479 -300 542 -300 q 393 -274 426 -300 q 354 -197 360 -247 l 431 -197 q 446 -226 432 -215 q 478 -236 460 -236 q 528 -178 528 -236 q 479 -122 528 -122 q 435 -144 450 -122 l 367 -144 l 367 -22 q 141 77 226 -11 q 56 311 56 165 l 215 311 q 267 170 215 221 q 404 119 318 119 q 528 165 483 119 q 572 278 572 211 q 532 388 572 350 q 397 426 492 426 l 325 426 l 325 568 l 399 568 q 519 608 482 568 q 556 708 556 649 q 513 811 556 769 q 399 853 469 853 q 272 808 322 853 q 222 685 222 764 l 63 685 q 155 909 63 822 q 393 996 247 996 q 623 924 531 996 q 715 722 715 853 q 672 582 715 640 q 561 506 628 524 q 683 432 635 492 q 732 279 732 372 z "},"ҙ":{"ha":665,"x_min":56,"x_max":610,"o":"m 610 175 q 540 42 610 92 q 364 -15 469 -8 l 364 -82 q 421 -67 382 -67 q 496 -95 465 -67 q 526 -176 526 -124 q 493 -265 526 -231 q 397 -300 460 -300 q 311 -274 344 -300 q 272 -197 278 -247 l 349 -197 q 364 -226 350 -215 q 396 -236 378 -236 q 446 -178 446 -236 q 397 -122 446 -122 q 353 -144 368 -122 l 285 -144 l 285 -14 q 116 53 176 -4 q 56 200 56 111 l 206 200 q 241 132 206 157 q 343 107 276 107 q 463 193 463 107 q 435 248 463 226 q 358 269 408 269 l 263 269 l 263 381 l 350 381 q 420 402 393 381 q 447 463 447 424 q 416 521 447 497 q 335 544 385 544 q 244 519 274 544 q 215 451 215 493 l 65 451 q 139 606 65 547 q 333 664 213 664 q 523 614 451 664 q 594 485 594 564 q 556 381 594 419 q 451 335 518 343 q 565 285 521 326 q 610 175 610 244 z "},"Қ":{"ha":863,"x_min":104,"x_max":849,"o":"m 711 143 l 849 143 l 849 -167 l 697 -167 l 697 0 l 631 0 l 264 463 l 264 0 l 104 0 l 104 972 l 264 972 l 264 565 l 292 565 q 375 619 343 565 l 519 840 q 607 947 568 915 q 704 979 646 979 l 786 979 l 786 835 l 740 835 q 692 819 714 835 q 642 760 671 804 l 500 539 q 426 496 471 496 l 415 496 l 711 143 z "},"қ":{"ha":742,"x_min":97,"x_max":693,"o":"m 556 143 l 693 143 l 693 -167 l 542 -167 l 542 0 l 489 0 l 249 296 l 249 0 l 97 0 l 97 647 l 249 647 l 249 376 l 263 376 q 336 419 304 376 l 450 575 q 515 638 485 622 q 596 654 544 654 l 647 654 l 647 518 l 625 518 q 553 479 581 518 l 500 406 q 451 353 472 365 q 400 342 431 342 l 390 342 l 556 143 z "},"Ҝ":{"ha":928,"x_min":104,"x_max":914,"o":"m 914 0 l 714 0 l 368 436 l 368 258 l 313 258 l 313 461 l 264 461 l 264 0 l 104 0 l 104 972 l 264 972 l 264 565 l 313 565 l 313 768 l 368 768 l 368 565 l 375 565 q 458 619 424 565 l 603 840 q 691 948 653 917 q 788 979 729 979 l 869 979 l 869 835 l 824 835 q 776 819 797 835 q 725 760 754 804 l 583 539 q 510 496 554 496 l 499 496 l 914 0 z "},"ҝ":{"ha":758,"x_min":97,"x_max":710,"o":"m 710 0 l 524 0 l 315 267 l 315 151 l 281 151 l 281 297 l 249 297 l 249 0 l 97 0 l 97 647 l 249 647 l 249 376 l 281 376 l 281 522 l 315 522 l 315 378 q 371 419 344 385 l 485 575 q 549 638 519 622 q 631 654 579 654 l 682 654 l 682 518 l 660 518 q 588 479 615 518 l 535 406 q 486 353 507 365 q 435 342 465 342 l 425 342 l 710 0 z "},"Ҟ":{"ha":903,"x_min":104,"x_max":889,"o":"m 474 496 l 889 0 l 689 0 l 322 463 l 322 0 l 163 0 l 163 735 l 104 735 l 104 856 l 163 856 l 163 972 l 322 972 l 322 856 l 449 856 l 449 735 l 322 735 l 322 565 l 350 565 q 433 619 401 565 l 578 840 q 665 947 626 915 q 763 979 704 979 l 844 979 l 844 835 l 799 835 q 751 819 772 835 q 700 760 729 804 l 558 539 q 485 496 529 496 l 474 496 z "},"ҟ":{"ha":724,"x_min":46,"x_max":675,"o":"m 675 0 l 489 0 l 249 296 l 249 0 l 97 0 l 97 492 l 46 492 l 46 578 l 97 578 l 97 647 l 249 647 l 249 578 l 344 578 l 344 492 l 249 492 l 249 376 l 263 376 q 336 419 304 376 l 450 575 q 515 638 485 622 q 596 654 544 654 l 647 654 l 647 518 l 625 518 q 553 479 581 518 l 500 406 q 451 353 472 365 q 400 342 431 342 l 390 342 l 675 0 z "},"Ҡ":{"ha":1004,"x_min":7,"x_max":990,"o":"m 575 496 l 990 0 l 790 0 l 424 463 l 424 0 l 264 0 l 264 829 l 7 829 l 7 972 l 424 972 l 424 565 l 451 565 q 535 619 503 565 l 679 840 q 767 947 728 915 q 864 979 806 979 l 946 979 l 946 835 l 900 835 q 852 819 874 835 q 801 760 831 804 l 660 539 q 586 496 631 496 l 575 496 z "},"ҡ":{"ha":800,"x_min":28,"x_max":751,"o":"m 751 0 l 565 0 l 325 296 l 325 0 l 174 0 l 174 511 l 28 511 l 28 647 l 325 647 l 325 376 l 339 376 q 413 419 381 376 l 526 575 q 591 638 561 622 q 672 654 621 654 l 724 654 l 724 518 l 701 518 q 629 479 657 518 l 576 406 q 528 353 549 365 q 476 342 507 342 l 467 342 l 751 0 z "},"Ң":{"ha":942,"x_min":104,"x_max":900,"o":"m 825 143 l 900 143 l 900 -167 l 749 -167 l 749 0 l 665 0 l 665 411 l 264 411 l 264 0 l 104 0 l 104 972 l 264 972 l 264 554 l 665 554 l 665 972 l 825 972 l 825 143 z "},"ң":{"ha":819,"x_min":97,"x_max":771,"o":"m 696 143 l 771 143 l 771 -167 l 619 -167 l 619 0 l 544 0 l 544 265 l 249 265 l 249 0 l 97 0 l 97 647 l 249 647 l 249 392 l 544 392 l 544 647 l 696 647 l 696 143 z "},"Ҥ":{"ha":1233,"x_min":104,"x_max":1226,"o":"m 1226 972 l 1226 822 l 825 822 l 825 0 l 665 0 l 665 411 l 264 411 l 264 0 l 104 0 l 104 972 l 264 972 l 264 554 l 665 554 l 665 972 l 1226 972 z "},"ҥ":{"ha":969,"x_min":97,"x_max":942,"o":"m 942 647 l 942 507 l 696 507 l 696 0 l 544 0 l 544 265 l 249 265 l 249 0 l 97 0 l 97 647 l 249 647 l 249 392 l 544 392 l 544 647 l 942 647 z "},"Ҧ":{"ha":1404,"x_min":104,"x_max":1314,"o":"m 1022 667 q 1235 581 1156 667 q 1314 368 1314 494 l 1314 -106 q 1258 -250 1314 -200 q 1097 -300 1201 -300 q 1004 -286 1036 -300 l 1004 -144 q 1072 -150 1032 -150 q 1135 -129 1117 -150 q 1154 -54 1154 -108 l 1154 326 q 1108 475 1154 426 q 978 524 1061 524 q 924 522 943 524 q 876 510 906 521 q 824 481 847 500 l 824 0 l 664 0 l 664 829 l 264 829 l 264 0 l 104 0 l 104 972 l 824 972 l 824 622 q 1022 667 901 667 z "},"ҧ":{"ha":1163,"x_min":97,"x_max":1135,"o":"m 865 388 q 1058 307 982 388 q 1135 88 1135 226 q 1053 -146 1135 -67 q 815 -225 971 -225 q 754 -219 782 -225 l 754 -83 q 797 -87 783 -87 q 983 85 983 -87 q 941 210 983 167 q 833 253 899 253 q 682 219 754 253 l 682 0 l 531 0 l 531 521 l 249 521 l 249 0 l 97 0 l 97 647 l 682 647 l 682 358 q 865 388 767 388 z "},"Ҩ":{"ha":1089,"x_min":49,"x_max":1033,"o":"m 889 107 q 1033 135 964 103 l 1033 1 q 885 -24 961 -24 q 711 7 782 -24 q 526 -24 642 -24 q 176 113 304 -24 q 49 469 49 249 q 203 855 49 714 q 640 996 358 996 q 844 964 753 996 l 844 817 q 640 849 753 849 q 333 747 449 849 q 218 475 218 646 q 303 215 218 318 q 546 111 389 111 q 424 407 424 217 q 511 650 424 564 q 733 736 599 736 q 949 656 867 736 q 1031 438 1031 576 q 994 257 1031 347 q 889 107 957 167 m 585 401 q 722 150 585 229 q 840 260 799 189 q 881 421 881 332 q 842 546 881 503 q 733 589 803 589 q 624 541 664 589 q 585 401 585 493 z "},"ҩ":{"ha":815,"x_min":49,"x_max":794,"o":"m 672 85 q 794 113 735 89 l 794 7 q 651 -21 724 -21 q 526 8 578 -21 q 386 -21 474 -21 q 140 66 232 -21 q 49 310 49 153 q 153 571 49 479 q 431 663 258 663 q 560 649 506 663 l 560 521 q 431 533 504 533 q 264 479 328 533 q 200 310 200 425 q 242 161 200 217 q 369 100 285 106 q 318 260 318 168 q 380 420 318 360 q 542 481 442 481 q 701 424 642 481 q 760 260 760 368 q 672 85 760 160 m 540 363 q 478 335 500 363 q 456 263 456 307 q 518 118 456 164 q 625 254 625 156 q 540 363 625 363 z "},"Ҫ":{"ha":1068,"x_min":49,"x_max":1025,"o":"m 556 119 q 751 176 675 119 q 850 333 826 233 l 1025 333 q 889 86 1004 185 q 594 -22 774 -12 l 594 -82 q 651 -67 613 -67 q 726 -95 696 -67 q 757 -176 757 -124 q 724 -265 757 -231 q 628 -300 690 -300 q 542 -274 575 -300 q 503 -197 508 -247 l 579 -197 q 594 -226 581 -215 q 626 -236 608 -236 q 676 -178 676 -236 q 628 -122 676 -122 q 583 -144 599 -122 l 515 -144 l 515 -22 q 174 130 299 -10 q 49 486 49 269 q 185 854 49 713 q 554 996 321 996 q 876 897 750 996 q 1025 639 1003 797 l 850 639 q 751 796 826 739 q 556 853 675 853 q 306 753 396 853 q 217 486 217 654 q 306 219 217 318 q 556 119 396 119 z "},"ҫ":{"ha":726,"x_min":49,"x_max":678,"o":"m 371 118 q 526 224 500 118 l 678 224 q 597 58 668 122 q 407 -15 525 -6 l 407 -82 q 464 -67 425 -67 q 539 -95 508 -67 q 569 -176 569 -124 q 536 -265 569 -231 q 440 -300 503 -300 q 354 -274 388 -300 q 315 -197 321 -247 l 392 -197 q 407 -226 393 -215 q 439 -236 421 -236 q 489 -178 489 -236 q 440 -122 489 -122 q 396 -144 411 -122 l 328 -144 l 328 -14 q 123 92 197 0 q 49 324 49 183 q 135 570 49 476 q 371 664 222 664 q 585 597 504 664 q 678 417 667 529 l 526 417 q 371 529 501 529 q 245 476 290 529 q 200 324 200 422 q 245 172 200 225 q 371 118 290 118 z "},"Ҭ":{"ha":739,"x_min":7,"x_max":732,"o":"m 732 822 l 449 822 l 449 143 l 524 143 l 524 -167 l 372 -167 l 372 0 l 289 0 l 289 822 l 7 822 l 7 972 l 732 972 l 732 822 z "},"ҭ":{"ha":607,"x_min":42,"x_max":565,"o":"m 565 507 l 378 507 l 378 143 l 453 143 l 453 -167 l 301 -167 l 301 0 l 226 0 l 226 507 l 42 507 l 42 647 l 565 647 l 565 507 z "},"Ү":{"ha":861,"x_min":-7,"x_max":868,"o":"m 350 0 l 350 401 l -7 972 l 178 972 l 431 553 l 683 972 l 868 972 l 511 401 l 511 0 l 350 0 z "},"ү":{"ha":683,"x_min":0,"x_max":683,"o":"m 683 647 l 417 32 l 417 -292 l 265 -292 l 265 35 l 0 647 l 163 647 l 342 203 l 521 647 l 683 647 z "},"Ұ":{"ha":861,"x_min":-7,"x_max":868,"o":"m 511 401 l 511 335 l 665 335 l 665 214 l 511 214 l 511 0 l 350 0 l 350 214 l 197 214 l 197 335 l 350 335 l 350 401 l -7 972 l 178 972 l 431 553 l 683 972 l 868 972 l 511 401 z "},"ұ":{"ha":683,"x_min":0,"x_max":683,"o":"m 417 32 l 417 1 l 576 1 l 576 -119 l 417 -119 l 417 -292 l 265 -292 l 265 -119 l 108 -119 l 108 1 l 265 1 l 265 35 l 0 647 l 163 647 l 342 203 l 521 647 l 683 647 l 417 32 z "},"Ҳ":{"ha":894,"x_min":21,"x_max":853,"o":"m 742 143 l 853 143 l 853 -167 l 701 -167 l 701 0 l 654 0 l 428 354 l 201 0 l 21 0 l 338 486 l 21 972 l 201 972 l 428 617 l 654 972 l 835 972 l 518 486 l 742 143 z "},"ҳ":{"ha":776,"x_min":49,"x_max":728,"o":"m 597 143 l 728 143 l 728 -167 l 576 -167 l 576 0 l 514 0 l 375 217 l 236 0 l 49 0 l 288 326 l 53 647 l 240 647 l 375 438 l 510 647 l 697 647 l 463 326 l 597 143 z "},"Ҵ":{"ha":1063,"x_min":7,"x_max":1021,"o":"m 946 143 l 1021 143 l 1021 -167 l 869 -167 l 869 0 l 246 0 l 246 822 l 7 822 l 7 972 l 649 972 l 649 822 l 407 822 l 407 143 l 786 143 l 786 972 l 946 972 l 946 143 z "},"ҵ":{"ha":900,"x_min":42,"x_max":851,"o":"m 776 143 l 851 143 l 851 -167 l 700 -167 l 700 0 l 199 0 l 199 507 l 42 507 l 42 647 l 510 647 l 510 507 l 350 507 l 350 126 l 625 126 l 625 647 l 776 647 l 776 143 z "},"Ҷ":{"ha":815,"x_min":56,"x_max":774,"o":"m 706 143 l 774 143 l 774 -167 l 622 -167 l 622 0 l 546 0 l 546 336 q 347 292 468 292 q 135 378 214 292 q 56 590 56 464 l 56 972 l 215 972 l 215 632 q 262 483 215 532 q 392 435 308 435 q 445 436 426 435 q 493 448 464 438 q 546 478 522 458 l 546 972 l 706 972 l 706 143 z "},"ҷ":{"ha":733,"x_min":56,"x_max":685,"o":"m 610 143 l 685 143 l 685 -167 l 533 -167 l 533 0 l 458 0 l 458 225 q 297 186 390 186 q 56 404 56 186 l 56 647 l 207 647 l 207 424 q 332 313 207 313 q 375 314 360 313 q 415 325 390 315 q 458 354 439 335 l 458 647 l 610 647 l 610 143 z "},"Ҹ":{"ha":810,"x_min":56,"x_max":706,"o":"m 546 972 l 706 972 l 706 0 l 546 0 l 546 336 q 442 299 500 310 l 442 172 l 342 172 l 342 292 q 133 379 210 293 q 56 590 56 465 l 56 972 l 215 972 l 215 632 q 342 440 215 467 l 342 588 l 442 588 l 442 436 q 546 478 501 440 l 546 972 z "},"ҹ":{"ha":707,"x_min":56,"x_max":610,"o":"m 458 647 l 610 647 l 610 0 l 458 0 l 458 225 q 379 194 425 207 l 379 54 l 315 54 l 315 186 l 297 186 q 56 404 56 186 l 56 647 l 207 647 l 207 424 q 315 313 207 321 l 315 469 l 379 469 l 379 315 q 458 354 424 319 l 458 647 z "},"Һ":{"ha":810,"x_min":104,"x_max":754,"o":"m 264 972 l 264 636 q 463 681 342 681 q 675 594 596 681 q 754 382 754 508 l 754 0 l 594 0 l 594 340 q 548 489 594 440 q 418 538 501 538 q 365 536 383 538 q 317 524 346 535 q 264 494 288 514 l 264 0 l 104 0 l 104 972 l 264 972 z "},"һ":{"ha":786,"x_min":97,"x_max":696,"o":"m 460 664 q 696 407 696 664 l 696 0 l 544 0 l 544 338 q 513 489 544 443 q 403 535 481 535 q 289 488 329 535 q 249 356 249 442 l 249 0 l 97 0 l 97 972 l 249 972 l 249 557 q 460 664 311 664 z "},"Ҽ":{"ha":1282,"x_min":49,"x_max":1233,"o":"m 1233 513 l 1233 414 l 433 414 q 523 202 446 282 q 751 122 600 122 q 943 167 878 122 q 1039 290 1008 211 l 1226 290 q 1075 67 1203 160 q 751 -25 947 -25 q 413 97 542 -25 q 265 414 285 219 l 233 414 q 100 467 151 414 q 49 601 49 519 l 49 671 l 190 671 l 190 604 q 207 557 190 575 q 251 539 224 539 l 264 539 q 412 865 281 740 q 763 989 543 989 q 1099 856 964 989 q 1233 513 1233 722 m 433 539 l 1065 539 q 980 764 1065 681 q 756 847 894 847 q 524 767 614 847 q 433 539 433 686 z "},"ҽ":{"ha":876,"x_min":7,"x_max":828,"o":"m 828 357 q 824 274 828 332 l 343 274 q 393 156 346 197 q 524 115 440 115 q 668 189 631 115 l 821 189 q 723 41 806 99 q 524 -17 640 -17 q 297 60 383 -17 q 196 274 210 138 l 193 274 q 58 322 110 274 q 7 447 7 369 l 7 515 l 136 515 l 136 449 q 153 403 136 419 q 197 388 169 388 q 301 590 215 515 q 518 664 386 664 q 742 578 657 664 q 828 357 828 493 m 343 389 l 679 389 q 635 504 678 464 q 515 544 593 544 q 390 501 436 544 q 343 389 344 458 z "},"Ҿ":{"ha":1282,"x_min":49,"x_max":1233,"o":"m 645 1056 q 630 1040 645 1056 q 569 1025 614 1025 q 494 1056 525 1025 q 464 1131 464 1086 q 494 1206 464 1175 q 569 1238 525 1238 q 645 1206 614 1238 q 676 1131 676 1175 q 645 1056 676 1086 m 901 1025 q 827 1056 858 1025 q 796 1131 796 1086 q 826 1206 796 1175 q 901 1238 857 1238 q 977 1206 946 1238 q 1008 1131 1008 1175 q 977 1056 1008 1086 q 901 1025 946 1025 m 1233 513 l 1233 414 l 433 414 q 523 202 446 282 q 751 122 600 122 q 943 167 878 122 q 1039 290 1008 211 l 1226 290 q 1075 67 1203 160 q 751 -25 947 -25 q 413 97 542 -25 q 265 414 285 219 l 233 414 q 100 467 151 414 q 49 601 49 519 l 49 671 l 190 671 l 190 604 q 207 557 190 575 q 251 539 224 539 l 264 539 q 412 865 281 740 q 763 989 543 989 q 1099 856 964 989 q 1233 513 1233 722 m 433 539 l 1065 539 q 980 764 1065 681 q 756 847 894 847 q 524 767 614 847 q 433 539 433 686 z "},"ҿ":{"ha":876,"x_min":7,"x_max":828,"o":"m 828 357 q 824 274 828 332 l 343 274 q 393 156 346 197 q 524 115 440 115 q 668 189 631 115 l 821 189 q 745 58 808 113 q 589 -11 682 4 q 513 -107 513 -39 q 535 -160 513 -139 q 590 -182 557 -182 q 661 -165 626 -182 l 661 -274 q 549 -294 607 -294 q 423 -253 471 -294 q 375 -153 375 -212 q 464 -12 375 -72 q 278 78 349 3 q 196 274 208 153 l 193 274 q 58 322 110 274 q 7 447 7 369 l 7 515 l 136 515 l 136 449 q 153 403 136 419 q 197 388 169 388 q 301 590 215 515 q 518 664 386 664 q 742 578 657 664 q 828 357 828 493 m 343 389 l 679 389 q 635 504 678 464 q 515 544 593 544 q 390 501 436 544 q 343 389 344 458 z "},"Ӏ":{"ha":368,"x_min":104,"x_max":264,"o":"m 104 0 l 104 972 l 264 972 l 264 0 l 104 0 z "},"Ӂ":{"ha":1321,"x_min":14,"x_max":1307,"o":"m 837 1063 q 802 1040 837 1063 q 660 1017 767 1017 q 483 1063 553 1017 q 407 1186 413 1108 l 531 1186 q 660 1117 546 1117 q 789 1186 774 1117 l 913 1186 q 837 1063 907 1108 m 892 496 l 1307 0 l 1107 0 l 740 463 l 740 0 l 581 0 l 581 463 l 214 0 l 14 0 l 429 496 l 418 496 q 344 539 374 496 l 203 760 q 152 819 174 804 q 104 835 131 835 l 58 835 l 58 979 l 140 979 q 238 947 199 979 q 325 840 276 915 l 469 619 q 553 565 501 565 l 581 565 l 581 972 l 740 972 l 740 565 l 768 565 q 851 619 819 565 l 996 840 q 1083 947 1044 915 q 1181 979 1122 979 l 1263 979 l 1263 835 l 1217 835 q 1169 819 1190 835 q 1118 760 1147 804 l 976 539 q 903 496 947 496 l 892 496 z "},"ӂ":{"ha":1101,"x_min":49,"x_max":1053,"o":"m 730 756 q 696 729 730 756 q 551 701 663 701 q 373 756 440 701 q 299 906 306 811 l 426 906 q 551 811 432 811 q 676 906 671 811 l 804 906 q 730 756 797 811 m 1053 0 l 867 0 l 626 296 l 626 0 l 475 0 l 475 296 l 235 0 l 49 0 l 333 342 l 324 342 q 272 353 293 342 q 224 406 251 365 l 171 479 q 99 518 143 518 l 76 518 l 76 654 l 128 654 q 209 638 179 654 q 274 575 239 622 l 388 419 q 461 376 419 376 l 475 376 l 475 647 l 626 647 l 626 376 l 640 376 q 714 419 682 376 l 828 575 q 892 638 863 622 q 974 654 922 654 l 1025 654 l 1025 518 l 1003 518 q 931 479 958 518 l 878 406 q 829 353 850 365 q 778 342 808 342 l 768 342 l 1053 0 z "},"Ӄ":{"ha":871,"x_min":104,"x_max":822,"o":"m 539 600 q 741 508 660 593 q 822 288 822 424 q 739 56 822 135 q 497 -22 656 -22 q 425 -17 457 -22 l 425 115 q 479 113 453 113 q 671 285 671 113 q 619 420 671 375 q 488 465 567 465 l 399 465 l 397 465 l 264 464 l 264 0 l 104 0 l 104 972 l 264 972 l 264 565 l 292 565 q 375 619 342 565 l 519 840 q 608 948 569 917 q 704 979 646 979 l 786 979 l 786 835 l 740 835 q 692 819 714 835 q 642 760 671 804 l 539 600 z "},"ӄ":{"ha":704,"x_min":97,"x_max":676,"o":"m 471 369 q 619 281 561 350 q 676 108 676 211 q 594 -122 676 -43 q 356 -201 511 -201 q 294 -196 322 -201 l 294 -60 q 351 -64 319 -64 q 478 -22 432 -64 q 525 106 525 21 q 361 263 525 263 l 249 263 l 249 0 l 97 0 l 97 647 l 249 647 l 249 376 l 263 376 q 336 419 304 376 l 450 575 q 515 638 485 622 q 596 654 544 654 l 647 654 l 647 518 l 625 518 q 553 479 581 518 l 500 406 q 471 369 490 392 z "},"Ӆ":{"ha":933,"x_min":28,"x_max":915,"o":"m 829 143 l 915 143 l 797 -167 l 649 -167 l 711 0 l 669 0 l 669 832 l 358 832 l 358 379 q 287 84 358 179 q 86 -11 215 -11 l 28 -11 l 28 139 l 61 139 q 164 194 129 139 q 199 383 199 249 l 199 972 l 829 972 l 829 143 z "},"ӆ":{"ha":772,"x_min":42,"x_max":761,"o":"m 675 143 l 761 143 l 643 -167 l 494 -167 l 557 0 l 524 0 l 524 507 l 319 507 l 319 283 q 261 71 319 149 q 97 -7 203 -7 l 42 -7 l 42 136 l 67 136 q 168 276 168 136 l 168 647 l 675 647 l 675 143 z "},"Ӈ":{"ha":929,"x_min":104,"x_max":825,"o":"m 665 972 l 825 972 l 825 -106 q 769 -250 825 -200 q 608 -300 713 -300 q 515 -286 547 -300 l 515 -144 q 583 -150 543 -150 q 647 -129 628 -150 q 665 -54 665 -108 l 665 411 l 264 411 l 264 0 l 104 0 l 104 972 l 264 972 l 264 554 l 665 554 l 665 972 z "},"ӈ":{"ha":793,"x_min":97,"x_max":696,"o":"m 544 647 l 696 647 l 696 -135 q 650 -258 696 -215 q 518 -300 604 -300 q 429 -286 456 -300 l 429 -151 q 486 -157 456 -157 q 544 -90 544 -157 l 544 265 l 249 265 l 249 0 l 97 0 l 97 647 l 249 647 l 249 392 l 544 392 l 544 647 z "},"Ӊ":{"ha":929,"x_min":104,"x_max":911,"o":"m 825 143 l 911 143 l 793 -167 l 644 -167 l 707 0 l 665 0 l 665 411 l 264 411 l 264 0 l 104 0 l 104 972 l 264 972 l 264 554 l 665 554 l 665 972 l 825 972 l 825 143 z "},"ӊ":{"ha":793,"x_min":97,"x_max":782,"o":"m 696 143 l 782 143 l 664 -167 l 515 -167 l 578 0 l 544 0 l 544 265 l 249 265 l 249 0 l 97 0 l 97 647 l 249 647 l 249 392 l 544 392 l 544 647 l 696 647 l 696 143 z "},"Ӌ":{"ha":810,"x_min":56,"x_max":706,"o":"m 706 972 l 706 0 l 625 0 l 625 -167 l 465 -167 l 465 143 l 546 143 l 546 336 q 347 292 468 292 q 135 378 214 292 q 56 590 56 464 l 56 972 l 215 972 l 215 632 q 262 483 215 532 q 392 435 308 435 q 445 436 426 435 q 493 448 464 438 q 546 478 522 458 l 546 972 l 706 972 z "},"ӌ":{"ha":707,"x_min":56,"x_max":610,"o":"m 610 647 l 610 0 l 538 0 l 538 -167 l 378 -167 l 378 143 l 458 143 l 458 225 q 297 186 390 186 q 56 404 56 186 l 56 647 l 207 647 l 207 424 q 332 313 207 313 q 375 314 360 313 q 415 325 390 315 q 458 354 439 335 l 458 647 l 610 647 z "},"Ӎ":{"ha":1135,"x_min":104,"x_max":1117,"o":"m 1031 143 l 1117 143 l 999 -167 l 850 -167 l 913 0 l 878 0 l 878 643 l 628 0 l 507 0 l 257 650 l 257 0 l 104 0 l 104 972 l 257 972 l 568 228 l 878 972 l 1031 972 l 1031 143 z "},"ӎ":{"ha":1003,"x_min":97,"x_max":992,"o":"m 906 143 l 992 143 l 874 -167 l 725 -167 l 788 0 l 761 0 l 761 499 l 553 0 l 450 0 l 242 499 l 242 0 l 97 0 l 97 647 l 324 647 l 501 204 l 679 647 l 906 647 l 906 143 z "},"ӏ":{"ha":346,"x_min":97,"x_max":249,"o":"m 97 0 l 97 647 l 249 647 l 249 0 l 97 0 z "},"Ӑ":{"ha":838,"x_min":21,"x_max":817,"o":"m 597 1063 q 561 1040 597 1063 q 419 1017 526 1017 q 242 1063 313 1017 q 167 1186 172 1108 l 290 1186 q 419 1117 306 1117 q 549 1186 533 1117 l 672 1186 q 597 1063 667 1108 m 643 0 l 606 124 l 232 124 l 194 0 l 21 0 l 349 972 l 489 972 l 817 0 l 643 0 m 274 267 l 563 267 l 418 749 l 274 267 z "},"ӑ":{"ha":822,"x_min":49,"x_max":725,"o":"m 570 756 q 536 729 570 756 q 392 701 503 701 q 213 756 281 701 q 139 906 146 811 l 267 906 q 392 811 272 811 q 517 906 511 811 l 644 906 q 570 756 638 811 m 367 -17 q 132 79 215 -17 q 49 324 49 175 q 136 567 49 471 q 371 664 224 664 q 490 636 436 664 q 574 560 544 608 l 574 647 l 725 647 l 725 0 l 574 0 l 574 88 q 487 12 546 40 q 367 -17 428 -17 m 389 118 q 531 176 482 118 q 581 324 581 235 q 531 471 581 413 q 389 529 482 529 q 251 472 301 529 q 200 324 200 414 q 251 176 200 233 q 389 118 301 118 z "},"Ӓ":{"ha":838,"x_min":21,"x_max":817,"o":"m 328 1056 q 313 1040 328 1056 q 253 1025 297 1025 q 178 1056 208 1025 q 147 1131 147 1086 q 178 1206 147 1175 q 253 1238 208 1238 q 328 1206 297 1238 q 360 1131 360 1175 q 328 1056 360 1086 m 585 1025 q 510 1056 542 1025 q 479 1131 479 1086 q 510 1206 479 1175 q 585 1238 540 1238 q 660 1206 629 1238 q 692 1131 692 1175 q 660 1056 692 1086 q 585 1025 629 1025 m 643 0 l 606 124 l 232 124 l 194 0 l 21 0 l 349 972 l 489 972 l 817 0 l 643 0 m 274 267 l 563 267 l 418 749 l 274 267 z "},"ӓ":{"ha":822,"x_min":49,"x_max":725,"o":"m 326 769 q 310 754 326 769 q 250 739 294 739 q 175 769 206 739 q 144 844 144 800 q 175 920 144 889 q 250 951 206 951 q 326 920 294 951 q 357 844 357 889 q 326 769 357 800 m 532 739 q 458 769 489 739 q 426 844 426 800 q 457 920 426 889 q 532 951 488 951 q 608 920 576 951 q 639 844 639 889 q 608 769 639 800 q 532 739 576 739 m 367 -17 q 132 79 215 -17 q 49 324 49 175 q 136 567 49 471 q 371 664 224 664 q 490 636 436 664 q 574 560 544 608 l 574 647 l 725 647 l 725 0 l 574 0 l 574 88 q 487 12 546 40 q 367 -17 428 -17 m 389 118 q 531 176 482 118 q 581 324 581 235 q 531 471 581 413 q 389 529 482 529 q 251 472 301 529 q 200 324 200 414 q 251 176 200 233 q 389 118 301 118 z "},"Ӕ":{"ha":1199,"x_min":14,"x_max":1108,"o":"m 1108 829 l 735 829 l 735 554 l 1108 554 l 1108 411 l 735 411 l 735 143 l 1108 143 l 1108 0 l 575 0 l 575 131 l 249 131 l 188 0 l 14 0 l 493 972 l 1108 972 l 1108 829 m 311 267 l 575 267 l 575 836 l 311 267 z "},"ӕ":{"ha":1199,"x_min":56,"x_max":1150,"o":"m 1150 354 q 1146 271 1150 329 l 665 271 q 715 153 668 194 q 846 113 763 113 q 990 197 954 113 l 1143 197 q 1046 41 1129 101 q 846 -19 963 -19 q 589 103 678 -19 q 317 -17 500 -17 q 128 35 200 -17 q 56 175 56 88 q 133 336 56 283 q 231 374 174 365 q 408 383 288 383 l 526 383 l 526 440 q 492 514 526 485 q 381 543 458 543 q 231 438 238 543 l 79 438 q 169 602 86 540 q 383 664 253 664 q 618 572 547 664 q 840 661 707 661 q 1065 576 979 661 q 1150 354 1150 490 m 665 385 l 1001 385 q 959 502 1001 460 q 840 544 917 544 q 715 500 764 544 q 665 385 667 456 m 526 249 l 526 269 l 526 271 l 358 271 q 208 188 208 271 q 342 103 208 103 q 470 138 414 103 q 526 249 526 174 z "},"Ӗ":{"ha":756,"x_min":104,"x_max":665,"o":"m 569 1063 q 534 1040 569 1063 q 392 1017 499 1017 q 215 1063 285 1017 q 139 1186 144 1108 l 263 1186 q 392 1117 278 1117 q 521 1186 506 1117 l 644 1186 q 569 1063 639 1108 m 104 0 l 104 972 l 665 972 l 665 829 l 264 829 l 264 554 l 665 554 l 665 411 l 264 411 l 264 143 l 665 143 l 665 0 l 104 0 z "},"ӗ":{"ha":732,"x_min":49,"x_max":683,"o":"m 552 756 q 518 729 552 756 q 374 701 485 701 q 195 756 263 701 q 121 906 128 811 l 249 906 q 374 811 254 811 q 499 906 493 811 l 626 906 q 552 756 619 811 m 683 357 q 679 274 683 332 l 199 274 q 249 156 201 197 q 379 115 296 115 q 524 189 486 115 l 676 189 q 578 41 661 99 q 379 -17 496 -17 q 138 75 226 -17 q 49 324 49 167 q 137 572 49 479 q 374 664 225 664 q 598 578 513 664 q 683 357 683 493 m 199 389 l 535 389 q 491 504 533 464 q 371 544 449 544 q 246 501 292 544 q 199 389 200 458 z "},"Ә":{"ha":1069,"x_min":49,"x_max":1021,"o":"m 519 -17 q 183 117 318 -17 q 49 460 49 250 l 49 558 l 849 558 q 759 770 836 690 q 531 850 682 850 q 339 806 404 850 q 243 682 274 761 l 56 682 q 207 905 79 813 q 531 997 335 997 q 890 854 760 997 q 1021 490 1021 711 q 888 125 1021 267 q 519 -17 754 -17 m 526 125 q 758 206 668 125 q 849 433 849 286 l 217 433 q 302 208 217 292 q 526 125 388 125 z "},"ә":{"ha":732,"x_min":49,"x_max":683,"o":"m 353 664 q 594 572 506 664 q 683 324 683 481 q 595 76 683 168 q 358 -17 507 -17 q 134 69 219 -17 q 49 290 49 154 q 53 374 49 315 l 533 374 q 483 491 531 450 q 353 532 436 532 q 208 458 244 532 l 56 458 q 153 606 71 549 q 353 664 236 664 m 361 103 q 486 146 440 103 q 533 258 532 189 l 197 258 q 241 143 199 183 q 361 103 283 103 z "},"Ӛ":{"ha":1069,"x_min":49,"x_max":1021,"o":"m 428 1056 q 413 1040 428 1056 q 353 1025 397 1025 q 278 1056 308 1025 q 247 1131 247 1086 q 278 1206 247 1175 q 353 1238 308 1238 q 428 1206 397 1238 q 460 1131 460 1175 q 428 1056 460 1086 m 685 1025 q 610 1056 642 1025 q 579 1131 579 1086 q 610 1206 579 1175 q 685 1238 640 1238 q 760 1206 729 1238 q 792 1131 792 1175 q 760 1056 792 1086 q 685 1025 729 1025 m 519 -17 q 183 117 318 -17 q 49 460 49 250 l 49 558 l 849 558 q 759 770 836 690 q 531 850 682 850 q 339 806 404 850 q 243 682 274 761 l 56 682 q 207 905 79 813 q 531 997 335 997 q 890 854 760 997 q 1021 490 1021 711 q 888 125 1021 267 q 519 -17 754 -17 m 526 125 q 758 206 668 125 q 849 433 849 286 l 217 433 q 302 208 217 292 q 526 125 388 125 z "},"ӛ":{"ha":732,"x_min":49,"x_max":683,"o":"m 287 769 q 271 754 287 769 q 211 739 256 739 q 136 769 167 739 q 106 844 106 800 q 136 920 106 889 q 211 951 167 951 q 287 920 256 951 q 318 844 318 889 q 287 769 318 800 m 493 739 q 419 769 450 739 q 388 844 388 800 q 418 920 388 889 q 493 951 449 951 q 569 920 538 951 q 600 844 600 889 q 569 769 600 800 q 493 739 538 739 m 353 664 q 594 572 506 664 q 683 324 683 481 q 595 76 683 168 q 358 -17 507 -17 q 134 69 219 -17 q 49 290 49 154 q 53 374 49 315 l 533 374 q 483 491 531 450 q 353 532 436 532 q 208 458 244 532 l 56 458 q 153 606 71 549 q 353 664 236 664 m 361 103 q 486 146 440 103 q 533 258 532 189 l 197 258 q 241 143 199 183 q 361 103 283 103 z "},"Ӝ":{"ha":1321,"x_min":14,"x_max":1307,"o":"m 493 1025 q 419 1056 450 1025 q 388 1131 388 1086 q 418 1206 388 1175 q 493 1238 449 1238 q 569 1206 538 1238 q 600 1131 600 1175 q 569 1056 600 1086 q 493 1025 538 1025 m 901 1056 q 885 1040 901 1056 q 825 1025 869 1025 q 750 1056 781 1025 q 719 1131 719 1086 q 750 1206 719 1175 q 825 1238 781 1238 q 901 1206 869 1238 q 932 1131 932 1175 q 901 1056 932 1086 m 892 496 l 1307 0 l 1107 0 l 740 463 l 740 0 l 581 0 l 581 463 l 214 0 l 14 0 l 429 496 l 418 496 q 344 539 374 496 l 203 760 q 152 819 174 804 q 104 835 131 835 l 58 835 l 58 979 l 140 979 q 238 947 199 979 q 325 840 276 915 l 469 619 q 553 565 501 565 l 581 565 l 581 972 l 740 972 l 740 565 l 768 565 q 851 619 819 565 l 996 840 q 1083 947 1044 915 q 1181 979 1122 979 l 1263 979 l 1263 835 l 1217 835 q 1169 819 1190 835 q 1118 760 1147 804 l 976 539 q 903 496 947 496 l 892 496 z "},"ӝ":{"ha":1101,"x_min":49,"x_max":1053,"o":"m 410 739 q 335 769 367 739 q 304 844 304 800 q 335 920 304 889 q 410 951 365 951 q 485 920 454 951 q 517 844 517 889 q 485 769 517 800 q 410 739 454 739 m 767 769 q 752 754 767 769 q 692 739 736 739 q 617 769 647 739 q 586 844 586 800 q 617 920 586 889 q 692 951 647 951 q 767 920 736 951 q 799 844 799 889 q 767 769 799 800 m 1053 0 l 867 0 l 626 296 l 626 0 l 475 0 l 475 296 l 235 0 l 49 0 l 333 342 l 324 342 q 272 353 293 342 q 224 406 251 365 l 171 479 q 99 518 143 518 l 76 518 l 76 654 l 128 654 q 209 638 179 654 q 274 575 239 622 l 388 419 q 461 376 419 376 l 475 376 l 475 647 l 626 647 l 626 376 l 640 376 q 714 419 682 376 l 828 575 q 892 638 863 622 q 974 654 922 654 l 1025 654 l 1025 518 l 1003 518 q 931 479 958 518 l 878 406 q 829 353 850 365 q 778 342 808 342 l 768 342 l 1053 0 z "},"Ӟ":{"ha":794,"x_min":56,"x_max":732,"o":"m 226 1025 q 152 1056 183 1025 q 121 1131 121 1086 q 151 1206 121 1175 q 226 1238 182 1238 q 302 1206 271 1238 q 333 1131 333 1175 q 302 1056 333 1086 q 226 1025 271 1025 m 634 1056 q 618 1040 634 1056 q 558 1025 603 1025 q 483 1056 514 1025 q 453 1131 453 1086 q 483 1206 453 1175 q 558 1238 514 1238 q 634 1206 603 1238 q 665 1131 665 1175 q 634 1056 665 1086 m 215 311 q 267 170 215 221 q 404 119 318 119 q 528 165 483 119 q 572 278 572 211 q 532 388 572 350 q 397 426 492 426 l 325 426 l 325 568 l 399 568 q 519 608 482 568 q 556 708 556 649 q 513 811 556 769 q 399 853 469 853 q 272 808 322 853 q 222 685 222 764 l 63 685 q 155 909 63 822 q 393 996 247 996 q 623 924 531 996 q 715 722 715 853 q 672 582 715 640 q 561 506 628 524 q 683 432 635 492 q 732 279 732 372 q 643 60 732 143 q 407 -24 554 -24 q 153 65 251 -24 q 56 311 56 154 l 215 311 z "},"ӟ":{"ha":665,"x_min":56,"x_max":610,"o":"m 259 769 q 243 754 259 769 q 183 739 228 739 q 108 769 139 739 q 78 844 78 800 q 108 920 78 889 q 183 951 139 951 q 259 920 228 951 q 290 844 290 889 q 259 769 290 800 m 465 739 q 391 769 422 739 q 360 844 360 800 q 390 920 360 889 q 465 951 421 951 q 541 920 510 951 q 572 844 572 889 q 541 769 572 800 q 465 739 510 739 m 206 200 q 241 132 206 157 q 343 107 276 107 q 463 193 463 107 q 435 248 463 226 q 358 269 408 269 l 263 269 l 263 381 l 350 381 q 420 402 393 381 q 447 463 447 424 q 416 521 447 497 q 335 544 385 544 q 244 519 274 544 q 215 451 215 493 l 65 451 q 139 606 65 547 q 333 664 213 664 q 523 614 451 664 q 594 485 594 564 q 556 381 594 419 q 451 335 518 343 q 565 285 521 326 q 610 175 610 244 q 530 34 610 85 q 332 -17 450 -17 q 129 42 203 -17 q 56 200 56 101 l 206 200 z "},"Ӡ":{"ha":799,"x_min":56,"x_max":757,"o":"m 406 -17 q 153 72 250 -17 q 56 318 56 161 l 215 318 q 272 178 215 229 q 408 126 328 126 q 527 175 483 126 q 571 292 571 224 q 529 424 571 379 q 389 468 488 468 l 258 468 l 497 829 l 138 829 l 138 972 l 757 972 l 483 578 q 660 491 590 568 q 731 300 731 414 q 638 73 731 163 q 406 -17 544 -17 z "},"ӡ":{"ha":675,"x_min":-7,"x_max":619,"o":"m 517 -225 q 475 -267 517 -225 q 296 -308 433 -308 q 76 -240 158 -308 q -7 -42 -6 -171 l 142 -42 q 191 -147 146 -110 q 299 -183 236 -183 q 409 -131 367 -183 q 451 18 451 -79 q 397 160 451 114 q 249 207 343 207 l 132 207 l 375 519 l 63 519 l 63 647 l 619 647 l 363 310 q 535 210 468 294 q 601 15 601 125 q 517 -225 601 -142 z "},"Ӣ":{"ha":928,"x_min":104,"x_max":824,"o":"m 194 1033 l 194 1153 l 736 1153 l 736 1033 l 194 1033 m 664 672 l 264 67 l 264 0 l 104 0 l 104 972 l 264 972 l 264 300 l 664 906 l 664 972 l 824 972 l 824 0 l 664 0 l 664 672 z "},"ӣ":{"ha":785,"x_min":97,"x_max":688,"o":"m 165 758 l 165 878 l 607 878 l 607 758 l 165 758 m 536 417 l 249 54 l 249 0 l 97 0 l 97 647 l 249 647 l 249 224 l 536 589 l 536 647 l 688 647 l 688 0 l 536 0 l 536 417 z "},"Ӥ":{"ha":928,"x_min":104,"x_max":824,"o":"m 299 997 q 224 1028 256 997 q 193 1103 193 1058 q 224 1178 193 1147 q 299 1210 254 1210 q 374 1178 343 1210 q 406 1103 406 1147 q 374 1028 406 1058 q 299 997 343 997 m 706 1028 q 691 1013 706 1028 q 631 997 675 997 q 556 1028 586 997 q 525 1103 525 1058 q 556 1178 525 1147 q 631 1210 586 1210 q 706 1178 675 1210 q 738 1103 738 1147 q 706 1028 738 1058 m 664 672 l 264 67 l 264 0 l 104 0 l 104 972 l 264 972 l 264 300 l 664 906 l 664 972 l 824 972 l 824 0 l 664 0 l 664 672 z "},"ӥ":{"ha":785,"x_min":97,"x_max":688,"o":"m 320 756 q 305 740 320 756 q 244 725 289 725 q 169 756 200 725 q 139 831 139 786 q 169 906 139 875 q 244 938 200 938 q 320 906 289 938 q 351 831 351 875 q 320 756 351 786 m 526 725 q 452 756 483 725 q 421 831 421 786 q 451 906 421 875 q 526 938 482 938 q 602 906 571 938 q 633 831 633 875 q 602 756 633 786 q 526 725 571 725 m 536 417 l 249 54 l 249 0 l 97 0 l 97 647 l 249 647 l 249 224 l 536 589 l 536 647 l 688 647 l 688 0 l 536 0 l 536 417 z "},"Ӧ":{"ha":1103,"x_min":49,"x_max":1054,"o":"m 385 1025 q 310 1056 342 1025 q 279 1131 279 1086 q 310 1206 279 1175 q 385 1238 340 1238 q 460 1206 429 1238 q 492 1131 492 1175 q 460 1056 492 1086 q 385 1025 429 1025 m 792 1056 q 777 1040 792 1056 q 717 1025 761 1025 q 642 1056 672 1025 q 611 1131 611 1086 q 642 1206 611 1175 q 717 1238 672 1238 q 792 1206 761 1238 q 824 1131 824 1175 q 792 1056 824 1086 m 917 124 q 849 50 917 124 q 551 -24 781 -24 q 185 124 322 -24 q 49 486 49 271 q 185 849 49 701 q 551 996 322 996 q 917 849 781 996 q 1054 486 1054 701 q 917 124 1054 271 m 305 224 q 350 172 305 224 q 551 119 394 119 q 798 224 708 119 q 886 486 888 329 q 798 748 888 643 q 551 853 708 853 q 305 748 394 853 q 217 486 215 643 q 305 224 215 329 z "},"ӧ":{"ha":781,"x_min":49,"x_max":732,"o":"m 249 739 q 174 769 206 739 q 143 844 143 800 q 174 920 143 889 q 249 951 204 951 q 324 920 293 951 q 356 844 356 889 q 324 769 356 800 q 249 739 293 739 m 606 769 q 591 754 606 769 q 531 739 575 739 q 456 769 486 739 q 425 844 425 800 q 456 920 425 889 q 531 951 486 951 q 606 920 575 951 q 638 844 638 889 q 606 769 638 800 m 640 80 q 593 32 640 80 q 390 -17 547 -17 q 141 80 233 -17 q 49 324 49 176 q 141 567 49 471 q 390 664 233 664 q 640 567 547 664 q 732 324 732 471 q 640 80 732 176 m 251 175 q 276 147 251 175 q 390 118 301 118 q 530 175 479 118 q 581 324 581 232 q 530 472 581 415 q 390 529 479 529 q 251 472 301 529 q 200 324 200 415 q 251 175 200 232 z "},"Ө":{"ha":1103,"x_min":49,"x_max":1054,"o":"m 185 849 q 254 922 185 849 q 551 996 322 996 q 917 849 781 996 q 1054 486 1054 701 q 917 124 1054 271 q 551 -24 781 -24 q 185 124 322 -24 q 49 486 49 271 q 185 849 49 701 m 782 765 q 738 809 782 765 q 551 853 694 853 q 321 765 408 853 q 219 538 233 676 l 883 538 q 782 765 869 676 m 320 208 q 364 164 320 208 q 551 119 408 119 q 783 208 694 119 q 883 438 871 297 l 219 438 q 320 208 232 297 z "},"ө":{"ha":781,"x_min":49,"x_max":732,"o":"m 141 567 q 187 616 141 567 q 390 664 233 664 q 640 567 547 664 q 732 324 732 471 q 640 80 732 176 q 390 -17 547 -17 q 141 80 233 -17 q 49 324 49 176 q 141 567 49 471 m 515 487 q 491 508 515 487 q 390 529 467 529 q 265 487 314 529 q 204 374 217 444 l 576 374 q 515 487 564 444 m 265 160 q 290 139 265 160 q 390 118 314 118 q 515 160 467 118 q 576 274 564 203 l 204 274 q 265 160 217 203 z "},"Ӫ":{"ha":1103,"x_min":49,"x_max":1054,"o":"m 385 1025 q 310 1056 342 1025 q 279 1131 279 1086 q 310 1206 279 1175 q 385 1238 340 1238 q 460 1206 429 1238 q 492 1131 492 1175 q 460 1056 492 1086 q 385 1025 429 1025 m 792 1056 q 777 1040 792 1056 q 717 1025 761 1025 q 642 1056 672 1025 q 611 1131 611 1086 q 642 1206 611 1175 q 717 1238 672 1238 q 792 1206 761 1238 q 824 1131 824 1175 q 792 1056 824 1086 m 185 849 q 254 922 185 849 q 551 996 322 996 q 917 849 781 996 q 1054 486 1054 701 q 917 124 1054 271 q 551 -24 781 -24 q 185 124 322 -24 q 49 486 49 271 q 185 849 49 701 m 782 765 q 738 809 782 765 q 551 853 694 853 q 321 765 408 853 q 219 538 233 676 l 883 538 q 782 765 869 676 m 320 208 q 364 164 320 208 q 551 119 408 119 q 783 208 694 119 q 883 438 871 297 l 219 438 q 320 208 232 297 z "},"ӫ":{"ha":781,"x_min":49,"x_max":732,"o":"m 249 739 q 174 769 206 739 q 143 844 143 800 q 174 920 143 889 q 249 951 204 951 q 324 920 293 951 q 356 844 356 889 q 324 769 356 800 q 249 739 293 739 m 606 769 q 591 754 606 769 q 531 739 575 739 q 456 769 486 739 q 425 844 425 800 q 456 920 425 889 q 531 951 486 951 q 606 920 575 951 q 638 844 638 889 q 606 769 638 800 m 141 567 q 187 616 141 567 q 390 664 233 664 q 640 567 547 664 q 732 324 732 471 q 640 80 732 176 q 390 -17 547 -17 q 141 80 233 -17 q 49 324 49 176 q 141 567 49 471 m 515 487 q 491 508 515 487 q 390 529 467 529 q 265 487 314 529 q 204 374 217 444 l 576 374 q 515 487 564 444 m 265 160 q 290 139 265 160 q 390 118 314 118 q 515 160 467 118 q 576 274 564 203 l 204 274 q 265 160 217 203 z "},"Ӭ":{"ha":1010,"x_min":43,"x_max":961,"o":"m 381 1056 q 366 1040 381 1056 q 306 1025 350 1025 q 231 1056 261 1025 q 200 1131 200 1086 q 231 1206 200 1175 q 306 1238 261 1238 q 381 1206 350 1238 q 413 1131 413 1175 q 381 1056 413 1086 m 638 1025 q 563 1056 594 1025 q 532 1131 532 1086 q 563 1206 532 1175 q 638 1238 593 1238 q 713 1206 682 1238 q 744 1131 744 1175 q 713 1056 744 1086 q 638 1025 682 1025 m 478 996 q 828 856 694 996 q 961 486 961 717 q 828 116 961 256 q 478 -24 694 -24 q 183 69 300 -24 q 43 313 65 163 l 217 313 q 301 173 231 226 q 478 119 372 119 q 687 198 604 119 q 789 414 769 276 l 353 414 l 353 558 l 789 558 q 687 774 769 696 q 478 853 604 853 q 303 800 374 853 q 218 663 232 747 l 43 663 q 187 906 68 815 q 478 996 306 996 z "},"ӭ":{"ha":742,"x_min":49,"x_max":693,"o":"m 218 739 q 144 769 175 739 q 113 844 113 800 q 143 920 113 889 q 218 951 174 951 q 294 920 263 951 q 325 844 325 889 q 294 769 325 800 q 218 739 263 739 m 576 769 q 560 754 576 769 q 500 739 544 739 q 425 769 456 739 q 394 844 394 800 q 425 920 394 889 q 500 951 456 951 q 576 920 544 951 q 607 844 607 889 q 576 769 607 800 m 201 411 l 50 411 q 138 592 53 519 q 360 664 224 664 q 608 565 522 664 q 693 324 693 467 q 608 82 693 181 q 360 -17 522 -17 q 137 51 222 -17 q 49 222 51 119 l 200 222 q 367 118 219 118 q 539 267 528 118 l 288 267 l 288 379 l 539 379 q 491 489 533 449 q 367 529 449 529 q 201 411 221 529 z "},"Ӯ":{"ha":779,"x_min":-21,"x_max":807,"o":"m 676 1181 l 676 1061 l 135 1061 l 135 1181 l 676 1181 m 632 972 l 807 972 l 325 0 l 150 0 l 343 390 l -21 972 l 164 972 l 425 554 l 632 972 z "},"ӯ":{"ha":786,"x_min":90,"x_max":689,"o":"m 160 772 l 160 892 l 601 892 l 601 772 l 160 772 m 538 647 l 689 647 l 689 -3 q 604 -233 689 -151 q 385 -308 522 -308 q 163 -242 242 -308 q 90 -74 93 -181 l 243 -74 q 280 -156 249 -129 q 382 -183 311 -183 q 496 -137 454 -183 q 538 8 538 -90 l 538 90 q 329 -17 475 -17 q 152 58 214 -17 q 90 253 90 132 l 90 647 l 242 647 l 242 285 q 382 117 242 117 q 498 171 458 117 q 538 313 538 225 l 538 647 z "},"Ӱ":{"ha":779,"x_min":-21,"x_max":807,"o":"m 315 1056 q 299 1040 315 1056 q 239 1025 283 1025 q 164 1056 194 1025 q 133 1131 133 1086 q 164 1206 133 1175 q 239 1238 194 1238 q 315 1206 283 1238 q 346 1131 346 1175 q 315 1056 346 1086 m 571 1025 q 497 1056 528 1025 q 465 1131 465 1086 q 496 1206 465 1175 q 571 1238 526 1238 q 647 1206 615 1238 q 678 1131 678 1175 q 647 1056 678 1086 q 571 1025 615 1025 m 632 972 l 807 972 l 325 0 l 150 0 l 343 390 l -21 972 l 164 972 l 425 554 l 632 972 z "},"ӱ":{"ha":786,"x_min":90,"x_max":689,"o":"m 315 769 q 299 754 315 769 q 239 739 283 739 q 164 769 194 739 q 133 844 133 800 q 164 920 133 889 q 239 951 194 951 q 315 920 283 951 q 346 844 346 889 q 315 769 346 800 m 521 739 q 447 769 478 739 q 415 844 415 800 q 446 920 415 889 q 521 951 476 951 q 597 920 565 951 q 628 844 628 889 q 597 769 628 800 q 521 739 565 739 m 538 647 l 689 647 l 689 -3 q 604 -233 689 -151 q 385 -308 522 -308 q 163 -242 242 -308 q 90 -74 93 -181 l 243 -74 q 280 -156 249 -129 q 382 -183 311 -183 q 496 -137 454 -183 q 538 8 538 -90 l 538 90 q 329 -17 475 -17 q 152 58 214 -17 q 90 253 90 132 l 90 647 l 242 647 l 242 285 q 382 117 242 117 q 498 171 458 117 q 538 313 538 225 l 538 647 z "}}}
